<svg xmlns="http://www.w3.org/2000/svg" viewBox="0 0 80.43 51.37"><title>Asset 2</title><g id="Layer_2" data-name="Layer 2"><g id="Layer_1-2" data-name="Layer 1"><path d="M0,.27A11.46,11.46,0,0,1,1.87.14l.83,0a5.14,5.14,0,0,1,.83.11L5.89,12.62,8.72.27l.84-.1c.26,0,.52,0,.8,0a8.8,8.8,0,0,1,1.48.14l2.94,12.67L17.14.27A7.67,7.67,0,0,1,18.6.14a8.54,8.54,0,0,1,.89,0l.84.09L16.38,16.68a10.39,10.39,0,0,1-1.71.14,14.41,14.41,0,0,1-1.89-.14L10.15,5.75,7.33,16.68l-1,.09a8.7,8.7,0,0,1-.92,0,9.32,9.32,0,0,1-1.53-.14Z" style="fill:#FFBF00"/><path d="M22,.27A10.38,10.38,0,0,1,23.71.14,10.84,10.84,0,0,1,25.4.27V6.71h5.5V.27A10.39,10.39,0,0,1,32.56.14a10.81,10.81,0,0,1,1.69.14V16.68a10.69,10.69,0,0,1-1.67.14,10.53,10.53,0,0,1-1.69-.14V9.58H25.4v7.1a10.7,10.7,0,0,1-1.67.14A10.52,10.52,0,0,1,22,16.68Z" style="fill:#FFBF00"/><path d="M41.05.27,42,.17c.29,0,.61,0,1,0s.6,0,.89,0l1,.1L49.9,16.68a12.59,12.59,0,0,1-1.83.14,10.25,10.25,0,0,1-1.69-.14l-.91-3.29H40l-.94,3.29a9.58,9.58,0,0,1-1.58.14,10.1,10.1,0,0,1-1.67-.14ZM44.7,10.63,42.81,3.74l-2,6.89Z" style="fill:#FFBF00"/><path d="M53.15,3.1H49.06a7.35,7.35,0,0,1-.14-1.44A7.12,7.12,0,0,1,49.06.27H60.58a7.12,7.12,0,0,1,.14,1.39,7.35,7.35,0,0,1-.14,1.44H56.5V16.68l-.82.08c-.27,0-.54,0-.8,0l-.83,0q-.45,0-.9-.09Z" style="fill:#FFBF00"/><path d="M63.73.3a5.52,5.52,0,0,1,.78-.13q.39,0,.75,0t.8,0a5.52,5.52,0,0,1,.82.13L65.22,6.14a4.52,4.52,0,0,1-.78.11l-.75,0-.72,0a4.49,4.49,0,0,1-.74-.11Z" style="fill:#FFBF00"/><path d="M72.4,9.08A9.9,9.9,0,0,1,71,8.43a4.14,4.14,0,0,1-1-.84,3.51,3.51,0,0,1-.67-1.18A5,5,0,0,1,69,4.77a5,5,0,0,1,.4-2.05,4.08,4.08,0,0,1,1.13-1.49A5,5,0,0,1,72.34.31,8,8,0,0,1,74.64,0a11,11,0,0,1,2.18.21A16.62,16.62,0,0,1,79,.8a8.12,8.12,0,0,1-.73,2.6l-.7-.27a5.51,5.51,0,0,0-.75-.23,8.38,8.38,0,0,0-.9-.15,10.32,10.32,0,0,0-1.14-.06,4.67,4.67,0,0,0-.79.07,2.18,2.18,0,0,0-.72.25,1.42,1.42,0,0,0-.52.54,1.82,1.82,0,0,0-.21.92,1.65,1.65,0,0,0,.16.76,1.6,1.6,0,0,0,.43.52,2.75,2.75,0,0,0,.62.37l.68.29,1.37.52q.87.34,1.57.71a4.26,4.26,0,0,1,1.2.9,3.8,3.8,0,0,1,.76,1.3,5.65,5.65,0,0,1,.27,1.88,5.21,5.21,0,0,1-.42,2.12,4.57,4.57,0,0,1-1.22,1.64,5.78,5.78,0,0,1-2,1.07,8.62,8.62,0,0,1-2.7.39q-.75,0-1.35,0a10.11,10.11,0,0,1-1.13-.15,10.46,10.46,0,0,1-1.06-.26q-.52-.16-1.09-.39a9.64,9.64,0,0,1,.25-1.38q.18-.72.43-1.45a11.89,11.89,0,0,0,1.8.58,8,8,0,0,0,1.8.19,4.1,4.1,0,0,0,2.26-.54A1.81,1.81,0,0,0,76,11.89a1.93,1.93,0,0,0-.19-.91,2,2,0,0,0-.5-.62,3,3,0,0,0-.7-.42l-.8-.33Z" style="fill:#FFBF00"/><path d="M2.63,20.07a19.49,19.49,0,0,1,3.13-.26,20.3,20.3,0,0,1,3.17.26V32.14H19.25V20.07a19.48,19.48,0,0,1,3.13-.26,20.29,20.29,0,0,1,3.17.26V50.85a20,20,0,0,1-3.12.26,19.75,19.75,0,0,1-3.17-.26V37.54H8.93V50.85a20,20,0,0,1-3.13.26,19.75,19.75,0,0,1-3.17-.26Z" style="fill:#FFBF00"/><path d="M43.7,51.37a13.87,13.87,0,0,1-6-1.2,11.18,11.18,0,0,1-4.15-3.32,14.34,14.34,0,0,1-2.42-5,23.83,23.83,0,0,1-.79-6.32,24.32,24.32,0,0,1,.79-6.36,14.55,14.55,0,0,1,2.42-5.07,11.11,11.11,0,0,1,4.15-3.34,13.87,13.87,0,0,1,6-1.2,13.87,13.87,0,0,1,6,1.2,11.12,11.12,0,0,1,4.15,3.34,14.56,14.56,0,0,1,2.42,5.07,24.32,24.32,0,0,1,.79,6.36,23.82,23.82,0,0,1-.79,6.32,14.36,14.36,0,0,1-2.42,5,11.2,11.2,0,0,1-4.15,3.32A13.87,13.87,0,0,1,43.7,51.37Zm0-5.22q6.64,0,6.64-10.62,0-5.31-1.61-8a5.42,5.42,0,0,0-5-2.65Q37,24.9,37,35.52T43.7,46.14Z" style="fill:#FFBF00"/><path d="M66.22,25.38H58.55a13.76,13.76,0,0,1-.26-2.7,13.32,13.32,0,0,1,.26-2.61H80.18a13.32,13.32,0,0,1,.26,2.61,13.76,13.76,0,0,1-.26,2.7H72.51V50.85L71,51q-.77.06-1.5.06t-1.56,0q-.83,0-1.69-.17Z" style="fill:#FFBF00"/></g></g></svg>