<svg xmlns="http://www.w3.org/2000/svg" viewBox="0 0 71.56 71.66"><title>Asset 2</title><g id="Layer_2" data-name="Layer 2"><g id="Layer_1-2" data-name="Layer 1"><path d="M59,16.55c-4,4.33-7.72,8.46-11.5,12.58-2.05,2.23.27,3.71,1,5.28C55,48,49.26,64,35.77,69.59A25.67,25.67,0,0,1,8.17,27.2c8-7.3,19-9.09,28.68-4.06,3.4,1.77,5.44,1.52,8-1.21,3.16-3.33,6.86-6.15,10.46-9.31-2.71-2.45-4.24-.91-5.76-.95-1.87-.05-3.32-.41-3.77-2.43a3.09,3.09,0,0,1,2.17-4C54.38,3.45,60.78,1.62,67.26.15c3.2-.73,4.88,1.28,4.13,4.39C69.85,10.83,68,17.05,66.22,23.28c-.54,1.9-2,2.57-3.89,2.29-2-.31-2.55-1.74-2.64-3.62C59.61,20.53,60.89,19.15,59,16.55ZM7.09,46a18.69,18.69,0,0,0,18.47,18.9c10,.09,18.77-8.67,18.86-18.74a18.74,18.74,0,0,0-18.7-18.68A18.22,18.22,0,0,0,7.09,46Z" style="fill:#fff"/></g></g></svg>