<svg xmlns="http://www.w3.org/2000/svg" viewBox="0 0 37.95 119.35"><defs><style>.cls-1{fill:#c1272d;}</style></defs><title>Asset 2</title><g id="Layer_2" data-name="Layer 2"><g id="Layer_1-2" data-name="Layer 1"><path class="cls-1" d="M24.18,83.34A37.58,37.58,0,0,1,25,75.21,21.27,21.27,0,0,1,27.33,69a18.22,18.22,0,0,1,4.24-4.88,44.54,44.54,0,0,1,6.37-4.23v-.52a44.26,44.26,0,0,1-6.37-4.23,18.2,18.2,0,0,1-4.24-4.88A21.23,21.23,0,0,1,25,44.14,37.56,37.56,0,0,1,24.18,36V26q0-13.26-5.34-19.63T.26,0C.17.61.11,1.22.06,1.82S0,3.08,0,3.77,0,5.12.06,5.72A13.37,13.37,0,0,0,.26,7.28,22.62,22.62,0,0,1,8.49,8.52a9.27,9.27,0,0,1,4.69,4,17.86,17.86,0,0,1,2.12,7,84.76,84.76,0,0,1,.51,10.08v1.43a104.36,104.36,0,0,0,.51,11.25,33,33,0,0,0,1.74,7.86,16.51,16.51,0,0,0,3.35,5.53,22.16,22.16,0,0,0,5.34,4.1,22.2,22.2,0,0,0-5.34,4.09,16.54,16.54,0,0,0-3.35,5.53,33,33,0,0,0-1.74,7.87,104.34,104.34,0,0,0-.51,11.25v1.43a84.7,84.7,0,0,1-.51,10.08,17.88,17.88,0,0,1-2.12,7,9.26,9.26,0,0,1-4.69,4,22.61,22.61,0,0,1-8.23,1.24c-.08.52-.15,1.06-.19,1.62S0,114.89,0,115.58s0,1.36.06,2,.11,1.23.19,1.75q13.25,0,18.59-6.37t5.34-19.63Z"/></g></g></svg>