<svg id="Layer_1" data-name="Layer 1" xmlns="http://www.w3.org/2000/svg" viewBox="0 0 100 100"><title>moto</title><g id="MwfoJ0.tif"><path d="M78.26,50.56q0,17.55,0,35.1c0,7.33-3.72,11.06-11,11.06q-17,0-33.92,0c-6.19,0-10.35-3.85-10.37-10q-.13-36.28,0-72.56C23,7.91,27.13,4,33.28,4Q50.6,4,67.91,4c6.34,0,10.31,3.91,10.34,10.27C78.3,26.37,78.26,38.46,78.26,50.56Zm-8.19-3c0-9.35-.06-18.69,0-28,0-2.18-.51-3-2.87-3-11.15.11-22.3.1-33.46,0-2.06,0-2.7.59-2.7,2.67q.1,28.27,0,56.55c0,2.23.75,2.77,2.86,2.75q16.61-.13,33.22,0c2.25,0,3-.62,3-2.91C70,66.27,70.07,56.92,70.07,47.57ZM50.46,82.51a4.42,4.42,0,0,0-4.61,4.33,4.49,4.49,0,0,0,9,0A4.34,4.34,0,0,0,50.46,82.51Z" style="fill:#f15a24"/></g></svg>