<svg xmlns="http://www.w3.org/2000/svg" viewBox="0 0 401.49 250.82"><title>Asset 6</title><g style="isolation:isolate"><g id="Layer_2" data-name="Layer 2"><g id="Objects"><polygon points="208.84 196.31 194.11 206.99 194.11 125.83 208.84 125.83 208.84 196.31" style="fill:#f15a24"/><path d="M360.81,126.15H346.08s-41.83-12.47-85.68-53.09C225.48,40.72,201.47,1,201.47,1s31.38,42.93,62.61,68.09C312.22,107.87,360.81,126.15,360.81,126.15Z" style="fill:#f15a24"/><path d="M326.68,126.15H312s-31.75-18.53-62.6-51.42C219.88,43.31,201.47,1,201.47,1s17.06,35.11,53.91,72C287.38,105,326.68,126.15,326.68,126.15Z" style="fill:#f15a24"/><path d="M297.22,126.15H282.49s-20.21-14.85-43.84-49.58C218.83,47.43,201.47,1,201.47,1s18.41,42.39,41.62,72.81C265.42,103.06,297.22,126.15,297.22,126.15Z" style="fill:#f15a24"/><path d="M267.76,126.15H253a257.92,257.92,0,0,1-29.16-51.52C216.36,56.76,201.47,1,201.47,1a391.72,391.72,0,0,0,29.89,72C246.06,100.16,267.76,126.15,267.76,126.15Z" style="fill:#f15a24"/><path d="M238.3,126.15H223.57s-5-18.89-12.59-57.35C202.93,27.73,201.47,1,201.47,1s11.6,49.75,16.17,66.15A471.33,471.33,0,0,0,238.3,126.15Z" style="fill:#f15a24"/><path d="M42.14,125.83H56.87s41.83-12.47,85.68-53.09C177.46,40.4,201.47.67,201.47.67S170.1,43.6,138.87,68.76C90.72,107.55,42.14,125.83,42.14,125.83Z" style="fill:#f15a24"/><path d="M76.26,126.15H91s31.74-18.53,62.6-51.42C183.06,43.31,201.47,1,201.47,1S184.41,36.1,147.56,73C115.57,105,76.26,126.15,76.26,126.15Z" style="fill:#f15a24"/><path d="M105.72,126.15h14.73s20.2-14.85,43.83-49.58C184.11,47.43,201.47,1,201.47,1S183.06,43.37,159.85,73.8C137.52,103.06,105.72,126.15,105.72,126.15Z" style="fill:#f15a24"/><path d="M135.18,126.15h14.73a257.91,257.91,0,0,0,29.15-51.52C186.59,56.76,201.47,1,201.47,1a391.66,391.66,0,0,1-29.89,72C156.88,100.16,135.18,126.15,135.18,126.15Z" style="fill:#f15a24"/><path d="M164.65,126.15h14.73s5-18.89,12.59-57.35C200,27.73,201.47,1,201.47,1s-11.6,49.75-16.17,66.15A471.11,471.11,0,0,1,164.65,126.15Z" style="fill:#f15a24"/><polygon points="201.47 0.99 208.84 125.83 194.11 125.83 201.47 0.99" style="fill:#f15a24"/><path d="M56.72,125.63c0,34.44-34.2,123.26-34.2,123.26H0S27.25,217,52.17,125.63Z" style="fill:#f15a24"/><path d="M56.71,248.89h-21s21.8-50.16,41.74-123.25h6.65C84.07,153.18,56.71,248.89,56.71,248.89Z" style="fill:#f15a24"/><path d="M90.9,248.89H71.36s16.35-68.44,31.3-123.25h8.75C111.42,146.29,90.9,248.89,90.9,248.89Z" style="fill:#f15a24"/><path d="M125.08,248.89H107s10.9-86.71,20.87-123.25h10.86C138.76,139.41,125.08,248.89,125.08,248.89Z" style="fill:#f15a24"/><path d="M159.27,248.89H142.72s5.45-105,10.43-123.25h13C166.11,132.52,159.27,248.89,159.27,248.89Z" style="fill:#f15a24"/><rect x="178.4" y="125.63" width="15.06" height="123.25" style="fill:#f15a24"/><path d="M344.77,125.63c0,34.44,34.2,123.26,34.2,123.26h22.52S374.25,217,349.32,125.63Z" style="fill:#f15a24"/><path d="M344.78,248.89h21S344,198.72,324.07,125.63h-6.65C317.42,153.18,344.78,248.89,344.78,248.89Z" style="fill:#f15a24"/><path d="M310.6,248.89h19.54s-16.35-68.44-31.3-123.25h-8.75C290.07,146.29,310.6,248.89,310.6,248.89Z" style="fill:#f15a24"/><path d="M276.41,248.89h18s-10.9-86.71-20.87-123.25H262.73C262.73,139.41,276.41,248.89,276.41,248.89Z" style="fill:#f15a24"/><path d="M242.22,248.89h16.55s-5.45-105-10.43-123.25h-13C235.38,132.52,242.22,248.89,242.22,248.89Z" style="fill:#f15a24"/><rect x="208.03" y="125.63" width="15.06" height="123.25" style="fill:#f15a24"/><polygon points="185.84 20.61 201.51 0 217.17 20.61 185.84 20.61" style="fill:#ffc50a"/><path d="M256.45,213.33c-14.73-24.86-30.72-73.69-30.72-73.69-8.66-5.85-50.26-1.17-50.26-1.17-4.71,34.7-48.2,110.57-48.2,110.57H277.69S271.19,238.19,256.45,213.33Z" style="fill:#400707"/><path d="M187,127.56s-5.16,55.14-24.77,96.55c-11.15,23.54-14.62,26.71-14.62,26.71h-24s12.3-10.66,27-36.43c29.07-51,34.09-86.82,34.09-86.82Z" style="fill:#f15a24"/><path d="M219.56,19.44a1.17,1.17,0,0,1-1.17,1.17H184.62a1.17,1.17,0,0,1-1.17-1.17h0a1.17,1.17,0,0,1,1.17-1.17H218.4a1.17,1.17,0,0,1,1.17,1.17Z" style="fill:#9b432f"/><path d="M180.91,125.63s-6.09,55.14-29.24,96.55c-13.16,23.54-17.26,26.71-17.26,26.71H106s14.51-10.66,31.85-36.43c34.32-51,40.24-86.82,40.24-86.82Z" style="fill:#ffc50a"/><path d="M214.46,127.56s5.16,55.14,24.77,96.55c11.15,23.54,14.62,26.71,14.62,26.71h24s-12.3-10.66-27-36.43c-29.07-51-34.09-86.82-34.09-86.82Z" style="fill:#f15a24"/><path d="M45.57,134.23v15.48c0,4.59,7,8.32,15.59,8.32s15.59-3.72,15.59-8.32c0,4.59,7,8.32,15.59,8.32s15.59-3.72,15.59-8.32c0,4.59,7,8.32,15.59,8.32s15.59-3.72,15.59-8.32c0,4.59,7,8.32,15.59,8.32s15.59-3.72,15.59-8.32c0,4.59,7,8.32,15.59,8.32s15.59-3.72,15.59-8.32c0,4.59,7,8.32,15.59,8.32s15.59-3.72,15.59-8.32c0,4.59,7,8.32,15.59,8.32s15.59-3.72,15.59-8.32c0,4.59,7,8.32,15.59,8.32S295,154.3,295,149.71c0,4.59,7,8.32,15.59,8.32s15.59-3.72,15.59-8.32c0,4.59,7,8.32,15.59,8.32s15.59-3.72,15.59-8.32V134.23Z" style="fill:#400707;opacity:0.2;mix-blend-mode:multiply"/><path d="M220.56,125.63s6.09,55.14,29.24,96.55c13.16,23.54,17.26,26.71,17.26,26.71h28.38s-14.51-10.66-31.85-36.43c-34.32-51-40.24-86.82-40.24-86.82Z" style="fill:#ffc50a"/><path d="M42.14,125.83v11.7a15.93,15.93,0,1,0,31.87,0,15.93,15.93,0,0,0,31.87,0,15.93,15.93,0,1,0,31.87,0,15.93,15.93,0,1,0,31.87,0,15.93,15.93,0,1,0,31.87,0,15.93,15.93,0,0,0,31.87,0,15.93,15.93,0,1,0,31.87,0,15.93,15.93,0,1,0,31.87,0,15.93,15.93,0,1,0,31.87,0,15.93,15.93,0,1,0,31.87,0v-11.7Z" style="fill:#ffc50a"/><path d="M365.12,127.14a2.09,2.09,0,0,1-2.09,2.09H39.49a2.09,2.09,0,0,1-2.09-2.09h0A2.09,2.09,0,0,1,39.49,125H363a2.09,2.09,0,0,1,2.09,2.09Z" style="fill:#9b432f"/></g></g></g></svg>