<svg id="Layer_1" data-name="Layer 1" xmlns="http://www.w3.org/2000/svg" viewBox="0 0 100 100"><title>moto</title><g id="OGs5D3.tif"><path d="M89.09,49.49q0,23.26,0,46.52c0,1-.39,1.59-1.58,1.59-11.25,0-22.5,0-33.75,0H14c-1,0-1.33-.34-1.33-1.31,0-2.07,0-4.14,0-6.2q0-43.63,0-87.27c0-1,.38-1.43,1.42-1.48.3,0,.61,0,.91,0H87.24c1.55,0,1.85.3,1.85,1.84q0,23.17,0,46.34Zm-74.19,0q0,20.25,0,40.5c0,1.56,0,3.12,0,4.68,0,.51.17.71.67.66.22,0,.45,0,.67,0H86c.86,0,.86,0,.86-.89q0-3.89,0-7.78,0-20.34,0-40.69,0-20.62,0-41.23c0-1.12,0-1.12-1.11-1.12H15.43c-.4,0-.55.17-.53.55,0,.22,0,.45,0,.67Q14.91,27.17,14.91,49.49Z" style="fill:#f15a24"/><path d="M50.91,11.5H78.64a1.11,1.11,0,0,1,1.18,1,4.15,4.15,0,0,1,0,.67q0,6.78,0,13.56c0,1.27-.3,1.56-1.58,1.56l-42.18,0H24.41c-.4,0-.81,0-1.21,0-.86,0-1.3-.37-1.3-1.22q0-7.17,0-14.35c0-.91.39-1.23,1.41-1.23h27.6ZM50.8,26H76.64c.87,0,.87,0,.87-.88,0-3.3,0-6.61,0-9.91,0-1.41.33-1.43-1.45-1.43l-27.67,0L25,13.77c-.87,0-.88,0-.88.89q0,5.26,0,10.52c0,.81,0,.81.8.81H50.8Z" style="fill:#f15a24"/><path d="M54.68,52.92q0,9.37,0,18.73c0,1.3-.31,1.59-1.61,1.59H23.7c-.26,0-.53,0-.79,0a1,1,0,0,1-1-1c0-.28,0-.57,0-.85q0-16.57,0-33.14,0-2.06,0-4.12c0-1.09.34-1.43,1.46-1.43l6.75,0,17.27,0h5.78c1.17,0,1.53.36,1.53,1.51Q54.68,43.56,54.68,52.92ZM24.16,53h0q0,8.57,0,17.15c0,.9,0,.9.9.9H51.27c.22,0,.45,0,.67,0s.52-.16.5-.51c0-.1,0-.2,0-.3q0-17.21,0-34.42c0-.47,0-.85-.66-.85q-13.47,0-26.94,0c-.53,0-.69.18-.69.71Q24.17,44.29,24.16,53Z" style="fill:#f15a24"/><path d="M50.92,80.93H31.83l-8.57,0c-.81,0-1.25-.35-1.3-1a1.12,1.12,0,0,1,1.22-1.21c1.49,0,3,0,4.48,0H78.48c1.06,0,1.64.83,1.21,1.68a1,1,0,0,1-1,.58H50.92Z" style="fill:#f15a24"/><path d="M50.94,86.32H78.06a5.42,5.42,0,0,1,.79,0,1.11,1.11,0,0,1,1,1.13,1.16,1.16,0,0,1-1,1.09,4.55,4.55,0,0,1-.55,0H23.46a3,3,0,0,1-.6,0A1.12,1.12,0,0,1,22,87.38a1,1,0,0,1,.88-1,4.13,4.13,0,0,1,.85,0Z" style="fill:#f15a24"/><path d="M68.13,55.68H78.22a3.51,3.51,0,0,1,.67,0,1.05,1.05,0,0,1,.94,1A1.06,1.06,0,0,1,79,57.89a2.89,2.89,0,0,1-.84.1H58.13a3.54,3.54,0,0,1-.84-.09,1,1,0,0,1-.84-1.27c.05-.59.33-.87,1-.94a6.06,6.06,0,0,1,.67,0h10Z" style="fill:#f15a24"/><path d="M68.15,71H78.49a1.21,1.21,0,0,1,1.24,1.78c-.17.38-.7.46-1.14.46H57.74c-1,0-1.33-.35-1.29-1.19s.38-1,1.32-1.05Z" style="fill:#f15a24"/><path d="M68.06,34.94H57.49a.91.91,0,0,1-1-.93,1.07,1.07,0,0,1,.83-1.29,2.32,2.32,0,0,1,.48,0h21a1.17,1.17,0,0,1,1.11,1.15,1.06,1.06,0,0,1-1.14,1.07c-1.44,0-2.88,0-4.31,0H68.06Z" style="fill:#f15a24"/><path d="M68.11,65.58H57.66c-.86,0-1.18-.28-1.22-1a1,1,0,0,1,1.15-1.23c1,0,2,0,3,0H78.5a1.22,1.22,0,0,1,1.21.64,1.1,1.1,0,0,1-.12,1.2,1.14,1.14,0,0,1-1.08.41Z" style="fill:#f15a24"/><path d="M68.11,42.59H57.6c-.91,0-1.29-.47-1.15-1.36a.86.86,0,0,1,.77-.81,6.45,6.45,0,0,1,.85-.06h20c.18,0,.37,0,.55,0a1.13,1.13,0,0,1,1.16,1.15c0,.67-.47,1.07-1.26,1.07H68.11Z" style="fill:#f15a24"/><path d="M68.11,50.26H57.66c-.86,0-1.24-.37-1.21-1.15A1.09,1.09,0,0,1,57.63,48H78.48a1.21,1.21,0,0,1,1.29.81,1.09,1.09,0,0,1-.4,1.24,1,1,0,0,1-.74.21H68.11Z" style="fill:#f15a24"/></g></svg>