<?xml version="1.0" encoding="utf-8"?>
<!-- Generator: Adobe Illustrator 21.1.0, SVG Export Plug-In . SVG Version: 6.00 Build 0)  -->
<svg version="1.1" id="Layer_1" xmlns="http://www.w3.org/2000/svg" xmlns:xlink="http://www.w3.org/1999/xlink" x="0px" y="0px"
	 viewBox="0 0 1400.9 917.1" style="enable-background:new 0 0 1400.9 917.1;" xml:space="preserve">
<style type="text/css">
	.st0{fill:#F6D3A4;}
	.st1{opacity:0.7;fill:#FE7694;enable-background:new    ;}
	.st2{opacity:0.7;fill:#F9668E;enable-background:new    ;}
	.st3{fill:#E8E061;}
	.st4{fill:#48AF96;}
	.st5{fill:#2F846E;}
	.st6{fill:#5E5555;}
	.st7{fill:#33918A;}
	.st8{fill:#1F665F;}
	.st9{fill:#478361;}
	.st10{fill:#3A6E50;}
	.st11{fill:#24453B;}
	.st12{opacity:0.7;fill:#FA969A;enable-background:new    ;}
	.st13{opacity:0.7;fill:#FE3D83;enable-background:new    ;}
	.st14{fill:#FFFFFF;}
	.st15{fill:#ABA1A0;}
	.st16{fill:#DDD2CE;}
	.st17{opacity:0.5;}
	.st18{opacity:0.5;fill:#DDD2CE;enable-background:new    ;}
	.st19{fill:#898080;}
	.st20{fill:#99BC5D;}
	.st21{fill:#E5E1DF;}
	.st22{fill:#62B7B7;}
	.st23{opacity:0.35;}
	.st24{fill:#868693;}
	.st25{fill:#F9F4EF;}
	.st26{fill:#B3B3BC;}
	.st27{opacity:0.5;fill:#B3B3BC;enable-background:new    ;}
	.st28{fill:#E7FFAB;}
	.st29{fill:#C4C4CE;}
	.st30{fill:#5A5A6B;}
</style>
<rect class="st0" width="1400.9" height="917"/>
<rect y="366.8" class="st1" width="1400.9" height="183.4"/>
<rect y="183.4" class="st2" width="1400.9" height="183.4"/>
<g>
	<g>
		<path class="st3" d="M1084.8,371.3c-6.7,0.8-12.1,6.3-12.6,13.3c0,0.3,0,0.7,0,1c-6.1,1.3-10.9,6.5-11.3,13.1
			c-0.1,0.8,0,1.5,0,2.3c-2.1,2.3-3.5,5.4-3.7,8.7c-0.3,5.1,2,9.7,5.8,12.5c-0.8,1.5-1.2,3.1-1.3,4.8c-0.5,6.9,4.7,12.8,11.6,13.3
			c0,0,0,0,0,0c1.7,4.3,5.8,7.5,10.7,7.9c4.7,0.3,9-2.1,11.4-5.8c0.1,0,0.2,0,0.2,0C1102.2,418.5,1089.3,382.6,1084.8,371.3z"/>
		<path class="st3" d="M1116.6,413.4c0.4-5.7-2.6-10.9-7.3-13.5c0.2-0.8,0.3-1.6,0.4-2.4c0.4-6.3-3.3-12-8.9-14.3
			c-1.1-6.4-6.4-11.6-13.2-12c-0.9-0.1-1.8,0-2.7,0.1c4.5,11.4,17.4,47.2,10.8,71.2c0.2,0,0.4,0,0.7,0.1c8.3,0.6,15.5-5.7,16.1-14.1
			c0.1-1.8-0.1-3.6-0.6-5.2C1114.5,420.8,1116.3,417.3,1116.6,413.4z"/>
		<g>
			<polygon class="st3" points="1085.1,421.1 1071.7,412.7 1084.4,427.1 1078.2,482.5 1086.9,482.6 1087.4,400.8 			"/>
			<polygon class="st3" points="1089,417.1 1102.3,402.2 1088.6,410.7 1087.7,398 1087.4,400.8 1086.9,482.6 1093.7,482.7 			"/>
		</g>
	</g>
	<g>
		<g>
			<path class="st3" d="M1120.4,393c-5.5,0.7-9.8,5.1-10.2,10.8c0,0.3,0,0.5,0,0.8c-5,1.1-8.8,5.3-9.2,10.6c0,0.6,0,1.3,0,1.9
				c-1.7,1.9-2.9,4.3-3,7.1c-0.3,4.1,1.6,7.9,4.7,10.2c-0.6,1.2-1,2.5-1.1,3.9c-0.4,5.6,3.8,10.4,9.4,10.8c0,0,0,0,0,0
				c1.4,3.5,4.7,6.1,8.7,6.4c3.8,0.3,7.3-1.7,9.2-4.7c0.1,0,0.1,0,0.2,0C1134.5,431.3,1124,402.2,1120.4,393z"/>
			<path class="st3" d="M1146.2,427.1c0.3-4.6-2.1-8.8-5.9-11c0.2-0.6,0.3-1.3,0.3-2c0.3-5.2-2.7-9.7-7.2-11.6
				c-0.9-5.2-5.2-9.4-10.7-9.7c-0.7,0-1.5,0-2.2,0.1c3.7,9.2,14.2,38.3,8.7,57.7c0.2,0,0.4,0,0.5,0.1c6.8,0.5,12.6-4.7,13.1-11.4
				c0.1-1.5-0.1-2.9-0.5-4.2C1144.5,433.1,1145.9,430.3,1146.2,427.1z"/>
		</g>
		<g>
			<polygon class="st3" points="1118.8,432.7 1107.9,426 1118.2,437.6 1113.2,482.6 1120.2,482.6 1120.6,416.2 			"/>
			<polygon class="st3" points="1122,429.5 1132.7,417.4 1121.6,424.3 1120.9,414 1120.6,416.2 1120.2,482.6 1125.8,482.7 			"/>
		</g>
	</g>
	<path class="st4" d="M1086.8,371.3c-6.7,0.8-12.1,6.3-12.6,13.3c0,0.3,0,0.7,0,1c-6.1,1.3-10.9,6.5-11.3,13.1c-0.1,0.8,0,1.5,0,2.3
		c-2.1,2.3-3.5,5.4-3.7,8.7c-0.3,5.1,2,9.7,5.8,12.5c-0.8,1.5-1.2,3.1-1.3,4.8c-0.5,6.9,4.7,12.8,11.6,13.3c0,0,0,0,0,0
		c1.7,4.3,5.8,7.5,10.7,7.9c4.7,0.3,9-2.1,11.4-5.8c0.1,0,0.2,0,0.2,0C1104.3,418.5,1091.4,382.6,1086.8,371.3z"/>
	<path class="st5" d="M1118.6,413.4c0.4-5.7-2.6-10.9-7.3-13.5c0.2-0.8,0.3-1.6,0.4-2.4c0.4-6.3-3.3-12-8.9-14.3
		c-1.1-6.4-6.4-11.6-13.2-12c-0.9-0.1-1.8,0-2.7,0.1c4.5,11.4,17.4,47.2,10.8,71.2c0.2,0,0.4,0,0.7,0.1c8.3,0.6,15.5-5.7,16.1-14.1
		c0.1-1.8-0.1-3.6-0.6-5.2C1116.5,420.8,1118.4,417.3,1118.6,413.4z"/>
	<g>
		<polygon class="st6" points="1087.1,421.1 1073.7,412.7 1086.4,427.1 1080.2,482.5 1088.9,482.6 1089.4,400.8 		"/>
		<polygon class="st6" points="1091,417.1 1104.3,402.2 1090.6,410.7 1089.7,398 1089.4,400.8 1088.9,482.6 1095.7,482.7 		"/>
	</g>
	<path class="st7" d="M1122.4,393c-5.5,0.7-9.8,5.1-10.2,10.8c0,0.3,0,0.5,0,0.8c-5,1.1-8.8,5.3-9.2,10.6c0,0.6,0,1.3,0,1.9
		c-1.7,1.9-2.9,4.3-3,7.1c-0.3,4.1,1.6,7.9,4.7,10.2c-0.6,1.2-1,2.5-1.1,3.9c-0.4,5.6,3.8,10.4,9.4,10.8c0,0,0,0,0,0
		c1.4,3.5,4.7,6.1,8.7,6.4c3.8,0.3,7.3-1.7,9.2-4.7c0.1,0,0.1,0,0.2,0C1136.5,431.3,1126.1,402.2,1122.4,393z"/>
	<path class="st8" d="M1148.2,427.1c0.3-4.6-2.1-8.8-5.9-11c0.2-0.6,0.3-1.3,0.3-2c0.3-5.2-2.7-9.7-7.2-11.6
		c-0.9-5.2-5.2-9.4-10.7-9.7c-0.7,0-1.5,0-2.2,0.1c3.7,9.2,14.2,38.3,8.7,57.7c0.2,0,0.4,0,0.5,0.1c6.8,0.5,12.6-4.7,13.1-11.4
		c0.1-1.5-0.1-2.9-0.5-4.2C1146.5,433.1,1148,430.3,1148.2,427.1z"/>
	<g>
		<polygon class="st6" points="1120.8,432.7 1109.9,426 1120.3,437.6 1115.2,482.6 1122.3,482.6 1122.6,416.2 		"/>
		<polygon class="st6" points="1124,429.5 1134.7,417.4 1123.6,424.3 1122.9,414 1122.6,416.2 1122.3,482.6 1127.8,482.7 		"/>
	</g>
	<g>
		<path class="st3" d="M821.5,371.3c-6.7,0.8-12.1,6.3-12.6,13.3c0,0.3,0,0.7,0,1c-6.1,1.3-10.9,6.5-11.3,13.1c-0.1,0.8,0,1.5,0,2.3
			c-2.1,2.3-3.5,5.4-3.7,8.7c-0.3,5.1,2,9.7,5.8,12.5c-0.8,1.5-1.2,3.1-1.3,4.8c-0.5,6.9,4.7,12.8,11.6,13.3c0,0,0,0,0,0
			c1.7,4.3,5.8,7.5,10.7,7.9c4.7,0.3,9-2.1,11.4-5.8c0.1,0,0.2,0,0.2,0C838.9,418.5,826,382.6,821.5,371.3z"/>
		<path class="st3" d="M853.3,413.4c0.4-5.7-2.6-10.9-7.3-13.5c0.2-0.8,0.3-1.6,0.4-2.4c0.4-6.3-3.3-12-8.9-14.3
			c-1.1-6.4-6.4-11.6-13.2-12c-0.9-0.1-1.8,0-2.7,0.1c4.5,11.4,17.4,47.2,10.8,71.2c0.2,0,0.4,0,0.7,0.1c8.3,0.6,15.5-5.7,16.1-14.1
			c0.1-1.8-0.1-3.6-0.6-5.2C851.2,420.8,853,417.3,853.3,413.4z"/>
		<g>
			<polygon class="st3" points="821.8,421.1 808.4,412.7 821.1,427.1 814.9,482.5 823.6,482.6 824.1,400.8 			"/>
			<polygon class="st3" points="825.7,417.1 839,402.2 825.3,410.7 824.4,398 824.1,400.8 823.6,482.6 830.4,482.7 			"/>
		</g>
	</g>
	<g>
		<g>
			<path class="st3" d="M857,393c-5.5,0.7-9.8,5.1-10.2,10.8c0,0.3,0,0.5,0,0.8c-5,1.1-8.8,5.3-9.2,10.6c0,0.6,0,1.3,0,1.9
				c-1.7,1.9-2.9,4.3-3,7.1c-0.3,4.1,1.6,7.9,4.7,10.2c-0.6,1.2-1,2.5-1.1,3.9c-0.4,5.6,3.8,10.4,9.4,10.8c0,0,0,0,0,0
				c1.4,3.5,4.7,6.1,8.7,6.4c3.8,0.3,7.3-1.7,9.2-4.7c0.1,0,0.1,0,0.2,0C871.2,431.3,860.7,402.2,857,393z"/>
			<path class="st3" d="M882.9,427.1c0.3-4.6-2.1-8.8-5.9-11c0.2-0.6,0.3-1.3,0.3-2c0.3-5.2-2.7-9.7-7.2-11.6
				c-0.9-5.2-5.2-9.4-10.7-9.7c-0.7,0-1.5,0-2.2,0.1c3.7,9.2,14.2,38.3,8.7,57.7c0.2,0,0.4,0,0.5,0.1c6.8,0.5,12.6-4.7,13.1-11.4
				c0.1-1.5-0.1-2.9-0.5-4.2C881.2,433.1,882.6,430.3,882.9,427.1z"/>
		</g>
		<g>
			<polygon class="st3" points="855.5,432.7 844.6,426 854.9,437.6 849.9,482.6 856.9,482.6 857.3,416.2 			"/>
			<polygon class="st3" points="858.7,429.5 869.4,417.4 858.3,424.3 857.6,414 857.3,416.2 856.9,482.6 862.5,482.7 			"/>
		</g>
	</g>
	<g>
		<g>
			<path class="st3" d="M1021.6,407.3c-4.6,0.6-8.3,4.3-8.6,9.1c0,0.2,0,0.5,0,0.7c-4.2,0.9-7.4,4.5-7.7,8.9c0,0.5,0,1.1,0,1.6
				c-1.5,1.6-2.4,3.7-2.6,6c-0.2,3.5,1.4,6.6,4,8.5c-0.5,1-0.8,2.1-0.9,3.3c-0.3,4.7,3.2,8.7,7.9,9c0,0,0,0,0,0c1.2,3,4,5.1,7.3,5.4
				c3.2,0.2,6.2-1.4,7.8-4c0.1,0,0.1,0,0.2,0C1033.5,439.5,1024.7,415,1021.6,407.3z"/>
			<path class="st3" d="M1043.3,436c0.3-3.9-1.8-7.4-5-9.2c0.1-0.5,0.2-1.1,0.3-1.6c0.3-4.3-2.3-8.2-6.1-9.7c-0.7-4.4-4.4-7.9-9-8.2
				c-0.6,0-1.2,0-1.8,0.1c3.1,7.8,11.9,32.2,7.3,48.5c0.1,0,0.3,0,0.5,0c5.7,0.4,10.6-3.9,11-9.6c0.1-1.2-0.1-2.4-0.4-3.5
				C1041.9,441.1,1043.2,438.7,1043.3,436z"/>
		</g>
		<g>
			<polygon class="st3" points="1020.3,440.7 1011.2,435 1019.9,444.8 1015.6,482.6 1021.5,482.7 1021.9,426.8 			"/>
			<polygon class="st3" points="1023,437.9 1032,427.8 1022.7,433.6 1022.1,425 1021.9,426.8 1021.5,482.7 1026.2,482.7 			"/>
		</g>
	</g>
	<g>
		<path class="st3" d="M884.6,363.6c-7.2,0.9-13,6.7-13.5,14.2c0,0.4,0,0.7,0,1.1c-6.5,1.4-11.6,7-12.1,14c-0.1,0.8,0,1.7,0,2.5
			c-2.3,2.5-3.8,5.7-4,9.3c-0.4,5.4,2.1,10.4,6.2,13.4c-0.8,1.6-1.3,3.3-1.4,5.2c-0.5,7.3,5.1,13.7,12.4,14.2c0,0,0,0,0,0
			c1.8,4.6,6.2,8,11.5,8.4c5.1,0.3,9.6-2.2,12.2-6.2c0.1,0,0.2,0,0.2,0C903.3,414,889.5,375.8,884.6,363.6z"/>
		<path class="st3" d="M918.6,408.6c0.4-6.1-2.8-11.6-7.8-14.4c0.2-0.8,0.3-1.7,0.4-2.6c0.5-6.8-3.6-12.8-9.5-15.3
			c-1.1-6.9-6.9-12.4-14.1-12.8c-1-0.1-1.9,0-2.9,0.1c4.9,12.2,18.6,50.4,11.5,76c0.2,0,0.5,0.1,0.7,0.1c8.9,0.6,16.6-6.1,17.2-15
			c0.1-1.9-0.1-3.8-0.6-5.6C916.4,416.5,918.3,412.8,918.6,408.6z"/>
		<g>
			<polygon class="st3" points="884.9,416.8 870.6,407.9 884.2,423.2 877.6,482.5 886.8,482.6 887.3,395.1 			"/>
			<polygon class="st3" points="889.1,412.6 903.3,396.6 888.6,405.7 887.7,392.2 887.3,395.1 886.8,482.6 894.1,482.7 			"/>
		</g>
	</g>
	<g>
		<path class="st3" d="M959.3,407.7c-4.5,0.5-8.2,4.2-8.5,9c0,0.2,0,0.5,0,0.7c-4.1,0.9-7.3,4.4-7.6,8.8c0,0.5,0,1,0,1.5
			c-1.4,1.6-2.4,3.6-2.5,5.9c-0.2,3.4,1.3,6.5,3.9,8.4c-0.5,1-0.8,2.1-0.9,3.3c-0.3,4.6,3.2,8.6,7.8,8.9c0,0,0,0,0,0
			c1.2,2.9,3.9,5.1,7.2,5.3c3.2,0.2,6.1-1.4,7.7-3.9c0.1,0,0.1,0,0.2,0C971.1,439.5,962.4,415.4,959.3,407.7z"/>
		<path class="st3" d="M980.7,436.1c0.3-3.8-1.8-7.3-4.9-9.1c0.1-0.5,0.2-1.1,0.2-1.6c0.3-4.3-2.2-8.1-6-9.6
			c-0.7-4.3-4.3-7.8-8.9-8.1c-0.6,0-1.2,0-1.8,0c3.1,7.7,11.7,31.8,7.2,47.9c0.1,0,0.3,0,0.4,0c5.6,0.4,10.5-3.9,10.8-9.5
			c0.1-1.2-0.1-2.4-0.4-3.5C979.3,441.1,980.6,438.7,980.7,436.1z"/>
		<g>
			<polygon class="st3" points="959.5,441.2 950.5,435.7 959.1,445.3 954.9,482.6 960.7,482.7 961.1,427.6 			"/>
			<polygon class="st3" points="962.2,438.6 971.1,428.5 961.9,434.3 961.3,425.7 961.1,427.6 960.7,482.7 965.3,482.7 			"/>
		</g>
	</g>
	<g>
		<path class="st3" d="M917.5,328.4c-9.3,1.1-16.8,8.7-17.5,18.4c0,0.5,0,0.9,0,1.4c-8.5,1.8-15.1,9.1-15.7,18.1
			c-0.1,1.1-0.1,2.1,0,3.2c-2.9,3.2-4.9,7.4-5.2,12.1c-0.5,7,2.8,13.5,8.1,17.4c-1,2-1.7,4.3-1.9,6.7c-0.6,9.5,6.5,17.7,16,18.3
			c0,0,0,0,0,0c2.4,6,8,10.4,14.9,10.9c6.5,0.4,12.5-2.8,15.8-8c0.1,0,0.2,0,0.3,0C941.6,393.8,923.8,344.2,917.5,328.4z"/>
		<path class="st3" d="M961.5,386.7c0.5-7.9-3.6-15.1-10.1-18.7c0.3-1.1,0.4-2.2,0.5-3.3c0.6-8.8-4.6-16.6-12.4-19.8
			c-1.5-8.9-8.9-16-18.3-16.6c-1.3-0.1-2.5,0-3.7,0.1c6.3,15.8,24.2,65.4,14.9,98.5c0.3,0,0.6,0.1,0.9,0.1
			c11.5,0.8,21.5-7.9,22.3-19.5c0.2-2.5-0.1-4.9-0.8-7.2C958.6,397,961.1,392.2,961.5,386.7z"/>
		<g>
			<polygon class="st3" points="917.9,397.4 899.3,385.8 917,405.7 908.4,482.5 920.4,482.6 921,369.3 			"/>
			<polygon class="st3" points="923.3,391.8 941.7,371.2 922.7,383 921.5,365.4 921,369.3 920.4,482.6 929.8,482.7 			"/>
		</g>
	</g>
	<g>
		<g>
			<path class="st3" d="M990,348.8c-8.1,1-14.7,7.6-15.3,16.1c0,0.4,0,0.8,0,1.2c-7.4,1.6-13.2,7.9-13.7,15.8c-0.1,0.9,0,1.9,0,2.8
				c-2.6,2.8-4.3,6.5-4.5,10.6c-0.4,6.2,2.4,11.8,7,15.2c-0.9,1.8-1.5,3.8-1.6,5.9c-0.6,8.3,5.7,15.5,14,16c0,0,0,0,0,0
				c2.1,5.2,7,9.1,13,9.5c5.7,0.4,10.9-2.5,13.8-7c0.1,0,0.2,0,0.3,0C1011.1,406,995.5,362.6,990,348.8z"/>
			<path class="st3" d="M1028.5,399.8c0.5-6.9-3.2-13.2-8.9-16.4c0.2-0.9,0.4-1.9,0.4-2.9c0.5-7.7-4-14.5-10.8-17.3
				c-1.3-7.8-7.8-14-16-14.5c-1.1-0.1-2.2,0-3.3,0.1c5.5,13.8,21.1,57.1,13,86.1c0.3,0,0.5,0.1,0.8,0.1c10.1,0.7,18.8-7,19.5-17
				c0.1-2.2-0.1-4.3-0.7-6.3C1026,408.8,1028.2,404.6,1028.5,399.8z"/>
		</g>
		<g>
			<polygon class="st3" points="987.7,408.1 971.5,398 986.9,415.3 979.4,482.5 989.8,482.6 990.4,383.5 			"/>
			<polygon class="st3" points="992.4,403.2 1008.5,385.2 991.9,395.5 990.8,380.2 990.4,383.5 989.8,482.6 998.1,482.7 			"/>
		</g>
	</g>
	<path class="st4" d="M823.5,371.3c-6.7,0.8-12.1,6.3-12.6,13.3c0,0.3,0,0.7,0,1c-6.1,1.3-10.9,6.5-11.3,13.1c-0.1,0.8,0,1.5,0,2.3
		c-2.1,2.3-3.5,5.4-3.7,8.7c-0.3,5.1,2,9.7,5.8,12.5c-0.8,1.5-1.2,3.1-1.3,4.8c-0.5,6.9,4.7,12.8,11.6,13.3c0,0,0,0,0,0
		c1.7,4.3,5.8,7.5,10.7,7.9c4.7,0.3,9-2.1,11.4-5.8c0.1,0,0.2,0,0.2,0C841,418.5,828,382.6,823.5,371.3z"/>
	<path class="st5" d="M855.3,413.4c0.4-5.7-2.6-10.9-7.3-13.5c0.2-0.8,0.3-1.6,0.4-2.4c0.4-6.3-3.3-12-8.9-14.3
		c-1.1-6.4-6.4-11.6-13.2-12c-0.9-0.1-1.8,0-2.7,0.1c4.5,11.4,17.4,47.2,10.8,71.2c0.2,0,0.4,0,0.7,0.1c8.3,0.6,15.5-5.7,16.1-14.1
		c0.1-1.8-0.1-3.6-0.6-5.2C853.2,420.8,855,417.3,855.3,413.4z"/>
	<g>
		<polygon class="st6" points="823.8,421.1 810.4,412.7 823.1,427.1 816.9,482.5 825.6,482.6 826.1,400.8 		"/>
		<polygon class="st6" points="827.7,417.1 841,402.2 827.3,410.7 826.4,398 826.1,400.8 825.6,482.6 832.4,482.7 		"/>
	</g>
	<path class="st7" d="M859.1,393c-5.5,0.7-9.8,5.1-10.2,10.8c0,0.3,0,0.5,0,0.8c-5,1.1-8.8,5.3-9.2,10.6c0,0.6,0,1.3,0,1.9
		c-1.7,1.9-2.9,4.3-3,7.1c-0.3,4.1,1.6,7.9,4.7,10.2c-0.6,1.2-1,2.5-1.1,3.9c-0.4,5.6,3.8,10.4,9.4,10.8c0,0,0,0,0,0
		c1.4,3.5,4.7,6.1,8.7,6.4c3.8,0.3,7.3-1.7,9.2-4.7c0.1,0,0.1,0,0.2,0C873.2,431.3,862.8,402.2,859.1,393z"/>
	<path class="st8" d="M884.9,427.1c0.3-4.6-2.1-8.8-5.9-11c0.2-0.6,0.3-1.3,0.3-2c0.3-5.2-2.7-9.7-7.2-11.6
		c-0.9-5.2-5.2-9.4-10.7-9.7c-0.7,0-1.5,0-2.2,0.1c3.7,9.2,14.2,38.3,8.7,57.7c0.2,0,0.4,0,0.5,0.1c6.8,0.5,12.6-4.7,13.1-11.4
		c0.1-1.5-0.1-2.9-0.5-4.2C883.2,433.1,884.7,430.3,884.9,427.1z"/>
	<g>
		<polygon class="st6" points="857.5,432.7 846.6,426 857,437.6 851.9,482.6 858.9,482.6 859.3,416.2 		"/>
		<polygon class="st6" points="860.7,429.5 871.4,417.4 860.3,424.3 859.6,414 859.3,416.2 858.9,482.6 864.5,482.7 		"/>
	</g>
	<path class="st7" d="M1023.7,407.3c-4.6,0.6-8.3,4.3-8.6,9.1c0,0.2,0,0.5,0,0.7c-4.2,0.9-7.4,4.5-7.7,8.9c0,0.5,0,1.1,0,1.6
		c-1.5,1.6-2.4,3.7-2.6,6c-0.2,3.5,1.4,6.6,4,8.5c-0.5,1-0.8,2.1-0.9,3.3c-0.3,4.7,3.2,8.7,7.9,9c0,0,0,0,0,0c1.2,3,4,5.1,7.3,5.4
		c3.2,0.2,6.2-1.4,7.8-4c0.1,0,0.1,0,0.2,0C1035.6,439.5,1026.8,415,1023.7,407.3z"/>
	<path class="st8" d="M1045.4,436c0.3-3.9-1.8-7.4-5-9.2c0.1-0.5,0.2-1.1,0.3-1.6c0.3-4.3-2.3-8.2-6.1-9.7c-0.7-4.4-4.4-7.9-9-8.2
		c-0.6,0-1.2,0-1.8,0.1c3.1,7.8,11.9,32.2,7.3,48.5c0.1,0,0.3,0,0.5,0c5.7,0.4,10.6-3.9,11-9.6c0.1-1.2-0.1-2.4-0.4-3.5
		C1043.9,441.1,1045.2,438.7,1045.4,436z"/>
	<g>
		<polygon class="st6" points="1022.3,440.7 1013.2,435 1021.9,444.8 1017.7,482.6 1023.6,482.7 1023.9,426.8 		"/>
		<polygon class="st6" points="1025,437.9 1034.1,427.8 1024.7,433.6 1024.1,425 1023.9,426.8 1023.6,482.7 1028.2,482.7 		"/>
	</g>
	<path class="st4" d="M886.6,363.6c-7.2,0.9-13,6.7-13.5,14.2c0,0.4,0,0.7,0,1.1c-6.5,1.4-11.6,7-12.1,14c-0.1,0.8,0,1.7,0,2.5
		c-2.3,2.5-3.8,5.7-4,9.3c-0.4,5.4,2.1,10.4,6.2,13.4c-0.8,1.6-1.3,3.3-1.4,5.2c-0.5,7.3,5.1,13.7,12.4,14.2c0,0,0,0,0,0
		c1.8,4.6,6.2,8,11.5,8.4c5.1,0.3,9.6-2.2,12.2-6.2c0.1,0,0.2,0,0.2,0C905.3,414,891.5,375.8,886.6,363.6z"/>
	<path class="st5" d="M920.6,408.6c0.4-6.1-2.8-11.6-7.8-14.4c0.2-0.8,0.3-1.7,0.4-2.6c0.5-6.8-3.6-12.8-9.5-15.3
		c-1.1-6.9-6.9-12.4-14.1-12.8c-1-0.1-1.9,0-2.9,0.1c4.9,12.2,18.6,50.4,11.5,76c0.2,0,0.5,0.1,0.7,0.1c8.9,0.6,16.6-6.1,17.2-15
		c0.1-1.9-0.1-3.8-0.6-5.6C918.4,416.5,920.3,412.8,920.6,408.6z"/>
	<g>
		<polygon class="st6" points="886.9,416.8 872.6,407.9 886.2,423.2 879.6,482.5 888.9,482.6 889.4,395.1 		"/>
		<polygon class="st6" points="891.1,412.6 905.3,396.6 890.7,405.7 889.7,392.2 889.4,395.1 888.9,482.6 896.1,482.7 		"/>
	</g>
	<path class="st9" d="M961.4,407.7c-4.5,0.5-8.2,4.2-8.5,9c0,0.2,0,0.5,0,0.7c-4.1,0.9-7.3,4.4-7.6,8.8c0,0.5,0,1,0,1.5
		c-1.4,1.6-2.4,3.6-2.5,5.9c-0.2,3.4,1.3,6.5,3.9,8.4c-0.5,1-0.8,2.1-0.9,3.3c-0.3,4.6,3.2,8.6,7.8,8.9c0,0,0,0,0,0
		c1.2,2.9,3.9,5.1,7.2,5.3c3.2,0.2,6.1-1.4,7.7-3.9c0.1,0,0.1,0,0.2,0C973.1,439.5,964.4,415.4,961.4,407.7z"/>
	<path class="st10" d="M982.8,436.1c0.3-3.8-1.8-7.3-4.9-9.1c0.1-0.5,0.2-1.1,0.2-1.6c0.3-4.3-2.2-8.1-6-9.6
		c-0.7-4.3-4.3-7.8-8.9-8.1c-0.6,0-1.2,0-1.8,0c3.1,7.7,11.7,31.8,7.2,47.9c0.1,0,0.3,0,0.4,0c5.6,0.4,10.5-3.9,10.8-9.5
		c0.1-1.2-0.1-2.4-0.4-3.5C981.3,441.1,982.6,438.7,982.8,436.1z"/>
	<g>
		<polygon class="st6" points="961.6,441.2 952.5,435.7 961.1,445.3 956.9,482.6 962.8,482.7 963.1,427.6 		"/>
		<polygon class="st6" points="964.2,438.6 973.1,428.5 963.9,434.3 963.3,425.7 963.1,427.6 962.8,482.7 967.3,482.7 		"/>
	</g>
	<path class="st7" d="M919.5,328.4c-9.3,1.1-16.8,8.7-17.5,18.4c0,0.5,0,0.9,0,1.4c-8.5,1.8-15.1,9.1-15.7,18.1
		c-0.1,1.1-0.1,2.1,0,3.2c-2.9,3.2-4.9,7.4-5.2,12.1c-0.5,7,2.8,13.5,8.1,17.4c-1,2-1.7,4.3-1.9,6.7c-0.6,9.5,6.5,17.7,16,18.3
		c0,0,0,0,0,0c2.4,6,8,10.4,14.9,10.9c6.5,0.4,12.5-2.8,15.8-8c0.1,0,0.2,0,0.3,0C943.7,393.8,925.8,344.2,919.5,328.4z"/>
	<path class="st8" d="M963.5,386.7c0.5-7.9-3.6-15.1-10.1-18.7c0.3-1.1,0.4-2.2,0.5-3.3c0.6-8.8-4.6-16.6-12.4-19.8
		c-1.5-8.9-8.9-16-18.3-16.6c-1.3-0.1-2.5,0-3.7,0.1c6.3,15.8,24.2,65.4,14.9,98.5c0.3,0,0.6,0.1,0.9,0.1
		c11.5,0.8,21.5-7.9,22.3-19.5c0.2-2.5-0.1-4.9-0.8-7.2C960.6,397,963.2,392.2,963.5,386.7z"/>
	<g>
		<polygon class="st6" points="919.9,397.4 901.3,385.8 919,405.7 910.4,482.5 922.4,482.6 923,369.3 		"/>
		<polygon class="st6" points="925.4,391.8 943.7,371.2 924.7,383 923.5,365.4 923,369.3 922.4,482.6 931.8,482.7 		"/>
	</g>
	<path class="st4" d="M992,348.8c-8.1,1-14.7,7.6-15.3,16.1c0,0.4,0,0.8,0,1.2c-7.4,1.6-13.2,7.9-13.7,15.8c-0.1,0.9,0,1.9,0,2.8
		c-2.6,2.8-4.3,6.5-4.5,10.6c-0.4,6.2,2.4,11.8,7,15.2c-0.9,1.8-1.5,3.8-1.6,5.9c-0.6,8.3,5.7,15.5,14,16c0,0,0,0,0,0
		c2.1,5.2,7,9.1,13,9.5c5.7,0.4,10.9-2.5,13.8-7c0.1,0,0.2,0,0.3,0C1013.2,406,997.5,362.6,992,348.8z"/>
	<path class="st5" d="M1030.5,399.8c0.5-6.9-3.2-13.2-8.9-16.4c0.2-0.9,0.4-1.9,0.4-2.9c0.5-7.7-4-14.5-10.8-17.3
		c-1.3-7.8-7.8-14-16-14.5c-1.1-0.1-2.2,0-3.3,0.1c5.5,13.8,21.1,57.1,13,86.1c0.3,0,0.5,0.1,0.8,0.1c10.1,0.7,18.8-7,19.5-17
		c0.1-2.2-0.1-4.3-0.7-6.3C1028,408.8,1030.2,404.6,1030.5,399.8z"/>
	<g>
		<polygon class="st6" points="989.7,408.1 973.5,398 988.9,415.3 981.4,482.5 991.9,482.6 992.5,383.5 		"/>
		<polygon class="st6" points="994.5,403.2 1010.5,385.2 993.9,395.5 992.8,380.2 992.5,383.5 991.9,482.6 1000.1,482.7 		"/>
	</g>
	<path class="st11" d="M931.3,337.4c-0.5-1-1-2-1.5-3h0.1l1.5,3H931.3z"/>
	<g>
		<path class="st3" d="M1043.5,328.4c-9.3,1.1-16.8,8.7-17.5,18.4c0,0.5,0,0.9,0,1.4c-8.5,1.8-15.1,9.1-15.7,18.1
			c-0.1,1.1-0.1,2.1,0,3.2c-2.9,3.2-4.9,7.4-5.2,12.1c-0.5,7,2.8,13.5,8.1,17.4c-1,2-1.7,4.3-1.9,6.7c-0.6,9.5,6.5,17.7,16,18.3
			c0,0,0,0,0,0c2.4,6,8,10.4,14.9,10.9c6.5,0.4,12.5-2.8,15.8-8c0.1,0,0.2,0,0.3,0C1067.6,393.8,1049.7,344.2,1043.5,328.4z"/>
		<path class="st3" d="M1087.5,386.7c0.5-7.9-3.6-15.1-10.1-18.7c0.3-1.1,0.4-2.2,0.5-3.3c0.6-8.8-4.6-16.6-12.4-19.8
			c-1.5-8.9-8.9-16-18.3-16.6c-1.3-0.1-2.5,0-3.7,0.1c6.3,15.8,24.2,65.4,14.9,98.5c0.3,0,0.6,0.1,0.9,0.1
			c11.5,0.8,21.5-7.9,22.3-19.5c0.2-2.5-0.1-4.9-0.8-7.2C1084.6,397,1087.1,392.2,1087.5,386.7z"/>
		<g>
			<polygon class="st3" points="1043.9,397.4 1025.3,385.8 1042.9,405.7 1034.3,482.5 1046.3,482.6 1047,369.3 			"/>
			<polygon class="st3" points="1049.3,391.8 1067.6,371.2 1048.7,383 1047.4,365.4 1047,369.3 1046.3,482.6 1055.8,482.7 			"/>
		</g>
	</g>
	<path class="st7" d="M1045.5,328.4c-9.3,1.1-16.8,8.7-17.5,18.4c0,0.5,0,0.9,0,1.4c-8.5,1.8-15.1,9.1-15.7,18.1
		c-0.1,1.1-0.1,2.1,0,3.2c-2.9,3.2-4.9,7.4-5.2,12.1c-0.5,7,2.8,13.5,8.1,17.4c-1,2-1.7,4.3-1.9,6.7c-0.6,9.5,6.5,17.7,16,18.3
		c0,0,0,0,0,0c2.4,6,8,10.4,14.9,10.9c6.5,0.4,12.5-2.8,15.8-8c0.1,0,0.2,0,0.3,0C1069.6,393.8,1051.8,344.2,1045.5,328.4z"/>
	<path class="st8" d="M1089.5,386.7c0.5-7.9-3.6-15.1-10.1-18.7c0.3-1.1,0.4-2.2,0.5-3.3c0.6-8.8-4.6-16.6-12.4-19.8
		c-1.5-8.9-8.9-16-18.3-16.6c-1.3-0.1-2.5,0-3.7,0.1c6.3,15.8,24.2,65.4,14.9,98.5c0.3,0,0.6,0.1,0.9,0.1
		c11.5,0.8,21.5-7.9,22.3-19.5c0.2-2.5-0.1-4.9-0.8-7.2C1086.6,397,1089.1,392.2,1089.5,386.7z"/>
	<g>
		<polygon class="st6" points="1045.9,397.4 1027.3,385.8 1045,405.7 1036.4,482.5 1048.4,482.6 1049,369.3 		"/>
		<polygon class="st6" points="1051.3,391.8 1069.7,371.2 1050.7,383 1049.4,365.4 1049,369.3 1048.4,482.6 1057.8,482.7 		"/>
	</g>
</g>
<rect y="733.6" class="st0" width="1400.9" height="183.4"/>
<rect x="0.9" y="550.2" class="st12" width="1400.9" height="183.4"/>
<rect class="st13" width="1400.9" height="183.4"/>
<path class="st14" d="M137.7,278.1l-12.4,45.1c-0.2,0.9-1,1.5-1.9,1.5h-8.9c-0.9,0.1-1.8-0.5-1.9-1.5l-5.5-19.9l-5.5,19.9
	c-0.2,0.9-1,1.5-1.9,1.5h-8.8c-0.9,0.1-1.8-0.5-1.9-1.5l-12.4-45.1c-0.3-1.3,0.2-1.9,1.5-1.9H86c0.9-0.1,1.8,0.6,1.9,1.5l8,32.4
	l6.4-24l-2.2-8c-0.3-1.3,0.2-1.9,1.5-1.9h6.7c0.9-0.1,1.8,0.6,1.9,1.5l8,32.4l8-32.4c0.1-0.9,0.9-1.6,1.9-1.5h8.1
	C137.5,276.2,138,276.9,137.7,278.1z"/>
<path class="st14" d="M178.4,277.9v45c0.1,0.9-0.5,1.6-1.4,1.7c-0.1,0-0.2,0-0.3,0h-7.6c-0.9,0.1-1.6-0.5-1.7-1.4c0-0.1,0-0.2,0-0.3
	v-17.8h-13.9V323c0.1,0.9-0.5,1.6-1.4,1.7c-0.1,0-0.2,0-0.3,0h-7.6c-0.9,0.1-1.6-0.5-1.7-1.4c0-0.1,0-0.2,0-0.3v-45
	c-0.1-0.9,0.5-1.6,1.4-1.7c0.1,0,0.2,0,0.3,0h7.6c0.9-0.1,1.6,0.5,1.7,1.4c0,0.1,0,0.2,0,0.3v16.4h13.9v-16.5
	c-0.1-0.9,0.5-1.6,1.4-1.7c0.1,0,0.2,0,0.3,0h7.6c0.9-0.1,1.6,0.5,1.7,1.4C178.5,277.7,178.5,277.8,178.4,277.9z"/>
<path class="st14" d="M215.9,315.8v7.3c0.1,0.9-0.5,1.6-1.4,1.7c-0.1,0-0.2,0-0.3,0h-25.6c-0.9,0.1-1.6-0.5-1.7-1.4
	c0-0.1,0-0.2,0-0.3v-45c-0.1-0.9,0.5-1.6,1.4-1.7c0.1,0,0.2,0,0.3,0h25.3c0.9-0.1,1.6,0.5,1.7,1.4c0,0.1,0,0.2,0,0.3v7.2
	c0.1,0.9-0.5,1.6-1.4,1.7c-0.1,0-0.2,0-0.3,0h-16v8.1h14.2c0.9-0.1,1.6,0.5,1.7,1.4c0,0.1,0,0.2,0,0.3v6.9c0.1,0.9-0.5,1.6-1.4,1.7
	c-0.1,0-0.2,0-0.3,0h-14.2v8.6h16.3c0.9-0.1,1.6,0.5,1.7,1.4C215.9,315.5,215.9,315.6,215.9,315.8z"/>
<path class="st14" d="M260.3,324.7h-8.9c-0.8,0.1-1.7-0.3-2.1-1l-11.8-14.9h-4.3V323c0.1,0.9-0.5,1.6-1.4,1.7c-0.1,0-0.2,0-0.3,0
	h-7.6c-0.9,0.1-1.6-0.5-1.7-1.4c0-0.1,0-0.2,0-0.3v-45c-0.1-0.9,0.5-1.6,1.4-1.7c0.1,0,0.2,0,0.3,0h17c9.2,0,16.6,7.4,16.6,16.5
	c0,0,0,0.1,0,0.1c-0.1,5.9-3.4,11.2-8.6,13.9l12.5,15.8C262.3,323.6,261.8,324.7,260.3,324.7z M233.2,299h7.6c3,0,5.5-2.7,5.5-6.2
	s-2.5-6.2-5.5-6.2h-7.6V299z"/>
<path class="st14" d="M294.9,315.8v7.3c0.1,0.9-0.5,1.6-1.4,1.7c-0.1,0-0.2,0-0.3,0h-25.6c-0.9,0.1-1.6-0.5-1.7-1.4
	c0-0.1,0-0.2,0-0.3v-45c-0.1-0.9,0.5-1.6,1.4-1.7c0.1,0,0.2,0,0.3,0h25.3c0.9-0.1,1.6,0.5,1.7,1.4c0,0.1,0,0.2,0,0.3v7.2
	c0.1,0.9-0.5,1.6-1.4,1.7c-0.1,0-0.2,0-0.3,0h-15.9v8.1h14.2c0.9-0.1,1.6,0.5,1.7,1.4c0,0.1,0,0.2,0,0.3v6.9
	c0.1,0.9-0.5,1.6-1.4,1.7c-0.1,0-0.2,0-0.3,0h-14.2v8.6h16.3c0.9-0.1,1.6,0.5,1.7,1.4C295,315.5,295,315.6,294.9,315.8z"/>
<path class="st14" d="M345.9,276.2h7.6c0.9-0.1,1.6,0.5,1.7,1.4c0,0.1,0,0.2,0,0.3v45c0.1,0.9-0.5,1.6-1.4,1.7c-0.1,0-0.2,0-0.3,0
	h-5.2c-0.9,0-1.7-0.4-2.1-1.1l-16.6-25.9V323c0.1,0.9-0.5,1.6-1.4,1.7c-0.1,0-0.2,0-0.3,0h-7.6c-0.9,0.1-1.6-0.5-1.7-1.4
	c0-0.1,0-0.2,0-0.3v-45c-0.1-0.9,0.5-1.6,1.4-1.7c0.1,0,0.2,0,0.3,0h5.2c0.9,0,1.7,0.4,2.1,1.1l16.6,25.9V278
	c-0.1-0.9,0.4-1.7,1.3-1.8C345.6,276.2,345.8,276.2,345.9,276.2z"/>
<path class="st14" d="M403.1,324.7h-8.5c-0.9,0.1-1.8-0.5-1.9-1.5l-1.8-6.2h-17l-1.8,6.2c-0.2,0.9-1,1.5-1.9,1.5h-8.5
	c-1.3,0-1.9-0.7-1.5-1.9l14.7-45.1c0.2-0.9,1.1-1.5,2-1.5h11.1c0.9-0.1,1.8,0.6,2,1.5l14.7,45.1C405,324,404.4,324.7,403.1,324.7z
	 M387.7,306.7l-5.4-18.4l-5.4,18.4H387.7z"/>
<path class="st14" d="M435.7,277.9v7.2c0.1,0.9-0.5,1.6-1.4,1.7c-0.1,0-0.2,0-0.3,0h-9.4V323c0.1,0.9-0.5,1.6-1.4,1.7
	c-0.1,0-0.2,0-0.3,0h-7.6c-0.9,0.1-1.6-0.5-1.7-1.4c0-0.1,0-0.2,0-0.3v-36.1h-9.4c-0.9,0.1-1.6-0.5-1.7-1.4c0-0.1,0-0.2,0-0.3v-7.2
	c-0.1-0.9,0.5-1.6,1.4-1.7c0.1,0,0.2,0,0.3,0H434c0.9-0.1,1.6,0.6,1.7,1.4C435.7,277.7,435.7,277.8,435.7,277.9z"/>
<path class="st14" d="M439.9,309.7v-31.8c-0.1-0.9,0.5-1.6,1.4-1.7c0.1,0,0.2,0,0.3,0h7.6c0.9-0.1,1.6,0.5,1.7,1.4
	c0,0.1,0,0.2,0,0.3v30.8c0,3.7,1.7,6.1,6.9,6.1s6.9-2.4,6.9-6.1v-30.8c-0.1-0.9,0.5-1.6,1.4-1.7c0.1,0,0.2,0,0.3,0h7.6
	c0.9-0.1,1.6,0.5,1.7,1.4c0,0.1,0,0.2,0,0.3v31.8c0,10.4-8,15.9-18,15.9S439.9,320.1,439.9,309.7z"/>
<path class="st14" d="M521.7,324.7h-8.9c-0.8,0.1-1.7-0.3-2.1-1l-11.8-14.9h-4.3V323c0.1,0.9-0.5,1.6-1.4,1.7c-0.1,0-0.2,0-0.3,0
	h-7.6c-0.9,0.1-1.6-0.5-1.7-1.4c0-0.1,0-0.2,0-0.3v-45c-0.1-0.9,0.5-1.6,1.4-1.7c0.1,0,0.2,0,0.3,0h17c9.2,0,16.6,7.4,16.6,16.5
	c0,0,0,0.1,0,0.1c-0.1,5.9-3.4,11.2-8.6,13.9l12.5,15.8C523.7,323.6,523.2,324.7,521.7,324.7z M494.6,299h7.6c3,0,5.5-2.7,5.5-6.2
	s-2.5-6.2-5.5-6.2h-7.6V299z"/>
<path class="st14" d="M556.3,315.8v7.3c0.1,0.9-0.5,1.6-1.4,1.7c-0.1,0-0.2,0-0.3,0H529c-0.9,0.1-1.6-0.5-1.7-1.4c0-0.1,0-0.2,0-0.3
	v-45c-0.1-0.9,0.5-1.6,1.4-1.7c0.1,0,0.2,0,0.3,0h25.3c0.9-0.1,1.6,0.5,1.7,1.4c0,0.1,0,0.2,0,0.3v7.2c0.1,0.9-0.5,1.6-1.4,1.7
	c-0.1,0-0.2,0-0.3,0h-16v8.1h14.2c0.9-0.1,1.6,0.5,1.7,1.4c0,0.1,0,0.2,0,0.3v6.9c0.1,0.9-0.5,1.6-1.4,1.7c-0.1,0-0.2,0-0.3,0h-14.2
	v8.6h16.3c0.9-0.1,1.6,0.5,1.7,1.4C556.4,315.5,556.4,315.6,556.3,315.8z"/>
<path class="st14" d="M624.3,300.4c0,13.7-10.2,24.3-23.6,24.3h-19.1c-0.9,0.1-1.6-0.5-1.7-1.4c0-0.1,0-0.2,0-0.3v-45
	c-0.1-0.9,0.5-1.6,1.4-1.7c0.1,0,0.2,0,0.3,0h19.1C614.1,276.2,624.3,286.7,624.3,300.4z M613.6,300.4c0-8.3-5.3-13.6-12.9-13.6H591
	V314h9.7C608.3,314,613.6,308.8,613.6,300.4L613.6,300.4z"/>
<path class="st14" d="M659.7,315.8v7.3c0.1,0.9-0.5,1.6-1.4,1.7c-0.1,0-0.2,0-0.3,0h-25.6c-0.9,0.1-1.6-0.5-1.7-1.4
	c0-0.1,0-0.2,0-0.3v-45c-0.1-0.9,0.5-1.6,1.4-1.7c0.1,0,0.2,0,0.3,0h25.3c0.9-0.1,1.6,0.5,1.7,1.4c0,0.1,0,0.2,0,0.3v7.2
	c0.1,0.9-0.5,1.6-1.4,1.7c-0.1,0-0.2,0-0.3,0h-15.9v8.1h14.2c0.9-0.1,1.6,0.5,1.7,1.4c0,0.1,0,0.2,0,0.3v6.9
	c0.1,0.9-0.5,1.6-1.4,1.7c-0.1,0-0.2,0-0.3,0h-14.2v8.6h16.3c0.9-0.1,1.6,0.5,1.7,1.4C659.7,315.5,659.7,315.6,659.7,315.8z"/>
<path class="st14" d="M663.5,300.4c0-14.3,10.6-25.2,25.2-25.2c11.1,0,20.5,6.9,23.4,17c0.3,0.7-0.1,1.6-0.8,1.9
	c-0.2,0.1-0.5,0.1-0.7,0.1h-8.2c-0.9,0-1.7-0.5-1.9-1.4c-1.9-4.2-6.4-6.8-11.7-6.8c-8.6,0-14.1,5.8-14.1,14.4s5.5,14.4,14.1,14.4
	c5.3,0,9.8-2.6,11.7-6.8c0.3-0.8,1.1-1.4,1.9-1.4h8.2c1.2,0,1.8,0.7,1.5,1.8c-2.7,10.1-12.2,17.2-23.4,17.2
	C674.1,325.7,663.5,314.7,663.5,300.4z"/>
<path class="st14" d="M719.1,276.2h7.6c0.9-0.1,1.6,0.5,1.7,1.4c0,0.1,0,0.2,0,0.3v45c0.1,0.9-0.5,1.6-1.4,1.7c-0.1,0-0.2,0-0.3,0
	h-7.6c-0.9,0.1-1.6-0.5-1.7-1.4c0-0.1,0-0.2,0-0.3v-45c-0.1-0.9,0.5-1.6,1.4-1.7C718.9,276.2,719,276.2,719.1,276.2z"/>
<path class="st14" d="M781.1,300.4c0,13.7-10.2,24.3-23.6,24.3h-19.1c-0.9,0.1-1.6-0.5-1.7-1.4c0-0.1,0-0.2,0-0.3v-45
	c-0.1-0.9,0.5-1.6,1.4-1.7c0.1,0,0.2,0,0.3,0h19.1C770.9,276.2,781.1,286.7,781.1,300.4z M770.5,300.4c0-8.3-5.3-13.6-12.9-13.6
	h-9.7V314h9.7C765.2,314,770.5,308.8,770.5,300.4z"/>
<path class="st14" d="M816.5,315.8v7.3c0.1,0.9-0.5,1.6-1.4,1.7c-0.1,0-0.2,0-0.3,0h-25.6c-0.9,0.1-1.6-0.5-1.7-1.4
	c0-0.1,0-0.2,0-0.3v-45c-0.1-0.9,0.5-1.6,1.4-1.7c0.1,0,0.2,0,0.3,0h25.3c0.9-0.1,1.6,0.5,1.7,1.4c0,0.1,0,0.2,0,0.3v7.2
	c0.1,0.9-0.5,1.6-1.4,1.7c-0.1,0-0.2,0-0.3,0h-15.9v8.1h14.2c0.9-0.1,1.6,0.5,1.7,1.4c0,0.1,0,0.2,0,0.3v6.9
	c0.1,0.9-0.5,1.6-1.4,1.7c-0.1,0-0.2,0-0.3,0h-14.2v8.6h16.3c0.9-0.1,1.6,0.5,1.7,1.4C816.5,315.5,816.5,315.6,816.5,315.8z"/>
<path class="st14" d="M820,311.2c-0.1-0.9,0.4-1.7,1.3-1.8c0.1,0,0.3,0,0.4,0h7.6c1,0,1.6,0.6,1.8,1.7c0.5,2.5,2.6,3.7,6.7,3.7
	c4.5,0,6-1.7,6-3.7c0-2.8-3.5-4.1-7.7-5.5c-6.9-2.4-15.5-5.2-15.5-15.8c0-9.7,7.9-14.5,16.2-14.5s15.9,4.4,16.7,14.4
	c0.1,0.9-0.4,1.7-1.3,1.8c-0.1,0-0.3,0-0.4,0h-7.6c-1,0-1.6-0.5-1.8-1.7c-0.5-2.6-2.3-3.7-5.5-3.7c-3.5,0-5.1,1.7-5.1,3.7
	c0,2.9,2.8,4.3,6.9,5.8c6.9,2.4,16.4,4.9,16.4,15.6c0,9.7-7.8,14.5-17,14.5C828.8,325.7,820.9,321.3,820,311.2z"/>
<path class="st14" d="M907.7,277.9v7.2c0.1,0.9-0.5,1.6-1.4,1.7c-0.1,0-0.2,0-0.3,0h-9.4V323c0.1,0.9-0.5,1.6-1.4,1.7
	c-0.1,0-0.2,0-0.3,0h-7.6c-0.9,0.1-1.6-0.5-1.7-1.4c0-0.1,0-0.2,0-0.3v-36.1h-9.4c-0.9,0.1-1.6-0.5-1.7-1.4c0-0.1,0-0.2,0-0.3v-7.2
	c-0.1-0.9,0.5-1.6,1.4-1.7c0.1,0,0.2,0,0.3,0h29.8c0.9-0.1,1.6,0.5,1.7,1.4C907.7,277.7,907.7,277.8,907.7,277.9z"/>
<path class="st14" d="M907.7,300.4c0-13.9,11.3-25.2,25.2-25.2c13.9,0,25.2,11.3,25.2,25.2s-11.3,25.2-25.2,25.2l0,0
	c-13.8,0.1-25.1-11-25.2-24.8C907.7,300.7,907.7,300.6,907.7,300.4z M947,300.4c0-8.7-6.2-14.4-14.1-14.4s-14.1,5.8-14.1,14.4
	s6.2,14.4,14.1,14.4S947,309.1,947,300.4z"/>
<path class="st14" d="M979,311.2c-0.1-0.9,0.4-1.7,1.3-1.8c0.1,0,0.3,0,0.4,0h7.6c1,0,1.6,0.6,1.8,1.7c0.5,2.5,2.6,3.7,6.7,3.7
	c4.5,0,6-1.7,6-3.7c0-2.8-3.5-4.1-7.7-5.5c-6.9-2.4-15.5-5.2-15.5-15.8c0-9.7,7.9-14.5,16.2-14.5s15.9,4.4,16.7,14.4
	c0.1,0.9-0.4,1.7-1.3,1.8c-0.1,0-0.3,0-0.4,0h-7.6c-1,0-1.6-0.5-1.8-1.7c-0.5-2.6-2.3-3.7-5.5-3.7c-3.5,0-5.1,1.7-5.1,3.7
	c0,2.9,2.8,4.3,6.9,5.8c6.9,2.4,16.4,4.9,16.4,15.6c0,9.7-7.8,14.5-17,14.5C987.8,325.7,979.9,321.3,979,311.2z"/>
<path class="st14" d="M1055.6,277.9v45c0.1,0.9-0.5,1.6-1.4,1.7c-0.1,0-0.2,0-0.3,0h-7.6c-0.9,0.1-1.6-0.5-1.7-1.4
	c0-0.1,0-0.2,0-0.3v-17.8h-13.9V323c0.1,0.9-0.5,1.6-1.4,1.7c-0.1,0-0.2,0-0.3,0h-7.6c-0.9,0.1-1.6-0.5-1.7-1.4c0-0.1,0-0.2,0-0.3
	v-45c-0.1-0.9,0.5-1.6,1.4-1.7c0.1,0,0.2,0,0.3,0h7.6c0.9-0.1,1.6,0.5,1.7,1.4c0,0.1,0,0.2,0,0.3v16.4h13.9v-16.5
	c-0.1-0.9,0.5-1.6,1.4-1.7c0.1,0,0.2,0,0.3,0h7.6c0.9-0.1,1.6,0.5,1.7,1.4C1055.6,277.7,1055.6,277.8,1055.6,277.9z"/>
<path class="st14" d="M1061.8,300.4c0-13.9,11.3-25.2,25.2-25.2c13.9,0,25.2,11.3,25.2,25.2s-11.3,25.2-25.2,25.2l0,0
	c-13.8,0.1-25.1-11-25.2-24.8C1061.8,300.7,1061.8,300.6,1061.8,300.4z M1101.2,300.4c0-8.7-6.2-14.4-14.1-14.4s-14.1,5.8-14.1,14.4
	s6.2,14.4,14.1,14.4S1101.2,309.1,1101.2,300.4z"/>
<path class="st14" d="M1174.1,278.1l-12.4,45.1c-0.2,0.9-1,1.5-1.9,1.5h-8.9c-0.9,0.1-1.8-0.5-1.9-1.5l-5.5-19.9l-5.5,19.9
	c-0.2,0.9-1,1.5-1.9,1.5h-8.9c-0.9,0.1-1.8-0.5-1.9-1.5l-12.4-45.1c-0.3-1.3,0.2-1.9,1.5-1.9h8.1c0.9-0.1,1.8,0.6,1.9,1.5l8,32.4
	l6.4-24l-2.2-8c-0.3-1.3,0.2-1.9,1.5-1.9h6.7c0.9-0.1,1.8,0.6,1.9,1.5l8,32.4l8-32.4c0.1-0.9,0.9-1.6,1.9-1.5h8.1
	C1173.9,276.2,1174.5,276.9,1174.1,278.1z"/>
<path class="st14" d="M1194.1,300.4c0-13.9,11.3-25.2,25.2-25.2c13.9,0,25.2,11.3,25.2,25.2s-11.3,25.2-25.2,25.2l0,0
	c-13.8,0.1-25.1-11-25.2-24.8C1194.1,300.7,1194.1,300.6,1194.1,300.4z M1233.5,300.4c0-8.7-6.2-14.4-14.1-14.4s-14.1,5.8-14.1,14.4
	s6.2,14.4,14.1,14.4S1233.5,309.1,1233.5,300.4L1233.5,300.4z"/>
<path class="st14" d="M1261.9,286.9v10h15.6c0.9-0.1,1.6,0.5,1.7,1.4c0,0.1,0,0.2,0,0.3v7.2c0.1,0.9-0.5,1.6-1.4,1.7
	c-0.1,0-0.2,0-0.3,0h-15.6V323c0.1,0.9-0.5,1.6-1.4,1.7c-0.1,0-0.2,0-0.3,0h-7.6c-0.9,0.1-1.6-0.5-1.7-1.4c0-0.1,0-0.2,0-0.3v-45
	c-0.1-0.9,0.5-1.6,1.4-1.7c0.1,0,0.2,0,0.3,0h25.3c0.9-0.1,1.6,0.5,1.7,1.4c0,0.1,0,0.2,0,0.3v7.2c0.1,0.9-0.5,1.6-1.4,1.7
	c-0.1,0-0.2,0-0.3,0L1261.9,286.9z"/>
<path class="st14" d="M1296.9,286.9v10h15.6c0.9-0.1,1.6,0.5,1.7,1.4c0,0.1,0,0.2,0,0.3v7.2c0.1,0.9-0.5,1.6-1.4,1.7
	c-0.1,0-0.2,0-0.3,0h-15.6V323c0.1,0.9-0.5,1.6-1.4,1.7c-0.1,0-0.2,0-0.3,0h-7.6c-0.9,0.1-1.6-0.5-1.7-1.4c0-0.1,0-0.2,0-0.3v-45
	c-0.1-0.9,0.5-1.6,1.4-1.7c0.1,0,0.2,0,0.3,0h25.3c0.9-0.1,1.6,0.5,1.7,1.4c0,0.1,0,0.2,0,0.3v7.2c0.1,0.9-0.5,1.6-1.4,1.7
	c-0.1,0-0.2,0-0.3,0L1296.9,286.9z"/>
<path class="st15" d="M590.8,514.1v335.5c-0.1,31.2-25.4,56.5-56.6,56.6H262.4c-10.8,0-21.3-3.1-30.4-9V466.4c9.1-5.9,19.6-9,30.4-9
	h271.8C565.4,457.5,590.7,482.8,590.8,514.1z"/>
<path class="st16" d="M384.2,686.2V637c0-7.8-6.4-14.1-14.2-14.2l0,0c-7.8,0-14.2,6.3-14.2,14.2v13.1c0,7.8-6.3,14.1-14.1,14.2l0,0
	c-7.8,0-14.1-6.3-14.1-14.2v-3.3c0-7.8-6.3-14.1-14.1-14.2h-0.1c-7.8,0-14.1,6.3-14.1,14.2v0.6c0,7.8-6.3,14.1-14.1,14.2l0,0
	c-7.8,0-14.1-6.3-14.1-14.2V637c0-7.8-6.3-14.1-14.1-14.2H232v76.7h142.7C380.4,697.5,384.1,692.2,384.2,686.2z"/>
<path class="st15" d="M160,674.2h111.1c31.3,0,56.6,25.3,56.6,56.6v129.6c0,31.3-25.3,56.6-56.6,56.6H160
	c-31.3,0-56.6-25.3-56.6-56.6V730.8C103.4,699.6,128.8,674.2,160,674.2z"/>
<path class="st16" d="M285.5,730.9c-0.1-31.2-25.4-56.5-56.6-56.6h42.2c31.2,0.1,56.5,25.4,56.6,56.6v101h-42.2V730.9z"/>
<path class="st15" d="M0.9,889.5c0-15.6,10.6-28.3,23.4-28.3h48.1c12.9,0,23.4,12.7,23.4,28.3v27.5h-95V889.5z"/>
<path class="st16" d="M0.9,890.3c0-4.2,2.5-7.6,5.7-7.6l0,0c3.1,0,5.7,3.4,5.7,7.6v7c0,4.2,2.5,7.6,5.6,7.6l0,0
	c3.1,0,5.6-3.4,5.6-7.6v-1.8c0-4.2,2.5-7.6,5.6-7.6l0,0c3.1,0,5.6,3.4,5.6,7.6v0.3c0,4.2,2.5,7.6,5.7,7.6l0,0c3.1,0,5.7-3.4,5.7-7.6
	v-5.6c0-4.2,2.5-7.6,5.7-7.6h9.9v33.9H0.9V890.3z"/>
<g class="st17">
	<path class="st16" d="M163.6,768.8c0,3.1,2.2,5.7,5,5.7s5-2.5,5-5.7v-77.5c0-3.1-2.2-5.7-5-5.7s-5,2.5-5,5.7V768.8z"/>
</g>
<circle class="st18" cx="168.6" cy="792.3" r="6.5"/>
<g class="st17">
	<path class="st16" d="M252.5,763.7c0-3.1-2.2-5.7-5-5.7s-5,2.5-5,5.7v77.5c0,3.1,2.2,5.7,5,5.7s5-2.5,5-5.7V763.7z"/>
</g>
<circle class="st18" cx="247.6" cy="740.2" r="6.5"/>
<path class="st15" d="M212.5,563.4c0-7.6,6.1-13.7,13.7-13.7s13.7,6.1,13.7,13.7c0,0.1,0,0.1,0,0.2h-27.4
	C212.5,563.5,212.5,563.5,212.5,563.4z"/>
<path class="st19" d="M217.8,563.4c0,0.1,0,0.1,0,0.2h-5.3v-0.2c0-7.6,6.1-13.7,13.7-13.7c0.9,0,1.8,0.1,2.7,0.3
	C222.4,551.3,217.8,556.9,217.8,563.4z"/>
<circle class="st16" cx="230.6" cy="554.8" r="2.9"/>
<circle class="st16" cx="235.9" cy="559.7" r="1.8"/>
<path class="st15" d="M193.8,563.3c0-4.4,3.5-7.9,7.9-7.9c4.4,0,7.9,3.5,7.9,7.9l0,0c0,0,0,0.1,0,0.1h-15.8
	C193.8,563.5,193.8,563.4,193.8,563.3z"/>
<path class="st19" d="M196.9,563.3c0,0,0,0.1,0,0.1h-3.1v-0.1c0-4.4,3.5-7.9,7.9-7.9h0c0.5,0,1,0,1.5,0.2
	C199.6,556.3,196.9,559.6,196.9,563.3z"/>
<circle class="st16" cx="204.3" cy="558.4" r="1.7"/>
<path class="st16" d="M206.3,561.2c0,0.6,0.4,1,1,1s1-0.4,1-1s-0.4-1-1-1S206.3,560.6,206.3,561.2z"/>
<path class="st15" d="M165.7,591.7v82.6h102.6v-82.6c0-15.6-12.7-28.3-28.4-28.3h-46C178.4,563.4,165.8,576.1,165.7,591.7z"/>
<path class="st16" d="M173.4,598v76.3H232v-46c0-5.9-4.4-10.8-9.8-10.8s-9.8,4.9-9.8,10.8v21c0,6-4.4,10.8-9.8,10.8
	s-9.8-4.8-9.8-10.8V598c0-5.9-4.4-10.8-9.8-10.8S173.4,592.1,173.4,598z"/>
<path class="st16" d="M216.8,563.4c15.6,0,28.3,12.7,28.3,28.3v82.6h23.2v-82.6c0-15.6-12.7-28.3-28.4-28.3H216.8z"/>
<path class="st15" d="M271.3,674.1c0.3-11.7-9-21.3-20.7-21.6c-11.7-0.3-21.3,9-21.6,20.7c0,0.3,0,0.6,0,0.9c0,0.1,0,0.2,0,0.3h42.2
	C271.3,674.3,271.3,674.2,271.3,674.1z"/>
<g>
	<path class="st19" d="M237.3,674.1c0,0.1,0,0.2,0,0.3H229v-0.3c0-11.7,9.5-21.1,21.1-21.1c1.4,0,2.8,0.1,4.1,0.4
		C244.4,655.4,237.3,664,237.3,674.1z"/>
</g>
<circle class="st16" cx="258.7" cy="661.4" r="3.6"/>
<path class="st16" d="M263.1,667.4c0,1.2,1,2.2,2.2,2.2c1.2,0,2.2-1,2.2-2.2c0-1.2-1-2.2-2.2-2.2
	C264.1,665.2,263.1,666.2,263.1,667.4C263.1,667.4,263.1,667.4,263.1,667.4z"/>
<path class="st15" d="M224.6,674c0-9.5-7.7-17.2-17.2-17.2s-17.2,7.7-17.2,17.2v0.2h34.4C224.6,674.2,224.6,674.1,224.6,674z"/>
<g>
	<path class="st19" d="M196.9,674c0,0.1,0,0.2,0,0.2h-6.7V674c0-9.5,7.7-17.2,17.2-17.2c1.1,0,2.2,0.1,3.3,0.3
		C202.7,658.7,196.9,665.8,196.9,674z"/>
</g>
<circle class="st16" cx="214.7" cy="663.9" r="2.6"/>
<circle class="st16" cx="219.4" cy="668.2" r="1.6"/>
<path class="st16" d="M213.7,916.9v-91.5c0-9.3-6.9-16.9-15.3-16.9s-15.3,7.6-15.3,16.9v32.9c0,9.3-6.9,16.9-15.4,16.9
	s-15.3-7.6-15.3-16.9v-80.4c0-9.3-6.9-16.9-15.3-16.9s-15.4,7.6-15.4,16.9V900c0,9.3,6.9,16.9,15.4,16.9L213.7,916.9z"/>
<path class="st15" d="M53.8,833.3v83.8h114.8v-83.8c0-15.6-12.7-28.3-28.3-28.3H82.1C66.5,805,53.9,817.6,53.8,833.3z"/>
<path class="st15" d="M113.7,804.9c15.6,0.1,28.2,12.7,28.3,28.3v83.8h26.6v-83.8c0-15.6-12.7-28.3-28.3-28.3H113.7z"/>
<path class="st16" d="M61.9,837.2v79.9h68v-44.8c0-6.9-5.1-12.5-11.3-12.5s-11.3,5.6-11.3,12.5v24.3c0,6.9-5.1,12.5-11.3,12.5
	s-11.3-5.6-11.3-12.5v-59.4c0-6.9-5.1-12.5-11.3-12.5S61.9,830.3,61.9,837.2z"/>
<path class="st15" d="M85.1,805.2c0-11,9-20,20-20s20,9,20,20c0,0.1,0,0.2,0,0.3h-40C85.1,805.4,85.1,805.3,85.1,805.2z"/>
<path class="st19" d="M92.8,805.2c0,0.1,0,0.2,0,0.3h-7.8v-0.3c0-11,9-20,20-20c1.3,0,2.6,0.1,3.9,0.4
	C99.6,787.4,92.8,795.6,92.8,805.2z"/>
<circle class="st16" cx="111.6" cy="792.6" r="4.2"/>
<circle class="st16" cx="119.3" cy="799.7" r="2.6"/>
<path class="st15" d="M21.9,861.2c0-8,6.5-14.5,14.5-14.5s14.5,6.5,14.5,14.5c0,0.1,0,0.1,0,0.2h-29
	C21.9,861.3,21.9,861.2,21.9,861.2z"/>
<path class="st19" d="M27.5,861.2c0,0.1,0,0.1,0,0.2h-5.6v-0.2c0-8,6.5-14.5,14.5-14.5c0.9,0,1.9,0.1,2.8,0.3
	C32.4,848.3,27.5,854.3,27.5,861.2z"/>
<circle class="st16" cx="41.1" cy="852.1" r="3.1"/>
<circle class="st16" cx="46.7" cy="857.2" r="1.9"/>
<path class="st20" d="M490.5,441.7c2.7,0.3,5.3,1.5,8.1,1.3c3.9-0.4,6.4-3.9,9.3-6.2c2.9-2.5,6.7-3.9,10.5-3.9
	c11.2,0,20.3,11,20.3,24.6h-61.7c-0.2,0,0.7-5.3,0.8-5.7c1.4-4.5,4.9-9.2,9.8-10.1C488.5,441.5,489.5,441.5,490.5,441.7z"/>
<path class="st20" d="M985.5,466.6c2.7,0.3,5.3,1.5,8.1,1.3c3.9-0.4,6.4-3.9,9.3-6.2c2.9-2.5,6.7-3.9,10.5-3.9
	c11.2,0,20.4,11,20.4,24.6H972c-0.2,0,0.7-5.3,0.8-5.7c1.4-4.5,4.9-9.2,9.8-10.1C983.6,466.5,984.6,466.5,985.5,466.6z"/>
<path class="st16" d="M448.2,708.5V632c0-7.8,5.8-14.2,12.8-14.2s12.8,6.4,12.8,14.2v27.5c0,7.8,5.8,14.2,12.9,14.2
	s12.8-6.4,12.8-14.2v-67.3c0-7.8,5.8-14.2,12.8-14.2c7,0,12.8,6.4,12.8,14.2v102.1c0,7.8-5.8,14.2-12.8,14.2L448.2,708.5z"/>
<path class="st15" d="M1148,873.6V538.1c-0.1-31.2-25.4-56.5-56.6-56.6H819.6c-31.2,0.1-56.5,25.4-56.6,56.6v335.5
	c0,16.7,7.4,32.4,20.1,43.2h344.7C1140.6,906,1148,890.2,1148,873.6z"/>
<path class="st15" d="M1055.2,744.8v-91.5c0-9.3,6.9-16.9,15.3-16.9s15.3,7.6,15.3,16.9v32.9c0,9.3,6.9,16.9,15.4,16.9
	s15.3-7.6,15.3-16.9v-80.4c0-9.3,6.9-16.9,15.3-16.9s15.4,7.6,15.4,16.9v122.1c0,9.3-6.9,16.9-15.4,16.9H1055.2z"/>
<path class="st16" d="M847.5,916.8h-63.3c-12.7-10.7-20.1-26.5-20.1-43.2V538.1c0.1-31.2,25.4-56.5,56.6-56.6H884
	c-31.2,0.1-56.5,25.4-56.6,56.6v335.5C827.4,890.2,834.7,906,847.5,916.8z"/>
<path class="st15" d="M1136,674.2h111.1c31.3,0,56.6,25.3,56.6,56.6v129.6c0,31.3-25.3,56.6-56.6,56.6H1136
	c-31.3,0-56.6-25.3-56.6-56.6V730.8C1079.3,699.6,1104.7,674.2,1136,674.2z"/>
<path class="st21" d="M1121.6,730.9c0.1-31.2,25.4-56.5,56.6-56.6H1136c-31.2,0.1-56.5,25.4-56.6,56.6v101h42.2L1121.6,730.9z"/>
<path class="st22" d="M812.4,904.4c-2.7,0.4-5.5,0.6-8.2,0.6H580.3c-31.2-0.1-56.5-25.4-56.6-56.6V537c0.1-31.2,25.4-56.5,56.6-56.6
	h223.9c2.8,0,5.5,0.2,8.2,0.6c-27.7,4.2-48.3,28-48.4,56v311.3C764.1,876.4,784.6,900.2,812.4,904.4z"/>
<g>
	<path class="st14" d="M686.5,738.3v-76.5c0-7.8,5.8-14.2,12.8-14.2s12.8,6.4,12.8,14.2v27.5c0,7.8,5.8,14.2,12.8,14.2
		s12.8-6.4,12.8-14.2v-67.3c0-7.8,5.8-14.2,12.8-14.2s12.8,6.4,12.8,14.2v102.1c0,7.8-5.8,14.2-12.8,14.2H686.5z"/>
</g>
<g>
	<path class="st14" d="M747.8,585.8c1.1-2.3,3.9-3.2,6.2-2.1c2.3,1.1,3.2,3.9,2.1,6.2s-3.9,3.2-6.2,2.1c0,0,0,0,0,0
		C747.6,590.8,746.7,588.1,747.8,585.8z"/>
</g>
<g>
	<path class="st14" d="M590.4,597c1.1-2.3,3.9-3.2,6.2-2.1c2.3,1.1,3.2,3.9,2.1,6.2s-3.9,3.2-6.2,2.1c0,0,0,0,0,0
		C590.2,602,589.3,599.3,590.4,597z"/>
</g>
<g>
	<path class="st14" d="M531.3,643.2c1.1-2.3,3.9-3.2,6.2-2.1c2.3,1.1,3.2,3.9,2.1,6.2s-3.9,3.2-6.2,2.1c0,0,0,0,0,0
		C531.2,648.2,530.2,645.5,531.3,643.2z"/>
</g>
<g class="st23">
	<path class="st14" d="M816.2,481.5c-27.8,4.2-52.2,27.4-52.2,55.5v7.6c-0.9-6.8-6.6-11.9-13.4-12c-7.5,0-13.6,6.4-13.6,14.2v42.2
		c0,7.8-6.3,14.1-14.2,14.2h-8.7c-7.8,0-14.1-6.3-14.2-14.2v-25.6c0-7.8-5.6-14.2-12.5-14.2s-12.5,6.4-12.5,14.2v5.2
		c0,7.8-6.3,14.1-14.2,14.2H652c-7.8,0-14.1-6.3-14.2-14.2v-41.7c0-7.8-5.6-14.2-12.5-14.2s-12.5,6.4-12.5,14.2v17.7
		c0,7.8-6.3,14.1-14.2,14.2h-3.8c-7.8,0-14.1-6.3-14.2-14.2v-7.1c0-7.8-5.7-14.2-12.5-14.2c-6.2,0-11.4,5.2-12.4,11.9
		c-0.1,0.7-0.2,1.5-0.2,2.2V565c-1,6.9-7,12.1-14,12.1h-3.8c-7.8,0-14.1-6.3-14.2-14.2v-26c0.1-31.2,25.4-56.5,56.6-56.6h223.9
		C806.9,480.4,813.5,481.1,816.2,481.5z"/>
</g>
<path class="st16" d="M1010,757.4v-58.7c0-9.3-7.6-16.9-17-16.9h-0.1c-9.4,0-17,7.6-17,16.9v15.7c0,9.3-7.6,16.8-17,16.9l0,0
	c-9.4,0-17-7.6-17-16.9v-4c0-9.3-7.6-16.9-17-16.9h-0.1c-9.4,0-17,7.6-17,16.9v0.8c0,9.3-7.6,16.9-17,16.9l0,0
	c-9.4,0-16.9-7.6-17-16.9v-12.5c0-9.3-7.6-16.9-17-16.9h-29.6v91.4h171.3C1005.4,770.8,1010,764.5,1010,757.4z"/>
<path class="st16" d="M1400.9,889.5c0-15.6-9.6-28.3-21.3-28.3h-43.8c-11.7,0-21.3,12.7-21.3,28.3v27.5h86.4L1400.9,889.5z"/>
<path class="st15" d="M1395.4,890.8c0-4.2-2.7-7.6-5.9-7.6l0,0c-3.3,0-5.9,3.4-5.9,7.6v7c0,4.2-2.7,7.6-5.9,7.6l0,0
	c-3.3,0-5.9-3.4-5.9-7.6V896c0-4.2-2.7-7.6-5.9-7.6l0,0c-3.3,0-5.9,3.4-5.9,7.6v0.3c0,4.2-2.7,7.6-5.9,7.6l0,0
	c-3.2,0-5.9-3.4-5.9-7.6v-5.6c0-4.2-2.7-7.6-5.9-7.6H1332V917h63.4L1395.4,890.8z"/>
<g>
	<path class="st14" d="M558.8,714.2v-76.5c0-7.8,5.8-14.2,12.8-14.2s12.8,6.4,12.8,14.2v27.5c0,7.8,5.8,14.2,12.8,14.2
		s12.8-6.4,12.8-14.2V598c0-7.8,5.8-14.2,12.8-14.2s12.8,6.4,12.8,14.2v102c0,7.8-5.8,14.2-12.8,14.2L558.8,714.2z"/>
</g>
<path class="st15" d="M841.5,481.6c0-15.8,12.8-28.7,28.7-28.7s28.7,12.8,28.7,28.7c0,0.1,0,0.3,0,0.4h-57.4
	C841.5,481.9,841.5,481.7,841.5,481.6z"/>
<path class="st24" d="M887.7,481.6c0,0.1,0,0.3,0,0.4h11.2v-0.4c0-15.8-12.8-28.7-28.7-28.7c-1.9,0-3.7,0.2-5.6,0.5
	C878.1,456.2,887.7,467.9,887.7,481.6z"/>
<path class="st15" d="M890.2,481.8c-0.3-9.7,7.2-17.8,16.9-18.1s17.8,7.2,18.1,16.9c0,0.4,0,0.8,0,1.2c0,0.1,0,0.2,0,0.2h-35
	C890.2,481.9,890.2,481.9,890.2,481.8z"/>
<path class="st24" d="M918.4,481.8c0,0.1,0,0.2,0,0.2h6.8v-0.2c0-9.7-7.8-17.5-17.5-17.5c-1.1,0-2.3,0.1-3.4,0.3
	C912.5,466.2,918.4,473.4,918.4,481.8z"/>
<path class="st22" d="M537.1,744.9c0-27.7,21.1-50.8,48.4-54.7c-2.7-0.4-5.5-0.6-8.2-0.6H353.4c-31.1,0-56.6,24.9-56.6,55.3v171.5
	h240.3V744.9z"/>
<g class="st23">
	<path class="st14" d="M585.5,690.2c-27.8,4.1-48.3,27.9-48.4,56v7.6c-0.9-6.8-6.6-11.9-13.4-12c-7.5,0-13.6,6.4-13.6,14.2v42.2
		c0,7.8-6.3,14.1-14.1,14.1h-8.7c-7.8,0-14.1-6.3-14.1-14.2v-25.6c0-7.8-5.6-14.2-12.5-14.2s-12.6,6.4-12.6,14.2v5.2
		c0,7.8-6.3,14.1-14.1,14.2h-8.7c-7.8,0-14.1-6.4-14.1-14.2v-41.7c0-7.8-5.6-14.2-12.5-14.2s-12.5,6.4-12.5,14.2v17.7
		c0,7.8-6.3,14.1-14.1,14.2H368c-7.8,0-14.1-6.3-14.1-14.2v-7.1c0-7.8-5.7-14.2-12.5-14.2c-6.2,0-11.4,5.2-12.4,11.9
		c-0.1,0.7-0.2,1.5-0.2,2.2v27.5c-1,6.9-7,12.1-14,12.1H311c-7.8,0-14.1-6.3-14.1-14.2v-26c0.1-31.2,25.4-56.5,56.6-56.6h223.8
		C580.1,689.6,582.8,689.8,585.5,690.2z"/>
</g>
<path class="st15" d="M850.3,739.6c-0.1-27.6-22.4-49.9-50-50H560.4c-27.6,0.1-49.9,22.4-50,50v177.2h339.9L850.3,739.6z"/>
<path class="st16" d="M605,689.6c-27.6,0.1-49.9,22.4-50,50v177.2h-44.6V739.6c0.1-27.6,22.4-49.9,50-50L605,689.6z"/>
<path class="st16" d="M415,605c0,3.1-2.2,5.7-5,5.7s-5-2.5-5-5.7v-77.5c0-3.1,2.2-5.7,5-5.7s5,2.5,5,5.7V605z"/>
<path class="st16" d="M349.8,586.2c0,3.1-2.2,5.7-5,5.7s-5-2.5-5-5.7v-77.5c0-3.1,2.2-5.7,5-5.7s5,2.5,5,5.7V586.2z"/>
<path class="st16" d="M460.2,573.2c0,3.1-1.9,5.7-4.3,5.7s-4.3-2.5-4.3-5.7V507c0-3.1,1.9-5.7,4.3-5.7s4.3,2.5,4.3,5.7V573.2z"/>
<g>
	<path class="st14" d="M464.8,882.4c0,3.1-1.9,5.7-4.3,5.7s-4.3-2.5-4.3-5.7v-66.1c0-3.1,1.9-5.7,4.3-5.7s4.3,2.5,4.3,5.7V882.4z"/>
</g>
<g>
	<path class="st14" d="M501,902.8c0,3.1-1.9,5.7-4.3,5.7s-4.3-2.5-4.3-5.7v-66.2c0-3.1,1.9-5.7,4.3-5.7s4.3,2.5,4.3,5.7V902.8z"/>
</g>
<g>
	<path class="st14" d="M544.4,673.7c0,3.1-1.9,5.7-4.3,5.7s-4.3-2.5-4.3-5.7v-66.1c0-3.1,1.9-5.7,4.3-5.7s4.3,2.5,4.3,5.7V673.7z"/>
</g>
<g>
	<path class="st14" d="M313,907.6c0,3.1-1.9,5.7-4.3,5.7s-4.3-2.5-4.3-5.7v-66.2c0-3.1,1.9-5.7,4.3-5.7s4.3,2.5,4.3,5.7V907.6z"/>
</g>
<g>
	<path class="st14" d="M671.4,675.4c0,3.1-1.9,5.7-4.3,5.7s-4.3-2.5-4.3-5.7v-66.2c0-3.1,1.9-5.7,4.3-5.7s4.3,2.5,4.3,5.7V675.4z"/>
</g>
<path class="st16" d="M489.8,605c0,3.1-1.9,5.7-4.3,5.7s-4.3-2.5-4.3-5.7v-66.2c0-3.1,1.9-5.7,4.3-5.7s4.3,2.5,4.3,5.7V605z"/>
<path class="st16" d="M573.2,917v-76.5c0-7.8,5.8-14.2,12.8-14.2s12.8,6.4,12.8,14.2V868c0,7.8,5.8,14.2,12.8,14.2
	s12.8-6.4,12.8-14.2v-67.2c0-7.8,5.8-14.2,12.8-14.2s12.8,6.4,12.8,14.2v102.1c0,7.8-5.8,14.2-12.8,14.2H573.2z"/>
<path class="st25" d="M784.2,682.5h-0.4c-2.1-2.6-5.3-4.1-8.7-4.1c-2.2,0-4.4,0.7-6.3,1.9l0,0c-1.3-2-3.6-3.2-6-3.2h0
	c0-0.5,0-1,0-1.5c0-10.5-8.5-18.9-19-18.9c-6.2,0-12,3-15.6,8.1c-1.7-1-3.6-1.5-5.5-1.5c-6,0-10.9,4.7-11.2,10.7
	c-1-0.5-2.2-0.8-3.3-0.8c-2.6,0-5,1.4-6.3,3.7c-1-0.2-2-0.4-3-0.4c-6.9,0-12.5,5.6-12.5,12.5c0,0,0,0,0,0c0,0.1,0,0.2,0,0.4h104.8
	C791.2,685.7,788.1,682.5,784.2,682.5z"/>
<path class="st14" d="M726.1,674.3h-0.8c-8-9.7-22.1-11.8-32.5-4.7h-0.1c-2.9-4.4-7.7-7-12.9-7h-0.1c0-1.1,0.1-2.1,0.1-3.3
	c0-22.7-18.5-41.2-41.2-41.1c-13.5,0-26.1,6.6-33.8,17.7c-3.6-2.1-7.8-3.2-12-3.2c-13,0-23.7,10.3-24.3,23.3
	c-2.2-1.2-4.7-1.8-7.3-1.8c-5.7,0-10.9,3.2-13.6,8.2c-2.2-0.5-4.4-0.8-6.6-0.8c-15.1,0-27.3,12.2-27.3,27.3c0,0,0,0,0,0
	c0,0.3,0,0.5,0.1,0.8h227.7C741.5,681.1,734.6,674.3,726.1,674.3C726.1,674.3,726.1,674.3,726.1,674.3z"/>
<g>
	<path class="st14" d="M331.5,914.5V838c0-7.8,5.8-14.2,12.8-14.2s12.8,6.4,12.8,14.2v27.5c0,7.8,5.8,14.2,12.9,14.2
		s12.8-6.4,12.8-14.2v-67.3c0-7.8,5.8-14.2,12.8-14.2s12.9,6.4,12.9,14.2v102.1c0,7.8-5.8,14.2-12.9,14.2L331.5,914.5z"/>
</g>
<path class="st15" d="M1145.2,773.1v144h-114.8v-144c0-15.6,12.7-28.3,28.3-28.3h58.1C1132.5,744.8,1145.2,757.5,1145.2,773.1z"/>
<path class="st14" d="M520.9,898.2h-1c-1.7-2.2-3.7-4.1-6-5.8c-9.5-6.9-22.4-6.9-31.9,0h-0.1c-3.2-5.3-8.9-8.6-15.1-8.6h-0.1
	c0-1.3,0.1-2.6,0.1-4c0-27.9-21.5-50.5-48.1-50.5c-16.3,0-30.8,8.6-39.5,21.7c-4.2-2.6-9.1-3.9-14-3.9c-15.3,0-27.7,12.7-28.3,28.6
	c-2.6-1.4-5.5-2.2-8.5-2.2c-6.8,0.1-12.9,3.9-15.9,10c-2.5-0.6-5.1-1-7.7-1c-17.6,0-31.8,15-31.8,33.5c0,0.3,0.1,0.7,0.1,1h265.7
	C538.8,906.5,530.7,898.2,520.9,898.2z"/>
<g>
	<path class="st14" d="M327.4,801.8c1.1-2.3,3.9-3.2,6.2-2.1s3.2,3.9,2.1,6.2c-1.1,2.3-3.9,3.2-6.2,2.1c0,0,0,0,0,0
		C327.2,806.8,326.2,804,327.4,801.8z"/>
</g>
<path class="st16" d="M1138.7,836.6v80.5H1077v-48.7c0-6.2,4.6-11.3,10.3-11.3s10.3,5.1,10.3,11.3v22c0,6.2,4.6,11.3,10.3,11.3
	s10.3-5.1,10.3-11.3v-53.8c0-6.2,4.6-11.3,10.3-11.3S1138.7,830.3,1138.7,836.6z"/>
<g>
	<path class="st14" d="M396.3,764c1.1-2.3,3.9-3.2,6.2-2.1s3.2,3.9,2.1,6.2c-1.1,2.3-3.9,3.2-6.2,2.1c0,0,0,0,0,0
		C396.1,769,395.2,766.3,396.3,764z"/>
</g>
<g>
	<path class="st14" d="M415.9,809.3c0.7-1.3,2.3-1.9,3.6-1.2c1.3,0.7,1.9,2.3,1.2,3.6c-0.7,1.3-2.3,1.9-3.6,1.2
		C415.8,812.3,415.2,810.7,415.9,809.3C415.9,809.3,415.9,809.3,415.9,809.3z"/>
</g>
<g>
	<path class="st14" d="M314.3,871.3c0.7-1.3,2.3-1.9,3.6-1.2c1.3,0.7,1.9,2.3,1.2,3.6c-0.7,1.3-2.3,1.9-3.6,1.2
		C314.2,874.3,313.7,872.6,314.3,871.3C314.3,871.3,314.3,871.3,314.3,871.3z"/>
</g>
<g>
	<path class="st14" d="M363.8,829.8c0.7-1.3,2.3-1.9,3.6-1.2c1.3,0.7,1.9,2.3,1.2,3.6c-0.7,1.3-2.3,1.9-3.6,1.2
		C363.7,832.8,363.1,831.2,363.8,829.8C363.8,829.8,363.8,829.8,363.8,829.8z"/>
</g>
<g>
	<path class="st14" d="M479.7,871.3c0.7-1.3,2.3-1.9,3.6-1.2c1.3,0.7,1.9,2.3,1.2,3.6c-0.7,1.3-2.3,1.9-3.6,1.2
		C479.6,874.3,479,872.6,479.7,871.3C479.7,871.3,479.7,871.3,479.7,871.3z"/>
</g>
<g>
	<path class="st14" d="M301.9,802.6c0.7-1.3,2.3-1.9,3.6-1.2c1.3,0.7,1.9,2.3,1.2,3.6c-0.7,1.3-2.3,1.9-3.6,1.2
		C301.8,805.6,301.2,803.9,301.9,802.6C301.9,802.6,301.9,802.6,301.9,802.6z"/>
</g>
<g>
	<path class="st14" d="M475.3,834.5c1.1-2.3,3.9-3.2,6.2-2.1s3.2,3.9,2.1,6.2c-1.1,2.3-3.9,3.2-6.2,2.1c0,0,0,0,0,0
		C475.1,839.5,474.2,836.8,475.3,834.5z"/>
</g>
<path class="st22" d="M1081.9,819.1c0-30.7-25.5-55.8-56.6-55.8H801.5c-2.8,0-5.5,0.2-8.2,0.6c27.3,3.9,48.4,27.2,48.4,55.2v97.8
	h240.3L1081.9,819.1z"/>
<path class="st19" d="M502.5,467.5h-39.7v0.3H332v-0.3h-64.1c-7.1,0-12.9,6.4-12.9,14.1v102.1c0,7.8,5.8,14.2,12.9,14.2
	s12.8-6.4,12.8-14.2v-67.3c0-7.8,5.8-14.1,12.8-14.1s12.9,6.4,12.9,14.1V544c0,7.8,5.8,14.2,12.8,14.2S332,551.8,332,544v-55.6h24.5
	c2.2,13.5,14.9,22.7,28.4,20.5c10.5-1.7,18.8-10,20.5-20.5h12c0,9.4,7.6,17,17,17c9.4,0,17.1-7.6,17.1-17h11.2v26.5
	c0,4.8,3.6,8.8,7.9,8.8s7.9-4,7.9-8.8v-17.1c0-4.8,3.6-8.8,8-8.8s7.9,3.9,7.9,8.8v41.6c0,4.8,3.6,8.8,7.9,8.8s8-4,8-8.8v-63.2
	C510.4,471.4,506.9,467.5,502.5,467.5z"/>
<g class="st23">
	<path class="st14" d="M793.2,764c27.8,4.1,48.3,27.9,48.4,56v7.6c0.9-6.8,6.6-11.9,13.4-12c7.5,0,13.6,6.4,13.6,14.2V872
		c0,7.8,6.3,14.1,14.2,14.2h8.7c7.8,0,14.1-6.3,14.2-14.2v-25.6c0-7.8,5.6-14.2,12.5-14.2s12.5,6.4,12.5,14.2v5.2
		c0,7.8,6.3,14.1,14.2,14.2h8.7c7.8,0,14.1-6.3,14.2-14.2v-41.7c0-7.8,5.6-14.2,12.5-14.2s12.5,6.4,12.5,14.2v17.7
		c0,7.8,6.4,14.1,14.2,14.1h3.8c7.8,0,14.1-6.3,14.2-14.2v-7.1c0-7.8,5.7-14.2,12.5-14.2c6.2,0,11.4,5.2,12.4,11.9
		c0.1,0.7,0.2,1.5,0.2,2.2V848c1,6.9,7,12.1,14,12.1h3.8c7.8,0,14.1-6.3,14.2-14.2v-26c-0.1-31.2-25.4-56.5-56.6-56.6H801.5
		C798.7,763.4,795.9,763.6,793.2,764z"/>
</g>
<path class="st20" d="M356.3,473.6c0,0.3,0,0.5,0,0.8c-0.3,13.7,10.6,25,24.3,25.3s25-10.6,25.3-24.3c0-0.3,0-0.7,0-1
	c0-0.3,0-0.5,0-0.8H356.3z"/>
<path class="st20" d="M417.5,477.6c0,0.2,0,0.4,0,0.5c0,9.4,7.6,17.1,17.1,17.1s17.1-7.6,17.1-17.1c0,0,0,0,0,0c0-0.2,0-0.4,0-0.5
	H417.5z"/>
<path class="st20" d="M332,457.4v76.5c0,7.8-5.8,14.2-12.8,14.2s-12.8-6.4-12.8-14.2v-27.5c0-7.8-5.8-14.1-12.9-14.1
	s-12.8,6.4-12.8,14.1v67.3c0,7.8-5.8,14.2-12.8,14.2s-12.8-6.4-12.8-14.2V471.5c0-7.8,5.8-14.1,12.9-14.1L332,457.4z"/>
<path class="st20" d="M462.8,457.5v47.4c0,4.8,3.6,8.8,7.9,8.8s7.9-4,7.9-8.8v-17.1c0-4.8,3.6-8.8,8-8.8s7.9,3.9,7.9,8.8v41.6
	c0,4.8,3.6,8.8,7.9,8.8s8-4,8-8.8v-63.2c0-4.8-3.6-8.8-8-8.8H462.8z"/>
<rect x="306.2" y="457.4" class="st20" width="175.9" height="20.6"/>
<g>
	<path class="st19" d="M1127.3,491.5h-39.7v0.3H956.8v-0.3h-64.2c-7.1,0-12.8,6.4-12.8,14.1v102.1c0,7.8,5.8,14.2,12.8,14.2
		s12.8-6.4,12.8-14.2v-67.3c0-7.8,5.8-14.2,12.8-14.2s12.8,6.4,12.8,14.2V568c0,7.8,5.8,14.2,12.8,14.2s12.8-6.4,12.8-14.2v-55.6
		h24.5c2.2,13.5,14.9,22.7,28.4,20.5c10.5-1.7,18.8-10,20.5-20.5h12c0,9.4,7.7,17,17.1,17c9.4,0,17-7.6,17-17h11.2v26.5
		c0,4.8,3.6,8.8,7.9,8.8s7.9-4,7.9-8.8v-17c0-4.8,3.6-8.8,8-8.8s7.9,3.9,7.9,8.8v41.7c0,4.8,3.6,8.8,7.9,8.8s8-4,8-8.8v-63.2
		C1135.2,495.5,1131.6,491.5,1127.3,491.5z"/>
</g>
<path class="st20" d="M1128,482H893.4c-7.1,0-12.8,6.4-12.8,14.1v102.1c0,7.8,5.8,14.2,12.8,14.2s12.8-6.4,12.8-14.2V531
	c0-7.8,5.8-14.2,12.8-14.2s12.8,6.4,12.8,14.2v27.5c0,7.8,5.8,14.2,12.8,14.2s12.8-6.4,12.8-14.2v-55.6h24.5
	c2.2,13.5,14.9,22.7,28.4,20.5c10.5-1.7,18.8-10,20.5-20.5h12c0,9.4,7.7,17,17.1,17c9.4,0,17-7.6,17-17h11.2v26.5
	c0,4.8,3.6,8.8,7.9,8.8s7.9-3.9,7.9-8.8v-17.1c0-4.8,3.6-8.8,8-8.8s7.9,3.9,7.9,8.8V554c0,4.8,3.6,8.8,7.9,8.8s8-3.9,8-8.8v-63.2
	C1135.9,486,1132.3,482,1128,482z"/>
<g class="st17">
	<path class="st16" d="M297.9,619.3c0,3.1-1.9,5.7-4.3,5.7s-4.3-2.5-4.3-5.7v-66.2c0-3.1,1.9-5.7,4.3-5.7s4.3,2.5,4.3,5.7V619.3z"/>
</g>
<circle class="st18" cx="293.5" cy="526.1" r="4.3"/>
<g class="st17">
	<path class="st26" d="M287.4,829.4c0,3.1-1.9,5.7-4.3,5.7s-4.3-2.5-4.3-5.7v-66.2c0-3.1,1.9-5.7,4.3-5.7s4.3,2.5,4.3,5.7V829.4z"/>
</g>
<circle class="st27" cx="283" cy="736.3" r="4.3"/>
<circle class="st16" cx="410.1" cy="628.5" r="6.5"/>
<g>
	<path class="st28" d="M896.9,588.8c0,3.1-2.2,5.7-5,5.7s-5-2.5-5-5.7v-77.5c0-3.1,2.2-5.7,5-5.7s5,2.5,5,5.7V588.8z"/>
</g>
<g>
	<path class="st28" d="M271.5,564.9c0,3.1-2.2,5.7-5,5.7s-5-2.5-5-5.7v-77.5c0-3.1,2.2-5.7,5-5.7s5,2.5,5,5.7V564.9z"/>
</g>
<g>
	<path class="st19" d="M861.8,601.5c0,3.1-2.2,5.7-5,5.7s-5-2.5-5-5.7V524c0-3.1,2.2-5.7,5-5.7s5,2.5,5,5.7V601.5z"/>
</g>
<circle class="st19" cx="856.8" cy="625" r="6.5"/>
<g>
	<path class="st19" d="M981,614.4c0,3.1-2.2,5.7-5,5.7s-5-2.5-5-5.7v-77.5c0-3.1,2.2-5.7,5-5.7s5,2.5,5,5.7V614.4z"/>
</g>
<circle class="st19" cx="976.1" cy="637.9" r="6.5"/>
<g>
	<path class="st19" d="M1243.5,768.8c0,3.1-2.2,5.7-5,5.7s-5-2.5-5-5.7v-77.5c0-3.1,2.2-5.7,5-5.7s5,2.5,5,5.7V768.8z"/>
</g>
<circle class="st19" cx="1238.5" cy="792.3" r="6.5"/>
<g class="st17">
	<path class="st16" d="M745.3,734.2c0-3.1,2.2-5.7,5-5.7s5,2.5,5,5.7v77.5c0,3.1-2.2,5.7-5,5.7s-5-2.5-5-5.7V734.2z"/>
</g>
<circle class="st18" cx="750.2" cy="710.7" r="6.5"/>
<g>
	<path class="st19" d="M1107.8,639c0,3.1-2.2,5.7-4.9,5.7s-5-2.5-5-5.7v-77.5c0-3.1,2.2-5.7,5-5.7s4.9,2.5,4.9,5.7V639z"/>
</g>
<circle class="st19" cx="1102.9" cy="662.5" r="6.5"/>
<g>
	<path class="st19" d="M1030,598.1c0-3.1,2.2-5.7,5-5.7s5,2.5,5,5.7v77.5c0,3.1-2.2,5.7-5,5.7s-5-2.5-5-5.7V598.1z"/>
</g>
<circle class="st19" cx="1034.9" cy="574.6" r="6.5"/>
<g>
	<path class="st19" d="M1154.6,763.7c0-3.1,2.2-5.7,5-5.7s5,2.5,5,5.7v77.5c0,3.1-2.2,5.7-5,5.7s-5-2.5-5-5.7V763.7z"/>
</g>
<circle class="st19" cx="1159.6" cy="740.2" r="6.5"/>
<path class="st15" d="M677.4,689.3c0-10.5,8.5-19,19-19s19,8.5,19,19c0,0.1,0,0.2,0,0.3h-38C677.4,689.5,677.4,689.4,677.4,689.3z"
	/>
<path class="st19" d="M708,689.3c0,0.1,0,0.2,0,0.3h7.4v-0.3c0-10.5-8.5-19-19-19c-1.2,0-2.5,0.1-3.7,0.4
	C701.6,672.5,708,680.3,708,689.3z"/>
<path class="st15" d="M709.2,689.4c0-8.2,6.6-14.8,14.8-14.8c8.2,0,14.8,6.6,14.8,14.8c0,0,0,0,0,0c0,0.1,0,0.1,0,0.2h-29.6
	C709.2,689.5,709.2,689.5,709.2,689.4z"/>
<path class="st19" d="M733.1,689.4c0,0.1,0,0.1,0,0.2h5.8v-0.2c0-8.2-6.6-14.8-14.8-14.8c-1,0-1.9,0.1-2.9,0.3
	C728.1,676.2,733.1,682.3,733.1,689.4z"/>
<path class="st15" d="M841.4,820c-0.1-31.2-25.4-56.5-56.6-56.6h-54.6V917h111.2V820z"/>
<path class="st16" d="M748.7,917v-60.6c0-6.2,4.6-11.2,10.2-11.2s10.2,5,10.2,11.2v21.8c0,6.2,4.6,11.2,10.2,11.2s10.2-5,10.2-11.2
	V825c0-6.2,4.6-11.2,10.2-11.2s10.2,5,10.2,11.2v80.8c0,6.2-4.6,11.2-10.2,11.2H748.7z"/>
<path class="st15" d="M750.2,773.1c0-15.6-12.7-28.3-28.3-28.3h-58.1c-15.6,0-28.3,12.7-28.3,28.3V917h114.8V773.1z"/>
<path class="st16" d="M706.6,744.8c-15.6,0-28.3,12.7-28.3,28.3V917h-42.9V773.1c0-15.6,12.7-28.3,28.3-28.3H706.6z"/>
<path class="st16" d="M1111.3,858c0,3.1-2.2,5.7-5,5.7s-5-2.5-5-5.7v-77.5c0-3.1,2.2-5.7,5-5.7s5,2.5,5,5.7V858z"/>
<path class="st15" d="M350.5,456.9c-0.3-15.4,12-28.2,27.4-28.5s28.2,12,28.5,27.4c0,0.4,0,0.7,0,1.1c0,0.1,0,0.3,0,0.4h-55.8
	C350.5,457.1,350.5,457,350.5,456.9z"/>
<path class="st24" d="M395.5,456.9c0,0.1,0,0.3,0,0.4h10.9v-0.4c0-15.4-12.5-27.9-27.9-27.9c-1.8,0-3.6,0.2-5.4,0.5
	C386.1,432.1,395.5,443.5,395.5,456.9z"/>
<circle class="st29" cx="367.1" cy="438.1" r="3.9"/>
<circle class="st29" cx="360" cy="444.6" r="2.4"/>
<path class="st15" d="M715.7,744.5c0.7-12.7-9-23.5-21.7-24.2c-12.7-0.7-23.5,9-24.2,21.7c0,0.8,0,1.7,0,2.5c0,0.1,0,0.2,0,0.3h45.9
	C715.7,744.7,715.7,744.5,715.7,744.5z"/>
<path class="st19" d="M706.8,744.5c0,0.1,0,0.2,0,0.3h8.9v-0.3c0-12.7-10.3-23-23-23l0,0c-1.5,0-3,0.1-4.5,0.4
	C699,724,706.8,733.5,706.8,744.5z"/>
<circle class="st29" cx="685.2" cy="730" r="4.9"/>
<circle class="st29" cx="676.4" cy="738.2" r="3"/>
<path class="st30" d="M784.1,763.1c0-9-7.3-16.3-16.3-16.3s-16.3,7.3-16.3,16.3c0,0.1,0,0.2,0,0.2h32.6
	C784.1,763.3,784.1,763.2,784.1,763.1z"/>
<path class="st26" d="M777.8,763.2c0,0.1,0,0.2,0,0.2h6.3v-0.2c0-9-7.3-16.3-16.3-16.3c-1.1,0-2.1,0.1-3.2,0.3
	C772.3,748.7,777.8,755.4,777.8,763.2z"/>
<circle class="st29" cx="762.5" cy="752.9" r="3.5"/>
<circle class="st29" cx="756.2" cy="758.7" r="2.1"/>
<path class="st15" d="M1093.1,744.6c0-9-7.3-16.3-16.3-16.3c-9,0-16.3,7.3-16.3,16.3c0,0.1,0,0.2,0,0.2h32.6
	C1093,744.8,1093.1,744.7,1093.1,744.6z"/>
<path class="st19" d="M1086.7,744.7c0,0.1,0,0.2,0,0.2h6.3v-0.2c0-9-7.3-16.3-16.3-16.3c-1.1,0-2.1,0.1-3.2,0.3
	C1081.2,730.2,1086.7,736.9,1086.7,744.7z"/>
<circle class="st29" cx="1071.4" cy="734.4" r="3.5"/>
<circle class="st29" cx="1065.1" cy="740.2" r="2.1"/>
<path class="st15" d="M1119,744.6c0-6.4-5.2-11.6-11.6-11.6c-6.4,0-11.6,5.2-11.6,11.6c0,0,0,0,0,0c0,0,0,0.1,0,0.2h23.1
	C1119,744.7,1119,744.6,1119,744.6z"/>
<path class="st19" d="M1114.5,744.6c0,0,0,0.1,0,0.2h4.5v-0.2c0-6.4-5.2-11.6-11.5-11.6c0,0,0,0,0,0c-0.8,0-1.5,0.1-2.3,0.2
	C1110.6,734.3,1114.5,739.1,1114.5,744.6z"/>
<circle class="st29" cx="1103.7" cy="737.3" r="2.4"/>
<path class="st29" d="M1100.7,741.4c0,0.8-0.7,1.5-1.5,1.5c-0.8,0-1.5-0.7-1.5-1.5s0.7-1.5,1.5-1.5l0,0
	C1100,739.9,1100.7,740.6,1100.7,741.4z"/>
<path class="st15" d="M1194.6,563.4c0-7.6-6.1-13.7-13.7-13.7c-7.6,0-13.7,6.1-13.7,13.7c0,0.1,0,0.1,0,0.2h27.4
	C1194.6,563.5,1194.6,563.5,1194.6,563.4z"/>
<path class="st19" d="M1189.3,563.4c0,0.1,0,0.1,0,0.2h5.3v-0.2c0-7.6-6.1-13.7-13.7-13.7c-0.9,0-1.8,0.1-2.7,0.3
	C1184.7,551.3,1189.3,556.9,1189.3,563.4z"/>
<circle class="st29" cx="1176.5" cy="554.8" r="2.9"/>
<circle class="st29" cx="1171.2" cy="559.7" r="1.8"/>
<path class="st15" d="M1213.3,563.3c0-4.4-3.5-7.9-7.9-7.9s-7.9,3.5-7.9,7.9c0,0,0,0.1,0,0.1h15.8
	C1213.3,563.5,1213.3,563.4,1213.3,563.3z"/>
<path class="st19" d="M1210.2,563.3c0,0,0,0.1,0,0.1h3.1v-0.1c0-4.4-3.5-7.9-7.9-7.9l0,0c-0.5,0-1,0-1.5,0.2
	C1207.5,556.3,1210.2,559.6,1210.2,563.3z"/>
<circle class="st29" cx="1202.8" cy="558.4" r="1.7"/>
<path class="st29" d="M1200.8,561.2c0,0.6-0.4,1-1,1s-1-0.4-1-1s0.4-1,1-1S1200.8,560.6,1200.8,561.2z"/>
<circle class="st29" cx="689.6" cy="677.9" r="3.3"/>
<circle class="st29" cx="683.7" cy="683.3" r="2"/>
<circle class="st29" cx="719.3" cy="680.3" r="2.3"/>
<circle class="st29" cx="715.1" cy="684.2" r="1.4"/>
<path class="st15" d="M607.3,689.3c-0.7-12.7,9-23.5,21.7-24.2c12.7-0.7,23.5,9,24.2,21.7c0,0.8,0,1.7,0,2.5c0,0.1,0,0.2,0,0.3
	h-45.9C607.3,689.5,607.3,689.4,607.3,689.3z"/>
<path class="st19" d="M644.3,689.3c0,0.1,0,0.2,0,0.3h8.9v-0.3c0-12.7-10.3-23-23-23l0,0c-1.5,0-3,0.1-4.5,0.4
	C636.6,668.9,644.3,678.3,644.3,689.3z"/>
<circle class="st29" cx="623.5" cy="674.8" r="4.9"/>
<circle class="st29" cx="614.7" cy="683" r="3"/>
<path class="st20" d="M343.1,435.8c-3.7,0.5-7.3,2.1-11.1,1.7c-5.4-0.6-8.8-5.3-12.7-8.5c-4-3.4-9.2-5.3-14.5-5.3
	c-15.4,0-28,15.1-28,33.8h84.8c0.3,0-1-7.3-1.1-7.8c-1.9-6.2-6.7-12.7-13.5-13.8C345.7,435.6,344.4,435.6,343.1,435.8z"/>
<path class="st15" d="M506.4,457.8c0-9.5,7.7-17.2,17.2-17.2c9.5,0,17.2,7.7,17.2,17.2c0,0.1,0,0.2,0,0.2h-34.4
	C506.4,458,506.4,457.9,506.4,457.8z"/>
<path class="st24" d="M534.2,457.9c0,0.1,0,0.2,0,0.2h6.7v-0.2c0-9.5-7.7-17.2-17.2-17.2c-1.1,0-2.2,0.1-3.3,0.3
	C528.4,442.6,534.2,449.6,534.2,457.9z"/>
<circle class="st29" cx="518.5" cy="446.6" r="2.5"/>
<circle class="st29" cx="514" cy="450.7" r="1.5"/>
<circle class="st24" cx="861" cy="462.3" r="4.8"/>
<path class="st24" d="M855.3,470.3c0,1.6-1.3,2.9-2.9,2.9s-2.9-1.3-2.9-2.9c0-1.6,1.3-2.9,2.9-2.9
	C854,467.4,855.3,468.7,855.3,470.3L855.3,470.3z"/>
<circle class="st28" cx="1006.2" cy="496.3" r="4.8"/>
<path class="st28" d="M1000.4,504.3c0,1.6-1.3,2.9-2.9,2.9s-2.9-1.3-2.9-2.9c0-1.6,1.3-2.9,2.9-2.9
	C999.1,501.4,1000.4,502.7,1000.4,504.3L1000.4,504.3z"/>
<circle class="st28" cx="384.8" cy="474.5" r="4.8"/>
<path class="st28" d="M379,482.5c0,1.6-1.3,2.9-2.9,2.9s-2.9-1.3-2.9-2.9s1.3-2.9,2.9-2.9S379,480.9,379,482.5L379,482.5z"/>
<circle class="st28" cx="300.8" cy="435" r="4.8"/>
<path class="st28" d="M295,443c0,1.6-1.3,2.9-2.9,2.9s-2.9-1.3-2.9-2.9s1.3-2.9,2.9-2.9S295,441.4,295,443L295,443z"/>
<circle class="st24" cx="902.3" cy="470.7" r="3"/>
<path class="st24" d="M898.7,475.8c0,1-0.8,1.8-1.8,1.8c-1,0-1.8-0.8-1.8-1.8c0-1,0.8-1.8,1.8-1.8
	C897.9,473.9,898.7,474.7,898.7,475.8C898.7,475.7,898.7,475.7,898.7,475.8z"/>
<path class="st15" d="M1054.1,481.8c-0.3-9.7,7.2-17.8,16.9-18.1c9.7-0.3,17.8,7.2,18.1,16.9c0,0.4,0,0.8,0,1.2c0,0.1,0,0.2,0,0.2
	h-35C1054.1,481.9,1054.1,481.9,1054.1,481.8z"/>
<g>
	<path class="st24" d="M1082.3,481.8c0,0.1,0,0.2,0,0.2h6.8v-0.2c0-9.7-7.8-17.5-17.5-17.5c-1.1,0-2.3,0.1-3.4,0.3
		C1076.4,466.2,1082.3,473.4,1082.3,481.8z"/>
</g>
<circle class="st24" cx="1064.5" cy="471.2" r="3"/>
<circle class="st24" cx="1059.1" cy="476.2" r="1.8"/>
<path class="st15" d="M1087.8,481.8c-0.2-7.9,6-14.4,13.9-14.6c7.9-0.2,14.4,6,14.6,13.9c0,0.3,0,0.5,0,0.8v0.2h-28.5
	C1087.8,481.9,1087.8,481.9,1087.8,481.8z"/>
<g>
	<path class="st24" d="M1110.8,481.8c0,0.1,0,0.1,0,0.2h5.6v-0.2c0-7.9-6.4-14.3-14.3-14.3c-0.9,0-1.9,0.1-2.8,0.3
		C1106,469.2,1110.8,475,1110.8,481.8z"/>
</g>
<circle class="st24" cx="1096.1" cy="473.4" r="2.2"/>
<circle class="st24" cx="1092.1" cy="477" r="1.3"/>
<path class="st15" d="M1241.4,591.7v82.6h-102.6v-82.6c0-15.6,12.7-28.3,28.3-28.3h46C1228.7,563.4,1241.3,576.1,1241.4,591.7z"/>
<path class="st16" d="M1233.8,598v76.3h-58.6v-46c0-5.9,4.4-10.8,9.8-10.8s9.8,4.9,9.8,10.8v21c0,6,4.4,10.8,9.8,10.8
	s9.8-4.8,9.8-10.8V598c0-5.9,4.4-10.8,9.8-10.8S1233.8,592.1,1233.8,598z"/>
<path class="st16" d="M1190.3,563.4c-15.6,0.1-28.2,12.7-28.3,28.3v82.6h-23.2v-82.6c0-15.6,12.7-28.3,28.3-28.3H1190.3z"/>
<path class="st15" d="M784.1,763.1c0-9-7.3-16.3-16.3-16.3s-16.3,7.3-16.3,16.3c0,0.1,0,0.2,0,0.2h32.6
	C784.1,763.3,784.1,763.2,784.1,763.1z"/>
<path class="st19" d="M777.8,763.2c0,0.1,0,0.2,0,0.2h6.3v-0.2c0-9-7.3-16.3-16.3-16.3c-1.1,0-2.1,0.1-3.2,0.3
	C772.3,748.7,777.8,755.4,777.8,763.2z"/>
<circle class="st29" cx="762.5" cy="752.9" r="3.5"/>
<circle class="st29" cx="756.2" cy="758.7" r="2.1"/>
<path class="st28" d="M950.2,553.8c0,3.1-2.2,5.7-5,5.7s-5-2.5-5-5.7v-50.6c0-3.1,2.2-5.7,5-5.7s5,2.5,5,5.7V553.8z"/>
<path class="st28" d="M324.3,523.1c0,3.1-2.2,5.7-5,5.7s-5-2.5-5-5.7v-50.6c0-3.1,2.2-5.7,5-5.7s5,2.5,5,5.7V523.1z"/>
<path class="st28" d="M1132.8,550c0,3.1-2.2,5.7-5,5.7s-5-2.5-5-5.7v-50.6c0-3.1,2.2-5.7,5-5.7s5,2.5,5,5.7V550z"/>
<path class="st28" d="M507.8,524.5c0,3.1-2.2,5.7-5,5.7s-5-2.5-5-5.7v-50.6c0-3.1,2.2-5.7,5-5.7s5,2.5,5,5.7V524.5z"/>
<path class="st15" d="M1135.8,674.1c-0.3-11.7,9-21.3,20.7-21.6c11.7-0.3,21.3,9,21.6,20.7c0,0.3,0,0.6,0,0.9c0,0.1,0,0.2,0,0.3
	h-42.2C1135.8,674.3,1135.8,674.2,1135.8,674.1z"/>
<g>
	<path class="st19" d="M1169.9,674.1c0,0.1,0,0.2,0,0.3h8.2v-0.3c0-11.6-9.4-21.1-21.1-21.1c-1.4,0-2.8,0.1-4.1,0.4
		C1162.8,655.4,1169.9,664.1,1169.9,674.1z"/>
</g>
<circle class="st29" cx="1148.4" cy="661.4" r="3.6"/>
<path class="st29" d="M1144,667.4c0,1.2-1,2.2-2.2,2.2c-1.2,0-2.2-1-2.2-2.2c0-1.2,1-2.2,2.2-2.2C1143,665.2,1144,666.2,1144,667.4
	C1144,667.4,1144,667.4,1144,667.4z"/>
<path class="st15" d="M1182.5,674c0-9.5,7.7-17.2,17.2-17.2c9.5,0,17.2,7.7,17.2,17.2v0.2h-34.4
	C1182.5,674.2,1182.5,674.1,1182.5,674z"/>
<g>
	<path class="st19" d="M1210.2,674c0,0.1,0,0.2,0,0.2h6.7V674c0-9.5-7.7-17.2-17.2-17.2c-1.1,0-2.2,0.1-3.3,0.3
		C1204.5,658.7,1210.2,665.8,1210.2,674z"/>
</g>
<circle class="st29" cx="1192.5" cy="663.9" r="2.6"/>
<circle class="st29" cx="1187.7" cy="668.2" r="1.6"/>
<path class="st19" d="M1193.4,916.9v-91.5c0-9.3,6.9-16.9,15.3-16.9s15.3,7.6,15.3,16.9v32.9c0,9.3,6.9,16.9,15.4,16.9
	s15.3-7.6,15.3-16.9v-80.4c0-9.3,6.9-16.9,15.3-16.9s15.4,7.6,15.4,16.9V900c0,9.3-6.9,16.9-15.4,16.9L1193.4,916.9z"/>
<path class="st15" d="M1353.3,833.3v83.8h-114.8v-83.8c0-15.6,12.7-28.3,28.3-28.3h58.2C1340.6,805,1353.2,817.6,1353.3,833.3z"/>
<path class="st16" d="M1293.4,804.9c-15.6,0-28.3,12.7-28.3,28.3v83.8h-26.6v-83.8c0-15.6,12.7-28.3,28.3-28.3H1293.4z"/>
<g class="st17">
	<path class="st16" d="M606.8,770c0-3.1,2.2-5.7,5-5.7s5,2.5,5,5.7v77.5c0,3.1-2.2,5.7-5,5.7s-5-2.5-5-5.7V770z"/>
</g>
<circle class="st18" cx="611.7" cy="746.5" r="6.5"/>
<path class="st19" d="M1345.2,837.2v79.9h-68v-44.8c0-6.9,5.1-12.5,11.3-12.5s11.3,5.6,11.3,12.5v24.3c0,6.9,5.1,12.5,11.3,12.5
	s11.3-5.6,11.3-12.5v-59.4c0-6.9,5.1-12.5,11.3-12.5S1345.2,830.3,1345.2,837.2z"/>
<path class="st15" d="M1322.1,805.2c0-11-9-20-20-20s-20,9-20,20c0,0.1,0,0.2,0,0.3h39.9C1322,805.4,1322.1,805.3,1322.1,805.2z"/>
<path class="st19" d="M1314.3,805.2c0,0.1,0,0.2,0,0.3h7.8v-0.3c0-11-9-20-20-20c-1.3,0-2.6,0.1-3.9,0.4
	C1307.6,787.4,1314.3,795.6,1314.3,805.2z"/>
<circle class="st16" cx="1295.6" cy="792.6" r="4.2"/>
<circle class="st16" cx="1287.9" cy="799.7" r="2.6"/>
<path class="st15" d="M1385.2,861.2c0-8-6.5-14.5-14.5-14.5s-14.5,6.5-14.5,14.5c0,0.1,0,0.1,0,0.2h29
	C1385.2,861.3,1385.2,861.2,1385.2,861.2z"/>
<path class="st19" d="M1379.6,861.2c0,0.1,0,0.1,0,0.2h5.6v-0.2c0-8-6.5-14.5-14.5-14.5c-0.9,0-1.9,0.1-2.8,0.3
	C1374.7,848.3,1379.6,854.3,1379.6,861.2z"/>
<circle class="st16" cx="1366" cy="852.1" r="3.1"/>
<circle class="st16" cx="1360.4" cy="857.2" r="1.9"/>
<path class="st14" d="M838.2,897.9h1c1.8-2.2,3.8-4.2,6.2-5.9c9.7-7,22.9-7,32.6,0h0c3.3-5.4,9.1-8.7,15.4-8.8h0.1
	c0-1.3-0.1-2.7-0.1-4.1c0-28.4,21.9-51.5,49-51.5c16.7,0,31.4,8.8,40.3,22.2c4.3-2.6,9.3-4,14.3-4c15.6,0,28.2,13,28.9,29.2
	c2.6-1.5,5.6-2.2,8.6-2.2c6.9,0.1,13.2,4,16.2,10.3c2.6-0.6,5.2-1,7.8-1c17.9,0,32.5,15.3,32.5,34.2c0,0.3-0.1,0.7-0.1,1h-271
	C820,906.4,828.2,897.9,838.2,897.9z"/>
<g class="st17">
	<path class="st16" d="M712.1,812.5c0-3.1,2.2-5.7,5-5.7s5,2.5,5,5.7V890c0,3.1-2.2,5.7-5,5.7s-5-2.5-5-5.7V812.5z"/>
</g>
<circle class="st18" cx="717" cy="789" r="6.5"/>
<path class="st14" d="M132.6,183.9c-0.2-3.7,1.8-5.7,5.3-5.7h24.3c3.3,0,5,2,5.7,5.5c1.3,9.9,6.8,13.8,17.1,13.8
	c12.1,0,17.5-5.5,17.5-14.9V80.6c0-3.5,2-5.5,5.5-5.5h24.1c3.5,0,5.5,2,5.5,5.5v101.9c0,33.8-25.4,49.1-52.6,49.1
	C159.1,231.6,135,217.8,132.6,183.9z"/>
<path class="st14" d="M392.1,228.6h-27c-3.1,0-5.3-1.3-6.1-4.6l-5.8-19.5h-53.7l-5.8,19.5c-0.9,3.3-3.1,4.6-6.1,4.6h-27
	c-4,0-5.9-2.2-4.6-6.1l46.5-142.7c0.7-2.9,3.4-4.8,6.4-4.6h35.1c3-0.2,5.6,1.7,6.4,4.6l46.5,142.7C398,226.4,396,228.6,392.1,228.6z
	 M343.5,171.6l-17.2-58.1l-17.2,58.1L343.5,171.6z"/>
<path class="st14" d="M527.8,136.6c15.5,8.5,25.4,24.3,25.4,43.7c0,27.6-20.6,48.2-48.4,48.2h-77.6c-3.5,0-5.5-2-5.5-5.5V80.6
	c0-3.5,2-5.5,5.5-5.5h59.2c27,0,47.1,18,47.1,42.7C533.4,124.6,531.4,131.1,527.8,136.6L527.8,136.6z M456.7,108v21.9H494
	c2.8-2.5,4.3-6.1,4.4-9.9c0-7.2-4.8-12.1-12-12.1L456.7,108z M518.1,178.1c0-9.9-5-17.5-17.5-17.5h-43.8v35.1h43.6
	C513,195.7,518.1,188,518.1,178.1L518.1,178.1z"/>
<path class="st14" d="M702.2,228.6h-27c-3.1,0-5.3-1.3-6.1-4.6l-5.8-19.5h-53.7l-5.8,19.5c-0.9,3.3-3.1,4.6-6.1,4.6h-27
	c-4,0-5.9-2.2-4.6-6.1l46.5-142.7c0.7-2.9,3.4-4.8,6.4-4.6H654c3-0.2,5.6,1.7,6.4,4.6l46.4,142.7
	C708.1,226.4,706.1,228.6,702.2,228.6z M653.6,171.6l-17.2-58.1l-17.2,58.1H653.6z"/>
<path class="st14" d="M819.5,200.3v22.8c0,3.5-2,5.5-5.5,5.5h-76.7c-3.5,0-5.5-2-5.5-5.5V80.6c0-3.5,2-5.5,5.5-5.5h24.1
	c3.5,0,5.5,2,5.5,5.5v114.2H814C817.5,194.8,819.5,196.8,819.5,200.3z"/>
<path class="st14" d="M956.4,127.8c0,29.2-23.5,52.6-53.7,52.6h-23v42.7c0,3.5-2,5.5-5.5,5.5h-24.1c-3.5,0-5.5-2-5.5-5.5V80.6
	c0-3.5,2-5.5,5.5-5.5h52.6C933,75.2,956.4,98.6,956.4,127.8z M921.4,127.8c0-11.2-7.9-19.7-18.6-19.7h-23v39.4h23
	C913.5,147.5,921.4,138.9,921.4,127.8L921.4,127.8z"/>
<path class="st14" d="M980.5,181.2V80.6c0-3.5,2-5.5,5.5-5.5h24.1c3.5,0,5.5,2,5.5,5.5v97.5c0,11.6,5.5,19.3,21.9,19.3
	c16.4,0,21.9-7.7,21.9-19.3V80.6c0-3.5,2-5.5,5.5-5.5h24.1c3.5,0,5.5,2,5.5,5.5v100.6c0,32.9-25.4,50.4-57,50.4
	S980.5,214.1,980.5,181.2z"/>
<path class="st14" d="M1252.6,221.8c2.8,3.5,1.3,6.8-3.3,6.8h-28.1c-2.7,0.2-5.3-1.1-6.8-3.3l-37.3-47.1h-13.5v44.9
	c0,3.5-2,5.5-5.5,5.5H1134c-3.5,0-5.5-2-5.5-5.5V80.6c0-3.5,2-5.5,5.5-5.5h53.7c29-0.1,52.5,23.4,52.6,52.4c0,0.1,0,0.2,0,0.2
	c0,18.4-10.9,35.2-27.1,44L1252.6,221.8L1252.6,221.8z M1163.6,147.5h24.1c9.6,0,17.5-8.6,17.5-19.7s-7.9-19.8-17.5-19.8h-24.1
	L1163.6,147.5z"/>
<path class="st0" d="M135.2,187.9c-0.2-3.7,1.8-5.7,5.3-5.7h24.3c3.3,0,5,2,5.7,5.5c1.3,9.9,6.8,13.8,17.1,13.8
	c12.1,0,17.5-5.5,17.5-14.9V84.6c0-3.5,2-5.5,5.5-5.5h24.1c3.5,0,5.5,2,5.5,5.5v101.9c0,33.8-25.4,49.1-52.6,49.1
	C161.7,235.6,137.6,221.8,135.2,187.9z"/>
<path class="st0" d="M394.7,232.6h-27c-3.1,0-5.3-1.3-6.1-4.6l-5.8-19.5H302l-5.7,19.5c-0.9,3.3-3.1,4.6-6.1,4.6h-27
	c-4,0-5.9-2.2-4.6-6.1L305,83.8c0.7-2.9,3.4-4.8,6.4-4.6h35.1c3-0.2,5.6,1.7,6.4,4.6l46.5,142.7
	C400.6,230.4,398.6,232.6,394.7,232.6z M346.1,175.6l-17.2-58.1l-17.2,58.1H346.1z"/>
<path class="st0" d="M530.4,140.6c15.5,8.5,25.4,24.3,25.4,43.7c0,27.6-20.6,48.2-48.4,48.2h-77.6c-3.5,0-5.5-2-5.5-5.5V84.6
	c0-3.5,2-5.5,5.5-5.5h59.2c27,0,47.1,18,47.1,42.7C536,128.6,534,135.1,530.4,140.6L530.4,140.6z M459.3,112v21.9h37.3
	c2.8-2.5,4.3-6.1,4.4-9.9c0-7.2-4.8-12.1-12-12.1L459.3,112z M520.7,182.1c0-9.9-5-17.5-17.5-17.5h-43.8v35.1H503
	C515.7,199.7,520.7,192,520.7,182.1L520.7,182.1z"/>
<path class="st0" d="M704.8,232.6h-27c-3.1,0-5.3-1.3-6.1-4.6l-5.7-19.5h-53.8l-5.8,19.5c-0.9,3.3-3.1,4.6-6.1,4.6h-27
	c-4,0-5.9-2.2-4.6-6.1l46.5-142.7c0.7-2.9,3.4-4.8,6.4-4.6h35.1c3-0.2,5.6,1.7,6.4,4.6l46.5,142.7
	C710.7,230.4,708.8,232.6,704.8,232.6z M656.2,175.6l-17.2-58.1l-17.2,58.1L656.2,175.6z"/>
<path class="st0" d="M822.1,204.3v22.8c0,3.5-2,5.5-5.5,5.5h-76.7c-3.5,0-5.5-2-5.5-5.5V84.6c0-3.5,2-5.5,5.5-5.5H764
	c3.5,0,5.5,2,5.5,5.5v114.2h47.1C820.1,198.8,822.1,200.8,822.1,204.3z"/>
<path class="st0" d="M959.1,131.8c0,29.1-23.5,52.6-53.7,52.6h-23v42.7c0,3.5-2,5.5-5.5,5.5h-24.1c-3.5,0-5.5-2-5.5-5.5V84.6
	c0-3.5,2-5.5,5.5-5.5h52.6C935.6,79.2,959.1,102.6,959.1,131.8z M924,131.8c0-11.2-7.9-19.7-18.6-19.7h-23v39.4h23
	C916.1,151.5,924,142.9,924,131.8L924,131.8z"/>
<path class="st0" d="M983.2,185.2V84.6c0-3.5,2-5.5,5.5-5.5h24.1c3.5,0,5.5,2,5.5,5.5v97.5c0,11.6,5.5,19.3,21.9,19.3
	c16.4,0,21.9-7.7,21.9-19.3V84.6c0-3.5,2-5.5,5.5-5.5h24.1c3.5,0,5.5,2,5.5,5.5v100.6c0,32.9-25.4,50.4-57,50.4
	S983.2,218.1,983.2,185.2z"/>
<path class="st0" d="M1255.2,225.8c2.8,3.5,1.3,6.8-3.3,6.8h-28.1c-2.7,0.2-5.3-1.1-6.8-3.3l-37.3-47.1h-13.5v44.9
	c0,3.5-2,5.5-5.5,5.5h-24.1c-3.5,0-5.5-2-5.5-5.5V84.6c0-3.5,2-5.5,5.5-5.5h53.7c29-0.1,52.5,23.4,52.6,52.4c0,0.1,0,0.2,0,0.2
	c0,18.4-10.9,35.2-27.1,44L1255.2,225.8L1255.2,225.8z M1166.2,151.5h24.1c9.6,0,17.5-8.6,17.5-19.7s-7.9-19.8-17.5-19.8h-24.1
	L1166.2,151.5z"/>
<path class="st7" d="M139,190.9c-0.2-3.7,1.8-5.7,5.3-5.7h24.3c3.3,0,5,2,5.7,5.5c1.3,9.9,6.8,13.8,17.1,13.8
	c12.1,0,17.5-5.5,17.5-14.9V87.6c0-3.5,2-5.5,5.5-5.5h24.1c3.5,0,5.5,2,5.5,5.5v101.9c0,33.8-25.4,49.1-52.6,49.1
	C165.6,238.6,141.5,224.8,139,190.9z"/>
<path class="st7" d="M398.6,235.6h-27c-3.1,0-5.3-1.3-6.1-4.6l-5.8-19.5h-53.7l-5.8,19.5c-0.9,3.3-3.1,4.6-6.1,4.6h-27
	c-4,0-5.9-2.2-4.6-6.1l46.5-142.7c0.7-2.9,3.4-4.8,6.4-4.6h35.1c3-0.2,5.6,1.7,6.4,4.6l46.5,142.7
	C404.5,233.4,402.5,235.6,398.6,235.6z M350,178.6l-17.2-58.1l-17.2,58.1L350,178.6z"/>
<path class="st7" d="M534.3,143.6c15.5,8.5,25.4,24.3,25.4,43.7c0,27.6-20.6,48.2-48.4,48.2h-77.6c-3.5,0-5.5-2-5.5-5.5V87.6
	c0-3.5,2-5.5,5.5-5.5h59.2c27,0,47.1,18,47.1,42.7C539.9,131.6,537.9,138.1,534.3,143.6L534.3,143.6z M463.2,115v21.9h37.3
	c2.8-2.5,4.3-6.1,4.4-9.9c0-7.2-4.8-12.1-12-12.1L463.2,115z M524.6,185.1c0-9.9-5-17.5-17.5-17.5h-43.8v35.1h43.6
	C519.5,202.7,524.6,195,524.6,185.1L524.6,185.1z"/>
<path class="st7" d="M708.7,235.6h-27c-3.1,0-5.3-1.3-6.1-4.6l-5.8-19.5H616l-5.7,19.5c-0.9,3.3-3.1,4.6-6.1,4.6h-27
	c-4,0-5.9-2.2-4.6-6.1L619,86.8c0.7-2.9,3.4-4.8,6.4-4.6h35.1c3-0.2,5.6,1.7,6.4,4.6l46.5,142.7
	C714.6,233.4,712.6,235.6,708.7,235.6z M660.1,178.6l-17.2-58.1l-17.2,58.1H660.1z"/>
<path class="st7" d="M826,207.3v22.8c0,3.5-2,5.5-5.5,5.5h-76.8c-3.5,0-5.5-2-5.5-5.5V87.6c0-3.5,2-5.5,5.5-5.5h24.1
	c3.5,0,5.5,2,5.5,5.5v114.2h47.1C824,201.8,826,203.8,826,207.3z"/>
<path class="st7" d="M962.9,134.8c0,29.1-23.5,52.6-53.7,52.6h-23v42.7c0,3.5-2,5.5-5.5,5.5h-24.1c-3.5,0-5.5-2-5.5-5.5V87.6
	c0-3.5,2-5.5,5.5-5.5h52.6C939.5,82.2,962.9,105.6,962.9,134.8z M927.9,134.8c0-11.2-7.9-19.7-18.6-19.7h-23v39.4h23
	C920,154.5,927.9,145.9,927.9,134.8L927.9,134.8z"/>
<path class="st7" d="M987,188.2V87.6c0-3.5,2-5.5,5.5-5.5h24.1c3.5,0,5.5,2,5.5,5.5v97.5c0,11.6,5.5,19.3,21.9,19.3
	s21.9-7.7,21.9-19.3V87.6c0-3.5,2-5.5,5.5-5.5h24.1c3.5,0,5.5,2,5.5,5.5v100.6c0,32.9-25.4,50.4-57,50.4S987,221.1,987,188.2z"/>
<path class="st7" d="M1259,228.8c2.8,3.5,1.3,6.8-3.3,6.8h-28.1c-2.7,0.2-5.3-1.1-6.8-3.3l-37.3-47.1H1170v44.9c0,3.5-2,5.5-5.5,5.5
	h-24.1c-3.5,0-5.5-2-5.5-5.5V87.6c0-3.5,2-5.5,5.5-5.5h53.7c29-0.1,52.5,23.4,52.6,52.4c0,0.1,0,0.2,0,0.2c0,18.4-10.9,35.2-27.1,44
	L1259,228.8L1259,228.8z M1170,154.5h24.1c9.6,0,17.5-8.6,17.5-19.7s-7.8-19.8-17.5-19.8h-24.1L1170,154.5z"/>
<g>
	<path class="st11" d="M640,312.3c-0.5-1-1-2-1.5-3h0.1l1.5,3H640z"/>
	<g>
		<path class="st3" d="M266.9,346.1c-6.7,0.8-12.1,6.3-12.6,13.3c0,0.3,0,0.7,0,1c-6.1,1.3-10.9,6.5-11.3,13.1c-0.1,0.8,0,1.5,0,2.3
			c-2.1,2.3-3.5,5.4-3.7,8.7c-0.3,5.1,2,9.7,5.8,12.5c-0.8,1.5-1.2,3.1-1.3,4.8c-0.5,6.9,4.7,12.8,11.6,13.3c0,0,0,0,0,0
			c1.7,4.3,5.8,7.5,10.7,7.9c4.7,0.3,9-2.1,11.4-5.8c0.1,0,0.2,0,0.2,0C284.4,393.3,271.5,357.5,266.9,346.1z"/>
		<path class="st3" d="M298.7,388.3c0.4-5.7-2.6-10.9-7.3-13.5c0.2-0.8,0.3-1.6,0.4-2.4c0.4-6.3-3.3-12-8.9-14.3
			c-1.1-6.4-6.4-11.6-13.2-12c-0.9-0.1-1.8,0-2.7,0.1c4.5,11.4,17.4,47.2,10.8,71.2c0.2,0,0.4,0,0.7,0.1c8.3,0.6,15.5-5.7,16.1-14.1
			c0.1-1.8-0.1-3.6-0.6-5.2C296.7,395.6,298.5,392.2,298.7,388.3z"/>
		<g>
			<polygon class="st3" points="267.2,395.9 253.8,387.6 266.6,401.9 260.4,457.4 269,457.5 269.5,375.6 			"/>
			<polygon class="st3" points="271.2,391.9 284.4,377 270.7,385.5 269.8,372.9 269.5,375.6 269,457.5 275.8,457.6 			"/>
		</g>
	</g>
	<g>
		<g>
			<path class="st3" d="M302.5,367.8c-5.5,0.7-9.8,5.1-10.2,10.8c0,0.3,0,0.5,0,0.8c-5,1.1-8.8,5.3-9.2,10.6c0,0.6,0,1.3,0,1.9
				c-1.7,1.9-2.9,4.3-3,7.1c-0.3,4.1,1.6,7.9,4.7,10.2c-0.6,1.2-1,2.5-1.1,3.9c-0.4,5.6,3.8,10.4,9.4,10.8c0,0,0,0,0,0
				c1.4,3.5,4.7,6.1,8.7,6.4c3.8,0.3,7.3-1.7,9.2-4.7c0.1,0,0.1,0,0.2,0C316.7,406.1,306.2,377.1,302.5,367.8z"/>
			<path class="st3" d="M328.3,402c0.3-4.6-2.1-8.8-5.9-11c0.2-0.6,0.3-1.3,0.3-2c0.3-5.2-2.7-9.7-7.2-11.6
				c-0.9-5.2-5.2-9.4-10.7-9.7c-0.7,0-1.5,0-2.2,0.1c3.7,9.2,14.2,38.3,8.7,57.7c0.2,0,0.4,0,0.5,0.1c6.8,0.5,12.6-4.7,13.1-11.4
				c0.1-1.5-0.1-2.9-0.5-4.2C326.6,408,328.1,405.2,328.3,402z"/>
		</g>
		<g>
			<polygon class="st3" points="300.9,407.6 290,400.8 300.4,412.4 295.3,457.4 302.4,457.5 302.8,391.1 			"/>
			<polygon class="st3" points="304.1,404.3 314.9,392.2 303.7,399.1 303,388.9 302.8,391.1 302.4,457.5 307.9,457.6 			"/>
		</g>
	</g>
	<g>
		<g>
			<path class="st3" d="M467.1,382.1c-4.6,0.6-8.3,4.3-8.6,9.1c0,0.2,0,0.5,0,0.7c-4.2,0.9-7.4,4.5-7.7,8.9c0,0.5,0,1.1,0,1.6
				c-1.5,1.6-2.4,3.7-2.6,6c-0.2,3.5,1.4,6.6,4,8.5c-0.5,1-0.8,2.1-0.9,3.3c-0.3,4.7,3.2,8.7,7.9,9c0,0,0,0,0,0c1.2,3,4,5.1,7.3,5.4
				c3.2,0.2,6.2-1.4,7.8-4c0.1,0,0.1,0,0.2,0C479,414.3,470.2,389.9,467.1,382.1z"/>
			<path class="st3" d="M488.8,410.9c0.3-3.9-1.8-7.4-5-9.2c0.1-0.5,0.2-1.1,0.3-1.6c0.3-4.3-2.3-8.2-6.1-9.7
				c-0.7-4.4-4.4-7.9-9-8.2c-0.6,0-1.2,0-1.8,0.1c3.1,7.8,11.9,32.2,7.3,48.5c0.1,0,0.3,0,0.5,0c5.7,0.4,10.6-3.9,11-9.6
				c0.1-1.2-0.1-2.4-0.4-3.5C487.4,415.9,488.6,413.6,488.8,410.9z"/>
		</g>
		<g>
			<polygon class="st3" points="465.8,415.5 456.6,409.9 465.3,419.6 461.1,457.4 467,457.5 467.3,401.7 			"/>
			<polygon class="st3" points="468.5,412.8 477.5,402.7 468.1,408.5 467.5,399.8 467.3,401.7 467,457.5 471.6,457.6 			"/>
		</g>
	</g>
	<g>
		<path class="st3" d="M330.1,338.5c-7.2,0.9-13,6.7-13.5,14.2c0,0.4,0,0.7,0,1.1c-6.5,1.4-11.6,7-12.1,14c-0.1,0.8,0,1.7,0,2.5
			c-2.3,2.5-3.8,5.7-4,9.3c-0.4,5.4,2.1,10.4,6.2,13.4c-0.8,1.6-1.3,3.3-1.4,5.2c-0.5,7.3,5.1,13.7,12.4,14.2c0,0,0,0,0,0
			c1.8,4.6,6.2,8,11.5,8.4c5.1,0.3,9.6-2.2,12.2-6.2c0.1,0,0.2,0,0.2,0C348.7,388.9,334.9,350.6,330.1,338.5z"/>
		<path class="st3" d="M364,383.5c0.4-6.1-2.8-11.6-7.8-14.4c0.2-0.8,0.3-1.7,0.4-2.6c0.5-6.8-3.6-12.8-9.5-15.3
			c-1.1-6.9-6.9-12.4-14.1-12.8c-1-0.1-1.9,0-2.9,0.1c4.9,12.2,18.6,50.4,11.5,76c0.2,0,0.5,0.1,0.7,0.1c8.9,0.6,16.6-6.1,17.2-15
			c0.1-1.9-0.1-3.8-0.6-5.6C361.8,391.4,363.8,387.7,364,383.5z"/>
		<g>
			<polygon class="st3" points="330.4,391.7 316,382.8 329.7,398.1 323,457.4 332.3,457.5 332.8,370 			"/>
			<polygon class="st3" points="334.6,387.4 348.7,371.5 334.1,380.6 333.1,367.1 332.8,370 332.3,457.5 339.6,457.6 			"/>
		</g>
	</g>
	<g>
		<path class="st3" d="M404.8,382.6c-4.5,0.5-8.2,4.2-8.5,9c0,0.2,0,0.5,0,0.7c-4.1,0.9-7.3,4.4-7.6,8.8c0,0.5,0,1,0,1.5
			c-1.4,1.6-2.4,3.6-2.5,5.9c-0.2,3.4,1.3,6.5,3.9,8.4c-0.5,1-0.8,2.1-0.9,3.3c-0.3,4.6,3.2,8.6,7.8,8.9c0,0,0,0,0,0
			c1.2,2.9,3.9,5.1,7.2,5.3c3.2,0.2,6.1-1.4,7.7-3.9c0.1,0,0.1,0,0.2,0C416.5,414.4,407.8,390.3,404.8,382.6z"/>
		<path class="st3" d="M426.2,410.9c0.3-3.8-1.8-7.3-4.9-9.1c0.1-0.5,0.2-1.1,0.2-1.6c0.3-4.3-2.2-8.1-6-9.6
			c-0.7-4.3-4.3-7.8-8.9-8.1c-0.6,0-1.2,0-1.8,0c3.1,7.7,11.7,31.8,7.2,47.9c0.1,0,0.3,0,0.4,0c5.6,0.4,10.5-3.9,10.8-9.5
			c0.1-1.2-0.1-2.4-0.4-3.5C424.8,415.9,426,413.6,426.2,410.9z"/>
		<g>
			<polygon class="st3" points="405,416.1 396,410.5 404.5,420.1 400.4,457.4 406.2,457.5 406.5,402.5 			"/>
			<polygon class="st3" points="407.6,413.4 416.5,403.4 407.3,409.1 406.7,400.6 406.5,402.5 406.2,457.5 410.8,457.6 			"/>
		</g>
	</g>
	<g>
		<path class="st3" d="M362.9,303.3c-9.3,1.1-16.8,8.7-17.5,18.4c0,0.5,0,0.9,0,1.4c-8.5,1.8-15.1,9.1-15.7,18.1
			c-0.1,1.1-0.1,2.1,0,3.2c-2.9,3.2-4.9,7.4-5.2,12.1c-0.5,7,2.8,13.5,8.1,17.4c-1,2-1.7,4.3-1.9,6.7c-0.6,9.5,6.5,17.7,16,18.3
			c0,0,0,0,0,0c2.4,6,8,10.4,14.9,10.9c6.5,0.4,12.5-2.8,15.8-8c0.1,0,0.2,0,0.3,0C387.1,368.6,369.2,319,362.9,303.3z"/>
		<path class="st3" d="M407,361.6c0.5-7.9-3.6-15.1-10.1-18.7c0.3-1.1,0.4-2.2,0.5-3.3c0.6-8.8-4.6-16.6-12.4-19.8
			c-1.5-8.9-8.9-16-18.3-16.6c-1.3-0.1-2.5,0-3.7,0.1c6.3,15.8,24.2,65.4,14.9,98.5c0.3,0,0.6,0.1,0.9,0.1
			c11.5,0.8,21.5-7.9,22.3-19.5c0.2-2.5-0.1-4.9-0.8-7.2C404.1,371.8,406.6,367,407,361.6z"/>
		<g>
			<polygon class="st3" points="363.3,372.2 344.8,360.7 362.4,380.5 353.8,457.3 365.8,457.5 366.5,344.1 			"/>
			<polygon class="st3" points="368.8,366.7 387.1,346.1 368.2,357.8 366.9,340.3 366.5,344.1 365.8,457.5 375.2,457.6 			"/>
		</g>
	</g>
	<g>
		<g>
			<path class="st3" d="M435.5,323.7c-8.1,1-14.7,7.6-15.3,16.1c0,0.4,0,0.8,0,1.2c-7.4,1.6-13.2,7.9-13.7,15.8
				c-0.1,0.9,0,1.9,0,2.8c-2.6,2.8-4.3,6.5-4.5,10.6c-0.4,6.2,2.4,11.8,7,15.2c-0.9,1.8-1.5,3.8-1.6,5.9c-0.6,8.3,5.7,15.5,14,16
				c0,0,0,0,0,0c2.1,5.2,7,9.1,13,9.5c5.7,0.4,10.9-2.5,13.8-7c0.1,0,0.2,0,0.3,0C456.6,380.8,441,337.5,435.5,323.7z"/>
			<path class="st3" d="M474,374.7c0.5-6.9-3.2-13.2-8.9-16.4c0.2-0.9,0.4-1.9,0.4-2.9c0.5-7.7-4-14.5-10.8-17.3
				c-1.3-7.8-7.8-14-16-14.5c-1.1-0.1-2.2,0-3.3,0.1c5.5,13.8,21.1,57.1,13,86.1c0.3,0,0.5,0.1,0.8,0.1c10.1,0.7,18.8-7,19.5-17
				c0.1-2.2-0.1-4.3-0.7-6.3C471.4,383.6,473.7,379.4,474,374.7z"/>
		</g>
		<g>
			<polygon class="st3" points="433.1,382.9 416.9,372.9 432.3,390.2 424.8,457.3 435.3,457.5 435.9,358.4 			"/>
			<polygon class="st3" points="437.9,378.1 453.9,360.1 437.3,370.4 436.3,355 435.9,358.4 435.3,457.5 443.5,457.6 			"/>
		</g>
	</g>
	<path class="st4" d="M269,346.1c-6.7,0.8-12.1,6.3-12.6,13.3c0,0.3,0,0.7,0,1c-6.1,1.3-10.9,6.5-11.3,13.1c-0.1,0.8,0,1.5,0,2.3
		c-2.1,2.3-3.5,5.4-3.7,8.7c-0.3,5.1,2,9.7,5.8,12.5c-0.8,1.5-1.2,3.1-1.3,4.8c-0.5,6.9,4.7,12.8,11.6,13.3c0,0,0,0,0,0
		c1.7,4.3,5.8,7.5,10.7,7.9c4.7,0.3,9-2.1,11.4-5.8c0.1,0,0.2,0,0.2,0C286.4,393.3,273.5,357.5,269,346.1z"/>
	<path class="st5" d="M300.8,388.3c0.4-5.7-2.6-10.9-7.3-13.5c0.2-0.8,0.3-1.6,0.4-2.4c0.4-6.3-3.3-12-8.9-14.3
		c-1.1-6.4-6.4-11.6-13.2-12c-0.9-0.1-1.8,0-2.7,0.1c4.5,11.4,17.4,47.2,10.8,71.2c0.2,0,0.4,0,0.7,0.1c8.3,0.6,15.5-5.7,16.1-14.1
		c0.1-1.8-0.1-3.6-0.6-5.2C298.7,395.6,300.5,392.2,300.8,388.3z"/>
	<g>
		<polygon class="st6" points="269.2,395.9 255.8,387.6 268.6,401.9 262.4,457.4 271,457.5 271.5,375.6 		"/>
		<polygon class="st6" points="273.2,391.9 286.4,377 272.7,385.5 271.8,372.9 271.5,375.6 271,457.5 277.8,457.6 		"/>
	</g>
	<path class="st7" d="M304.5,367.8c-5.5,0.7-9.8,5.1-10.2,10.8c0,0.3,0,0.5,0,0.8c-5,1.1-8.8,5.3-9.2,10.6c0,0.6,0,1.3,0,1.9
		c-1.7,1.9-2.9,4.3-3,7.1c-0.3,4.1,1.6,7.9,4.7,10.2c-0.6,1.2-1,2.5-1.1,3.9c-0.4,5.6,3.8,10.4,9.4,10.8c0,0,0,0,0,0
		c1.4,3.5,4.7,6.1,8.7,6.4c3.8,0.3,7.3-1.7,9.2-4.7c0.1,0,0.1,0,0.2,0C318.7,406.1,308.2,377.1,304.5,367.8z"/>
	<path class="st8" d="M330.3,402c0.3-4.6-2.1-8.8-5.9-11c0.2-0.6,0.3-1.3,0.3-2c0.3-5.2-2.7-9.7-7.2-11.6c-0.9-5.2-5.2-9.4-10.7-9.7
		c-0.7,0-1.5,0-2.2,0.1c3.7,9.2,14.2,38.3,8.7,57.7c0.2,0,0.4,0,0.5,0.1c6.8,0.5,12.6-4.7,13.1-11.4c0.1-1.5-0.1-2.9-0.5-4.2
		C328.6,408,330.1,405.2,330.3,402z"/>
	<g>
		<polygon class="st6" points="302.9,407.6 292.1,400.8 302.4,412.4 297.4,457.4 304.4,457.5 304.8,391.1 		"/>
		<polygon class="st6" points="306.1,404.3 316.9,392.2 305.8,399.1 305,388.9 304.8,391.1 304.4,457.5 309.9,457.6 		"/>
	</g>
	<path class="st7" d="M469.1,382.1c-4.6,0.6-8.3,4.3-8.6,9.1c0,0.2,0,0.5,0,0.7c-4.2,0.9-7.4,4.5-7.7,8.9c0,0.5,0,1.1,0,1.6
		c-1.5,1.6-2.4,3.7-2.6,6c-0.2,3.5,1.4,6.6,4,8.5c-0.5,1-0.8,2.1-0.9,3.3c-0.3,4.7,3.2,8.7,7.9,9c0,0,0,0,0,0c1.2,3,4,5.1,7.3,5.4
		c3.2,0.2,6.2-1.4,7.8-4c0.1,0,0.1,0,0.2,0C481,414.3,472.2,389.9,469.1,382.1z"/>
	<path class="st8" d="M490.8,410.9c0.3-3.9-1.8-7.4-5-9.2c0.1-0.5,0.2-1.1,0.3-1.6c0.3-4.3-2.3-8.2-6.1-9.7c-0.7-4.4-4.4-7.9-9-8.2
		c-0.6,0-1.2,0-1.8,0.1c3.1,7.8,11.9,32.2,7.3,48.5c0.1,0,0.3,0,0.5,0c5.7,0.4,10.6-3.9,11-9.6c0.1-1.2-0.1-2.4-0.4-3.5
		C489.4,415.9,490.6,413.6,490.8,410.9z"/>
	<g>
		<polygon class="st6" points="467.8,415.5 458.7,409.9 467.3,419.6 463.1,457.4 469,457.5 469.3,401.7 		"/>
		<polygon class="st6" points="470.5,412.8 479.5,402.7 470.2,408.5 469.6,399.8 469.3,401.7 469,457.5 473.7,457.6 		"/>
	</g>
	<path class="st4" d="M332.1,338.5c-7.2,0.9-13,6.7-13.5,14.2c0,0.4,0,0.7,0,1.1c-6.5,1.4-11.6,7-12.1,14c-0.1,0.8,0,1.7,0,2.5
		c-2.3,2.5-3.8,5.7-4,9.3c-0.4,5.4,2.1,10.4,6.2,13.4c-0.8,1.6-1.3,3.3-1.4,5.2c-0.5,7.3,5.1,13.7,12.4,14.2c0,0,0,0,0,0
		c1.8,4.6,6.2,8,11.5,8.4c5.1,0.3,9.6-2.2,12.2-6.2c0.1,0,0.2,0,0.2,0C350.7,388.9,336.9,350.6,332.1,338.5z"/>
	<path class="st5" d="M366.1,383.5c0.4-6.1-2.8-11.6-7.8-14.4c0.2-0.8,0.3-1.7,0.4-2.6c0.5-6.8-3.6-12.8-9.5-15.3
		c-1.1-6.9-6.9-12.4-14.1-12.8c-1-0.1-1.9,0-2.9,0.1c4.9,12.2,18.6,50.4,11.5,76c0.2,0,0.5,0.1,0.7,0.1c8.9,0.6,16.6-6.1,17.2-15
		c0.1-1.9-0.1-3.8-0.6-5.6C363.8,391.4,365.8,387.7,366.1,383.5z"/>
	<g>
		<polygon class="st6" points="332.4,391.7 318.1,382.8 331.7,398.1 325,457.4 334.3,457.5 334.8,370 		"/>
		<polygon class="st6" points="336.6,387.4 350.7,371.5 336.1,380.6 335.1,367.1 334.8,370 334.3,457.5 341.6,457.6 		"/>
	</g>
	<path class="st9" d="M406.8,382.6c-4.5,0.5-8.2,4.2-8.5,9c0,0.2,0,0.5,0,0.7c-4.1,0.9-7.3,4.4-7.6,8.8c0,0.5,0,1,0,1.5
		c-1.4,1.6-2.4,3.6-2.5,5.9c-0.2,3.4,1.3,6.5,3.9,8.4c-0.5,1-0.8,2.1-0.9,3.3c-0.3,4.6,3.2,8.6,7.8,8.9c0,0,0,0,0,0
		c1.2,2.9,3.9,5.1,7.2,5.3c3.2,0.2,6.1-1.4,7.7-3.9c0.1,0,0.1,0,0.2,0C418.5,414.4,409.9,390.3,406.8,382.6z"/>
	<path class="st10" d="M428.2,410.9c0.3-3.8-1.8-7.3-4.9-9.1c0.1-0.5,0.2-1.1,0.2-1.6c0.3-4.3-2.2-8.1-6-9.6
		c-0.7-4.3-4.3-7.8-8.9-8.1c-0.6,0-1.2,0-1.8,0c3.1,7.7,11.7,31.8,7.2,47.9c0.1,0,0.3,0,0.4,0c5.6,0.4,10.5-3.9,10.8-9.5
		c0.1-1.2-0.1-2.4-0.4-3.5C426.8,415.9,428,413.6,428.2,410.9z"/>
	<g>
		<polygon class="st6" points="407,416.1 398,410.5 406.6,420.1 402.4,457.4 408.2,457.5 408.5,402.5 		"/>
		<polygon class="st6" points="409.6,413.4 418.6,403.4 409.3,409.1 408.7,400.6 408.5,402.5 408.2,457.5 412.8,457.6 		"/>
	</g>
	<path class="st7" d="M364.9,303.3c-9.3,1.1-16.8,8.7-17.5,18.4c0,0.5,0,0.9,0,1.4c-8.5,1.8-15.1,9.1-15.7,18.1
		c-0.1,1.1-0.1,2.1,0,3.2c-2.9,3.2-4.9,7.4-5.2,12.1c-0.5,7,2.8,13.5,8.1,17.4c-1,2-1.7,4.3-1.9,6.7c-0.6,9.5,6.5,17.7,16,18.3
		c0,0,0,0,0,0c2.4,6,8,10.4,14.9,10.9c6.5,0.4,12.5-2.8,15.8-8c0.1,0,0.2,0,0.3,0C389.1,368.6,371.2,319,364.9,303.3z"/>
	<path class="st8" d="M409,361.6c0.5-7.9-3.6-15.1-10.1-18.7c0.3-1.1,0.4-2.2,0.5-3.3c0.6-8.8-4.6-16.6-12.4-19.8
		c-1.5-8.9-8.9-16-18.3-16.6c-1.3-0.1-2.5,0-3.7,0.1c6.3,15.8,24.2,65.4,14.9,98.5c0.3,0,0.6,0.1,0.9,0.1
		c11.5,0.8,21.5-7.9,22.3-19.5c0.2-2.5-0.1-4.9-0.8-7.2C406.1,371.8,408.6,367,409,361.6z"/>
	<g>
		<polygon class="st6" points="365.4,372.2 346.8,360.7 364.4,380.5 355.8,457.3 367.8,457.5 368.5,344.1 		"/>
		<polygon class="st6" points="370.8,366.7 389.1,346.1 370.2,357.8 368.9,340.3 368.5,344.1 367.8,457.5 377.3,457.6 		"/>
	</g>
	<path class="st4" d="M437.5,323.7c-8.1,1-14.7,7.6-15.3,16.1c0,0.4,0,0.8,0,1.2c-7.4,1.6-13.2,7.9-13.7,15.8c-0.1,0.9,0,1.9,0,2.8
		c-2.6,2.8-4.3,6.5-4.5,10.6c-0.4,6.2,2.4,11.8,7,15.2c-0.9,1.8-1.5,3.8-1.6,5.9c-0.6,8.3,5.7,15.5,14,16c0,0,0,0,0,0
		c2.1,5.2,7,9.1,13,9.5c5.7,0.4,10.9-2.5,13.8-7c0.1,0,0.2,0,0.3,0C458.6,380.8,443,337.5,437.5,323.7z"/>
	<path class="st5" d="M476,374.7c0.5-6.9-3.2-13.2-8.9-16.4c0.2-0.9,0.4-1.9,0.4-2.9c0.5-7.7-4-14.5-10.8-17.3
		c-1.3-7.8-7.8-14-16-14.5c-1.1-0.1-2.2,0-3.3,0.1c5.5,13.8,21.1,57.1,13,86.1c0.3,0,0.5,0.1,0.8,0.1c10.1,0.7,18.8-7,19.5-17
		c0.1-2.2-0.1-4.3-0.7-6.3C473.5,383.6,475.7,379.4,476,374.7z"/>
	<g>
		<polygon class="st6" points="435.1,382.9 418.9,372.9 434.3,390.2 426.8,457.3 437.3,457.5 437.9,358.4 		"/>
		<polygon class="st6" points="439.9,378.1 455.9,360.1 439.4,370.4 438.3,355 437.9,358.4 437.3,457.5 445.6,457.6 		"/>
	</g>
	<path class="st11" d="M376.7,312.3c-0.5-1-1-2-1.5-3h0.1l1.5,3H376.7z"/>
	<g>
		<path class="st3" d="M488.9,303.3c-9.3,1.1-16.8,8.7-17.5,18.4c0,0.5,0,0.9,0,1.4c-8.5,1.8-15.1,9.1-15.7,18.1
			c-0.1,1.1-0.1,2.1,0,3.2c-2.9,3.2-4.9,7.4-5.2,12.1c-0.5,7,2.8,13.5,8.1,17.4c-1,2-1.7,4.3-1.9,6.7c-0.6,9.5,6.5,17.7,16,18.3
			c0,0,0,0,0,0c2.4,6,8,10.4,14.9,10.9c6.5,0.4,12.5-2.8,15.8-8c0.1,0,0.2,0,0.3,0C513.1,368.6,495.2,319,488.9,303.3z"/>
		<path class="st3" d="M532.9,361.6c0.5-7.9-3.6-15.1-10.1-18.7c0.3-1.1,0.4-2.2,0.5-3.3c0.6-8.8-4.6-16.6-12.4-19.8
			c-1.5-8.9-8.9-16-18.3-16.6c-1.3-0.1-2.5,0-3.7,0.1c6.3,15.8,24.2,65.4,14.9,98.5c0.3,0,0.6,0.1,0.9,0.1
			c11.5,0.8,21.5-7.9,22.3-19.5c0.2-2.5-0.1-4.9-0.8-7.2C530,371.8,532.6,367,532.9,361.6z"/>
		<g>
			<polygon class="st3" points="489.3,372.2 470.7,360.7 488.4,380.5 479.8,457.3 491.8,457.5 492.4,344.1 			"/>
			<polygon class="st3" points="494.8,366.7 513.1,346.1 494.1,357.8 492.9,340.3 492.4,344.1 491.8,457.5 501.2,457.6 			"/>
		</g>
	</g>
	<path class="st7" d="M490.9,303.3c-9.3,1.1-16.8,8.7-17.5,18.4c0,0.5,0,0.9,0,1.4c-8.5,1.8-15.1,9.1-15.7,18.1
		c-0.1,1.1-0.1,2.1,0,3.2c-2.9,3.2-4.9,7.4-5.2,12.1c-0.5,7,2.8,13.5,8.1,17.4c-1,2-1.7,4.3-1.9,6.7c-0.6,9.5,6.5,17.7,16,18.3
		c0,0,0,0,0,0c2.4,6,8,10.4,14.9,10.9c6.5,0.4,12.5-2.8,15.8-8c0.1,0,0.2,0,0.3,0C515.1,368.6,497.2,319,490.9,303.3z"/>
	<path class="st8" d="M535,361.6c0.5-7.9-3.6-15.1-10.1-18.7c0.3-1.1,0.4-2.2,0.5-3.3c0.6-8.8-4.6-16.6-12.4-19.8
		c-1.5-8.9-8.9-16-18.3-16.6c-1.3-0.1-2.5,0-3.7,0.1c6.3,15.8,24.2,65.4,14.9,98.5c0.3,0,0.6,0.1,0.9,0.1
		c11.5,0.8,21.5-7.9,22.3-19.5c0.2-2.5-0.1-4.9-0.8-7.2C532.1,371.8,534.6,367,535,361.6z"/>
	<g>
		<polygon class="st6" points="491.3,372.2 472.8,360.7 490.4,380.5 481.8,457.3 493.8,457.5 494.5,344.1 		"/>
		<polygon class="st6" points="496.8,366.7 515.1,346.1 496.1,357.8 494.9,340.3 494.5,344.1 493.8,457.5 503.2,457.6 		"/>
	</g>
</g>
</svg>
