<svg xmlns="http://www.w3.org/2000/svg" viewBox="0 0 1400.92 917.07"><defs><style>.cls-1{isolation:isolate;}.cls-2{fill:#f6d3a4;}.cls-3{fill:#fa969a;}.cls-3,.cls-4,.cls-5,.cls-6{opacity:0.7;}.cls-4{fill:#fe7694;}.cls-5{fill:#f9668e;}.cls-6{fill:#fe3d83;}.cls-7{fill:#fff;}.cls-16,.cls-31,.cls-8{fill:#aba1a0;}.cls-11,.cls-17,.cls-27,.cls-9{fill:#ddd2ce;}.cls-10,.cls-11,.cls-29,.cls-31{opacity:0.5;}.cls-10,.cls-11,.cls-12,.cls-14,.cls-16,.cls-27,.cls-29,.cls-31{mix-blend-mode:multiply;}.cls-12,.cls-15,.cls-29{fill:#b3b3bc;}.cls-13{fill:#868693;}.cls-17,.cls-19,.cls-22,.cls-33{mix-blend-mode:soft-light;}.cls-18{fill:#7fbf89;}.cls-20{fill:#e8e061;}.cls-21{fill:#99bc5d;}.cls-22{fill:#c4c4ce;}.cls-23{fill:#62b7b7;}.cls-24{fill:#24453b;}.cls-25{fill:#3f5d44;}.cls-26{fill:#478361;}.cls-28{fill:#f9f4ef;}.cls-30,.cls-33{fill:#e7ffab;}.cls-32{fill:#5a5a6b;}.cls-34{fill:#c9c9c9;}.cls-35{fill:#33918a;}</style></defs><title>Asset 2</title><g class="cls-1"><g id="Layer_2" data-name="Layer 2"><g id="Layer_1-2" data-name="Layer 1"><rect class="cls-2" y="733.59" width="1400.92" height="183.4"/><rect class="cls-2" width="1400.92" height="916.99"/><rect class="cls-3" y="550.19" width="1400.92" height="183.4"/><rect class="cls-4" y="366.8" width="1400.92" height="183.4"/><rect class="cls-5" y="183.4" width="1400.92" height="183.4"/><rect class="cls-6" width="1400.92" height="183.4"/><path class="cls-7" d="M137.66,278.12l-12.4,45.11a1.81,1.81,0,0,1-1.94,1.46h-8.87a1.8,1.8,0,0,1-1.94-1.46L107,303.34l-5.48,19.89a1.8,1.8,0,0,1-1.94,1.46H90.75a1.8,1.8,0,0,1-1.94-1.46L76.4,278.12c-.34-1.25.21-1.94,1.46-1.94H86a1.76,1.76,0,0,1,1.87,1.53l8,32.43,6.42-24-2.2-8c-.34-1.25.21-1.94,1.46-1.94h6.73a1.76,1.76,0,0,1,1.87,1.53l8,32.43,8-32.43a1.76,1.76,0,0,1,1.87-1.53h8.11C137.46,276.18,138,276.87,137.66,278.12Z"/><path class="cls-7" d="M178.44,277.91v45a1.57,1.57,0,0,1-1.73,1.73h-7.62a1.57,1.57,0,0,1-1.73-1.73V305.08H153.5V323a1.57,1.57,0,0,1-1.73,1.73h-7.62a1.57,1.57,0,0,1-1.73-1.73v-45a1.57,1.57,0,0,1,1.73-1.73h7.62a1.57,1.57,0,0,1,1.73,1.73V294.4h13.86V277.91a1.57,1.57,0,0,1,1.73-1.73h7.62A1.57,1.57,0,0,1,178.44,277.91Z"/><path class="cls-7" d="M215.89,315.75V323a1.57,1.57,0,0,1-1.73,1.73H188.52a1.57,1.57,0,0,1-1.73-1.73v-45a1.57,1.57,0,0,1,1.73-1.73h25.3a1.57,1.57,0,0,1,1.73,1.73v7.21a1.57,1.57,0,0,1-1.73,1.73H197.87V295h14.21a1.57,1.57,0,0,1,1.73,1.73v6.93a1.57,1.57,0,0,1-1.73,1.73H197.87V314h16.28A1.57,1.57,0,0,1,215.89,315.75Z"/><path class="cls-7" d="M260.33,324.69h-8.87a2.43,2.43,0,0,1-2.15-1l-11.8-14.9h-4.27V323a1.57,1.57,0,0,1-1.73,1.73h-7.62a1.57,1.57,0,0,1-1.73-1.73v-45a1.57,1.57,0,0,1,1.73-1.74h17a16.59,16.59,0,0,1,16.63,16.63,16,16,0,0,1-8.58,13.9l12.46,15.83C262.27,323.65,261.79,324.69,260.33,324.69ZM233.24,299h7.62c3,0,5.54-2.7,5.54-6.24s-2.49-6.24-5.54-6.24h-7.62Z"/><path class="cls-7" d="M294.94,315.75V323a1.57,1.57,0,0,1-1.73,1.73H267.57a1.57,1.57,0,0,1-1.73-1.73v-45a1.57,1.57,0,0,1,1.73-1.73h25.3a1.57,1.57,0,0,1,1.73,1.73v7.21a1.57,1.57,0,0,1-1.73,1.73H276.92V295h14.21a1.57,1.57,0,0,1,1.73,1.73v6.93a1.57,1.57,0,0,1-1.73,1.73H276.92V314h16.28A1.57,1.57,0,0,1,294.94,315.75Z"/><path class="cls-7" d="M345.9,276.18h7.62a1.57,1.57,0,0,1,1.73,1.73v45a1.57,1.57,0,0,1-1.73,1.73h-5.2a2.41,2.41,0,0,1-2.15-1.11l-16.56-25.92V323a1.57,1.57,0,0,1-1.73,1.73h-7.62a1.57,1.57,0,0,1-1.73-1.73v-45a1.57,1.57,0,0,1,1.73-1.73h5.2a2.41,2.41,0,0,1,2.15,1.11l16.56,25.92v-25.3A1.57,1.57,0,0,1,345.9,276.18Z"/><path class="cls-7" d="M403.1,324.69h-8.52a1.8,1.8,0,0,1-1.94-1.46l-1.82-6.17h-17L372,323.23a1.8,1.8,0,0,1-1.94,1.46h-8.53c-1.25,0-1.87-.69-1.45-1.94l14.69-45.11a1.94,1.94,0,0,1,2-1.46h11.09a1.94,1.94,0,0,1,2,1.46l14.69,45.11C405,324,404.35,324.69,403.1,324.69Zm-15.36-18-5.43-18.36-5.43,18.36Z"/><path class="cls-7" d="M435.69,277.91v7.21a1.57,1.57,0,0,1-1.73,1.73H424.6V323a1.57,1.57,0,0,1-1.73,1.73h-7.62a1.57,1.57,0,0,1-1.73-1.73V286.85h-9.36a1.57,1.57,0,0,1-1.73-1.73v-7.21a1.57,1.57,0,0,1,1.73-1.73H434A1.57,1.57,0,0,1,435.69,277.91Z"/><path class="cls-7" d="M439.87,309.72V277.91a1.57,1.57,0,0,1,1.73-1.73h7.62a1.57,1.57,0,0,1,1.73,1.73v30.84c0,3.67,1.73,6.1,6.93,6.1s6.93-2.43,6.93-6.1V277.91a1.57,1.57,0,0,1,1.73-1.73h7.62a1.57,1.57,0,0,1,1.73,1.73v31.81c0,10.4-8,15.94-18,15.94S439.87,320.11,439.87,309.72Z"/><path class="cls-7" d="M521.74,324.69h-8.87a2.43,2.43,0,0,1-2.15-1l-11.8-14.9h-4.27V323a1.57,1.57,0,0,1-1.73,1.73h-7.62a1.57,1.57,0,0,1-1.73-1.73v-45a1.57,1.57,0,0,1,1.73-1.74h17a16.59,16.59,0,0,1,16.63,16.63,16,16,0,0,1-8.58,13.9l12.46,15.83C523.68,323.65,523.19,324.69,521.74,324.69ZM494.64,299h7.62c3,0,5.54-2.7,5.54-6.24s-2.49-6.24-5.54-6.24h-7.62Z"/><path class="cls-7" d="M556.34,315.75V323a1.57,1.57,0,0,1-1.73,1.73H529a1.57,1.57,0,0,1-1.73-1.73v-45a1.57,1.57,0,0,1,1.73-1.73h25.3a1.57,1.57,0,0,1,1.73,1.73v7.21a1.57,1.57,0,0,1-1.73,1.73H538.32V295h14.21a1.57,1.57,0,0,1,1.73,1.73v6.93a1.57,1.57,0,0,1-1.73,1.73H538.32V314h16.28A1.57,1.57,0,0,1,556.34,315.75Z"/><path class="cls-7" d="M624.28,300.43c0,13.72-10.19,24.26-23.56,24.26H581.66a1.57,1.57,0,0,1-1.73-1.73v-45a1.57,1.57,0,0,1,1.73-1.73h19.06C614.1,276.18,624.28,286.71,624.28,300.43Zm-10.67,0c0-8.31-5.27-13.58-12.89-13.58H591V314h9.7C608.34,314,613.61,308.75,613.61,300.43Z"/><path class="cls-7" d="M659.65,315.75V323a1.57,1.57,0,0,1-1.73,1.73H632.28a1.57,1.57,0,0,1-1.73-1.73v-45a1.57,1.57,0,0,1,1.73-1.73h25.3a1.57,1.57,0,0,1,1.73,1.73v7.21a1.57,1.57,0,0,1-1.73,1.73H641.64V295h14.21a1.57,1.57,0,0,1,1.73,1.73v6.93a1.57,1.57,0,0,1-1.73,1.73H641.64V314h16.28A1.57,1.57,0,0,1,659.65,315.75Z"/><path class="cls-7" d="M663.48,300.43c0-14.28,10.6-25.23,25.23-25.23,11.09,0,20.51,6.93,23.36,17a1.44,1.44,0,0,1-1.53,1.94h-8.18a2,2,0,0,1-1.94-1.39c-1.94-4.23-6.44-6.79-11.71-6.79-8.59,0-14.14,5.75-14.14,14.41s5.55,14.41,14.14,14.41c5.26,0,9.77-2.56,11.71-6.79a2,2,0,0,1,1.94-1.39h8.18c1.18,0,1.81.69,1.53,1.8-2.7,10.12-12.2,17.19-23.36,17.19C674.09,325.66,663.48,314.71,663.48,300.43Z"/><path class="cls-7" d="M719.09,276.18h7.62a1.57,1.57,0,0,1,1.73,1.73v45a1.57,1.57,0,0,1-1.73,1.73h-7.62a1.57,1.57,0,0,1-1.73-1.73v-45A1.57,1.57,0,0,1,719.09,276.18Z"/><path class="cls-7" d="M781.12,300.43c0,13.72-10.19,24.26-23.56,24.26H738.5a1.57,1.57,0,0,1-1.73-1.73v-45a1.57,1.57,0,0,1,1.73-1.73h19.06C770.94,276.18,781.12,286.71,781.12,300.43Zm-10.67,0c0-8.31-5.27-13.58-12.89-13.58h-9.7V314h9.7C765.18,314,770.45,308.75,770.45,300.43Z"/><path class="cls-7" d="M816.49,315.75V323a1.57,1.57,0,0,1-1.73,1.73H789.12a1.57,1.57,0,0,1-1.73-1.73v-45a1.57,1.57,0,0,1,1.73-1.73h25.3a1.57,1.57,0,0,1,1.73,1.73v7.21a1.57,1.57,0,0,1-1.73,1.73H798.48V295h14.21a1.57,1.57,0,0,1,1.73,1.73v6.93a1.57,1.57,0,0,1-1.73,1.73H798.48V314h16.28A1.57,1.57,0,0,1,816.49,315.75Z"/><path class="cls-7" d="M820,311.24a1.56,1.56,0,0,1,1.73-1.8h7.62c1,0,1.59.56,1.8,1.66.55,2.49,2.64,3.74,6.72,3.74,4.51,0,6-1.73,6-3.74,0-2.84-3.46-4.09-7.7-5.54-6.86-2.36-15.52-5.2-15.52-15.8,0-9.7,7.9-14.55,16.15-14.55s15.87,4.37,16.7,14.41a1.56,1.56,0,0,1-1.73,1.8h-7.62c-1,0-1.6-.55-1.81-1.66-.55-2.56-2.35-3.74-5.54-3.74-3.46,0-5.06,1.73-5.06,3.74,0,2.91,2.84,4.3,6.86,5.75,6.93,2.43,16.36,4.92,16.36,15.59,0,9.7-7.76,14.55-17.05,14.55C828.85,325.66,820.88,321.29,820,311.24Z"/><path class="cls-7" d="M907.67,277.91v7.21a1.57,1.57,0,0,1-1.73,1.73h-9.36V323a1.57,1.57,0,0,1-1.73,1.73h-7.62A1.57,1.57,0,0,1,885.5,323V286.85h-9.36a1.57,1.57,0,0,1-1.73-1.73v-7.21a1.57,1.57,0,0,1,1.73-1.73h29.8A1.57,1.57,0,0,1,907.67,277.91Z"/><path class="cls-7" d="M907.69,300.43a25.23,25.23,0,1,1,25.23,25.23A25,25,0,0,1,907.69,300.43Zm39.36,0c0-8.66-6.24-14.41-14.14-14.41s-14.14,5.75-14.14,14.41,6.24,14.41,14.14,14.41S947.05,309.09,947.05,300.43Z"/><path class="cls-7" d="M979,311.24a1.56,1.56,0,0,1,1.73-1.8h7.62c1,0,1.59.56,1.8,1.66.55,2.49,2.64,3.74,6.72,3.74,4.51,0,6-1.73,6-3.74,0-2.84-3.46-4.09-7.7-5.54-6.86-2.36-15.52-5.2-15.52-15.8,0-9.7,7.91-14.55,16.15-14.55s15.87,4.37,16.7,14.41a1.56,1.56,0,0,1-1.73,1.8h-7.62c-1,0-1.6-.55-1.81-1.66-.55-2.56-2.35-3.74-5.54-3.74-3.46,0-5.06,1.73-5.06,3.74,0,2.91,2.84,4.3,6.86,5.75,6.93,2.43,16.36,4.92,16.36,15.59,0,9.7-7.76,14.55-17.05,14.55C987.85,325.66,979.87,321.29,979,311.24Z"/><path class="cls-7" d="M1055.57,277.91v45a1.57,1.57,0,0,1-1.73,1.73h-7.62a1.57,1.57,0,0,1-1.73-1.73V305.08h-13.86V323a1.57,1.57,0,0,1-1.73,1.73h-7.62a1.57,1.57,0,0,1-1.73-1.73v-45a1.57,1.57,0,0,1,1.73-1.73h7.62a1.57,1.57,0,0,1,1.73,1.73V294.4h13.86V277.91a1.57,1.57,0,0,1,1.73-1.73h7.62A1.57,1.57,0,0,1,1055.57,277.91Z"/><path class="cls-7" d="M1061.83,300.43a25.23,25.23,0,1,1,25.23,25.23A25,25,0,0,1,1061.83,300.43Zm39.36,0c0-8.66-6.24-14.41-14.14-14.41s-14.14,5.75-14.14,14.41,6.24,14.41,14.14,14.41S1101.19,309.09,1101.19,300.43Z"/><path class="cls-7" d="M1174.12,278.12l-12.4,45.11a1.81,1.81,0,0,1-1.94,1.46h-8.87a1.8,1.8,0,0,1-1.94-1.46l-5.47-19.89L1138,323.23a1.8,1.8,0,0,1-1.94,1.46h-8.87a1.8,1.8,0,0,1-1.94-1.46l-12.41-45.11c-.34-1.25.21-1.94,1.46-1.94h8.11a1.76,1.76,0,0,1,1.87,1.53l8,32.43,6.42-24-2.2-8c-.34-1.25.21-1.94,1.46-1.94h6.73a1.76,1.76,0,0,1,1.87,1.53l8,32.43,8-32.43a1.76,1.76,0,0,1,1.87-1.53h8.11C1173.92,276.18,1174.47,276.87,1174.12,278.12Z"/><path class="cls-7" d="M1194.12,300.43a25.23,25.23,0,1,1,25.23,25.23A25,25,0,0,1,1194.12,300.43Zm39.36,0c0-8.66-6.24-14.41-14.14-14.41s-14.14,5.75-14.14,14.41,6.24,14.41,14.14,14.41S1233.49,309.09,1233.49,300.43Z"/><path class="cls-7" d="M1261.93,286.85v10h15.59a1.57,1.57,0,0,1,1.73,1.73v7.21a1.57,1.57,0,0,1-1.73,1.73h-15.59V323a1.57,1.57,0,0,1-1.73,1.73h-7.62a1.57,1.57,0,0,1-1.73-1.73v-45a1.57,1.57,0,0,1,1.73-1.73h25.3a1.57,1.57,0,0,1,1.73,1.73v7.21a1.57,1.57,0,0,1-1.73,1.73Z"/><path class="cls-7" d="M1296.94,286.85v10h15.59a1.57,1.57,0,0,1,1.73,1.73v7.21a1.57,1.57,0,0,1-1.73,1.73h-15.59V323a1.57,1.57,0,0,1-1.73,1.73h-7.62a1.57,1.57,0,0,1-1.73-1.73v-45a1.57,1.57,0,0,1,1.73-1.73h25.3a1.57,1.57,0,0,1,1.73,1.73v7.21a1.57,1.57,0,0,1-1.73,1.73Z"/><path class="cls-8" d="M590.77,514.07V849.53a56.78,56.78,0,0,1-56.62,56.62H262.39A55.92,55.92,0,0,1,232,897.2V466.4a55.92,55.92,0,0,1,30.4-8.95H534.15A56.78,56.78,0,0,1,590.77,514.07Z"/><path class="cls-9" d="M384.17,686.23V637A14.2,14.2,0,0,0,370,622.85H370A14.2,14.2,0,0,0,355.8,637v13.13a14.2,14.2,0,0,1-14.15,14.15h0a14.2,14.2,0,0,1-14.15-14.15v-3.31a14.2,14.2,0,0,0-14.15-14.15h-.06a14.2,14.2,0,0,0-14.15,14.15v.62a14.2,14.2,0,0,1-14.15,14.15h0a14.2,14.2,0,0,1-14.15-14.15V637a14.2,14.2,0,0,0-14.15-14.15H232v76.66H374.74A14.16,14.16,0,0,0,384.17,686.23Z"/><rect class="cls-8" x="103.42" y="674.23" width="224.36" height="242.85" rx="56.62" ry="56.62"/><path class="cls-9" d="M285.54,730.86a56.78,56.78,0,0,0-56.62-56.62h42.24a56.78,56.78,0,0,1,56.62,56.62v101H285.54Z"/><path class="cls-8" d="M.89,889.55c0-15.57,10.55-28.31,23.44-28.31H72.46c12.89,0,23.44,12.74,23.44,28.31v27.53H.89Z"/><path class="cls-9" d="M.95,890.28c0-4.18,2.54-7.59,5.65-7.59h0c3.11,0,5.65,3.41,5.65,7.59v7c0,4.17,2.54,7.59,5.65,7.59h0c3.11,0,5.65-3.41,5.65-7.59v-1.78c0-4.17,2.55-7.59,5.65-7.59h0c3.11,0,5.65,3.41,5.65,7.59v.34c0,4.17,2.54,7.59,5.65,7.59h0c3.11,0,5.65-3.41,5.65-7.59v-5.6c0-4.18,2.54-7.59,5.65-7.59H61.7v33.87H.95Z"/><g class="cls-10"><path class="cls-9" d="M163.64,768.81c0,3.11,2.23,5.66,5,5.66s5-2.55,5-5.66V691.34c0-3.11-2.23-5.66-5-5.66s-5,2.55-5,5.66Z"/></g><circle class="cls-11" cx="168.6" cy="792.33" r="6.5"/><g class="cls-10"><path class="cls-9" d="M252.5,763.7c0-3.11-2.23-5.66-5-5.66s-5,2.55-5,5.66v77.47c0,3.11,2.23,5.66,5,5.66s5-2.55,5-5.66Z"/></g><circle class="cls-11" cx="247.55" cy="740.18" r="6.51"/><path class="cls-8" d="M212.49,563.42a13.68,13.68,0,0,1,27.37,0c0,.06,0,.12,0,.19H212.5C212.5,563.54,212.49,563.48,212.49,563.42Z"/><path class="cls-12" d="M217.81,563.42c0,.06,0,.12,0,.18h-5.32v-.18a13.69,13.69,0,0,1,13.68-13.69,13,13,0,0,1,2.66.26A13.69,13.69,0,0,0,217.81,563.42Z"/><circle class="cls-9" cx="230.64" cy="554.81" r="2.9"/><circle class="cls-9" cx="235.91" cy="559.66" r="1.76"/><path class="cls-13" d="M193.84,563.34a7.9,7.9,0,0,1,15.8,0s0,.07,0,.11H193.84S193.84,563.37,193.84,563.34Z"/><path class="cls-12" d="M196.9,563.34s0,.07,0,.11h-3.07v-.11a7.9,7.9,0,0,1,7.9-7.9,7.44,7.44,0,0,1,1.54.15A7.9,7.9,0,0,0,196.9,563.34Z"/><circle class="cls-9" cx="204.31" cy="558.37" r="1.67"/><path class="cls-9" d="M206.34,561.17a1,1,0,1,0,1-1A1,1,0,0,0,206.34,561.17Z"/><path class="cls-8" d="M165.74,591.67v82.58H268.36V591.67A28.39,28.39,0,0,0,240,563.36H194A28.39,28.39,0,0,0,165.74,591.67Z"/><path class="cls-9" d="M173.35,598v76.26H232v-46c0-5.92-4.42-10.79-9.77-10.79s-9.77,4.87-9.77,10.79v20.95c0,5.95-4.39,10.79-9.77,10.79s-9.77-4.84-9.77-10.79V598c0-5.92-4.39-10.76-9.76-10.76S173.35,592.06,173.35,598Z"/><path class="cls-9" d="M216.84,563.36a28.39,28.39,0,0,1,28.31,28.31v82.58h23.21V591.67A28.39,28.39,0,0,0,240,563.36Z"/><path class="cls-8" d="M271.29,674.1a21.12,21.12,0,1,0-42.23,0c0,.1,0,.19,0,.29h42.22C271.29,674.3,271.29,674.2,271.29,674.1Z"/><g class="cls-14"><path class="cls-15" d="M237.26,674.11c0,.09,0,.19,0,.28h-8.22v-.28A21.13,21.13,0,0,1,250.17,653a19.88,19.88,0,0,1,4.11.41A21.13,21.13,0,0,0,237.26,674.11Z"/></g><circle class="cls-9" cx="258.73" cy="661.37" r="3.63"/><path class="cls-9" d="M263.13,667.44a2.2,2.2,0,1,0,2.2-2.21A2.2,2.2,0,0,0,263.13,667.44Z"/><path class="cls-8" d="M224.58,674a17.19,17.19,0,1,0-34.38,0v.23h34.37C224.58,674.18,224.58,674.11,224.58,674Z"/><g class="cls-14"><path class="cls-15" d="M196.88,674c0,.07,0,.16,0,.23H190.2V674a17.2,17.2,0,0,1,17.18-17.2,16.22,16.22,0,0,1,3.34.33A17.2,17.2,0,0,0,196.88,674Z"/></g><circle class="cls-9" cx="214.66" cy="663.88" r="2.61"/><circle class="cls-9" cx="219.4" cy="668.24" r="1.58"/><path class="cls-9" d="M213.74,916.88V825.36c0-9.31-6.91-16.93-15.33-16.93s-15.34,7.62-15.34,16.93V858.3c0,9.31-6.91,16.94-15.37,16.94s-15.33-7.62-15.33-16.94V777.86c0-9.31-6.91-16.93-15.34-16.93s-15.37,7.62-15.37,16.93V900c0,9.31,6.91,16.93,15.37,16.93Z"/><path class="cls-8" d="M53.84,833.25v83.82H168.6V833.25a28.39,28.39,0,0,0-28.31-28.31H82.14A28.39,28.39,0,0,0,53.84,833.25Z"/><path class="cls-8" d="M113.71,804.94A28.39,28.39,0,0,1,142,833.25v83.82H168.6V833.25a28.39,28.39,0,0,0-28.31-28.31Z"/><path class="cls-9" d="M61.9,837.22v79.86h68V872.29c0-6.88-5.12-12.51-11.32-12.51s-11.32,5.63-11.32,12.51v24.32c0,6.88-5.12,12.51-11.35,12.51s-11.32-5.63-11.32-12.51V837.22c0-6.88-5.1-12.48-11.32-12.48S61.9,830.34,61.9,837.22Z"/><path class="cls-8" d="M85.06,805.18a20,20,0,1,1,40,0c0,.09,0,.18,0,.27H85.07C85.07,805.36,85.06,805.27,85.06,805.18Z"/><path class="cls-16" d="M92.82,805.18c0,.08,0,.19,0,.27H85.06v-.27a20,20,0,0,1,20-20,19,19,0,0,1,3.89.38A20,20,0,0,0,92.82,805.18Z"/><circle class="cls-17" cx="111.55" cy="792.62" r="4.23"/><circle class="cls-17" cx="119.25" cy="799.7" r="2.56"/><path class="cls-8" d="M21.89,861.17a14.49,14.49,0,1,1,29,0c0,.07,0,.13,0,.2h-29C21.89,861.3,21.89,861.23,21.89,861.17Z"/><path class="cls-16" d="M27.51,861.17c0,.06,0,.14,0,.19H21.89v-.19a14.5,14.5,0,0,1,14.48-14.5,13.74,13.74,0,0,1,2.82.28A14.5,14.5,0,0,0,27.51,861.17Z"/><circle class="cls-17" cx="41.1" cy="852.06" r="3.07"/><circle class="cls-17" cx="46.68" cy="857.2" r="1.86"/><path class="cls-8" d="M10.18,861.26a7.46,7.46,0,1,1,14.92,0s0,.07,0,.1H10.19S10.18,861.3,10.18,861.26Z"/><path class="cls-16" d="M13.08,861.27s0,.07,0,.1h-2.9v-.1a7.46,7.46,0,0,1,7.46-7.46,7.2,7.2,0,0,1,1.45.14A7.46,7.46,0,0,0,13.08,861.27Z"/><circle class="cls-17" cx="20.08" cy="856.57" r="1.58"/><circle class="cls-17" cx="22.95" cy="859.22" r="0.96"/><path class="cls-18" d="M959.17,456.75l-8.75.29c3.19-8.94,6.73-17.82,10.48-26.61l-6.91.07c3.78-9,7.8-17.83,11.91-26.61l-6.76-.09c3.55-7.57,7.19-15.08,10.82-22.51l-7.17-.23c5.77-11.62,11.56-23.06,17-34.36,4.07,11.9,8.81,23.71,13.85,35.36l-7.18-.24c3.17,7.55,6.48,15,9.86,22.44l-6.77-.09c3.9,8.7,7.9,17.3,11.85,25.83l-6.91.07c3.92,8.46,7.83,16.83,11.55,25.12l-10.63.35c4.62,10,9,19.89,13,29.7H949.94C952.55,475.71,955.66,466.19,959.17,456.75Z"/><g class="cls-19"><path class="cls-20" d="M950,485.26c2.6-9.55,5.71-19.06,9.22-28.52l-8.76.3c3.19-8.95,6.72-17.82,10.48-26.61l-6.89.08c3.78-9,7.8-17.84,11.9-26.61-2.25,0-4.5-.05-6.75-.11,3.54-7.56,7.18-15.06,10.83-22.48l-7.18-.24c5.76-11.6,11.58-23,17-34.36.59,1.72,1.18,3.43,1.79,5.12-4.34,8.82-8.82,17.71-13.29,26.69l7.18.24Q970,389.9,964.66,401.27l6.75.08c-4.1,8.76-8.12,17.63-11.9,26.61l6.91-.08c-3.75,8.79-7.32,17.66-10.48,26.61,2.92-.08,5.81-.19,8.74-.29-3.51,9.46-6.62,19-9.22,28.52h51.93c.38.86.72,1.69,1.07,2.55Z"/></g><path class="cls-21" d="M490.47,441.66c2.68.33,5.34,1.54,8.08,1.26,3.92-.4,6.42-3.85,9.26-6.16a16.51,16.51,0,0,1,10.51-3.89c11.24,0,20.35,11,20.35,24.59H476.94c-.23,0,.7-5.28.83-5.71,1.36-4.54,4.9-9.22,9.83-10.06A9.77,9.77,0,0,1,490.47,441.66Z"/><path class="cls-21" d="M985.5,466.63c2.68.33,5.34,1.54,8.08,1.25,3.92-.4,6.42-3.85,9.26-6.16a16.5,16.5,0,0,1,10.51-3.89c11.24,0,20.35,11,20.35,24.59H972c-.23,0,.7-5.28.83-5.71,1.36-4.54,4.9-9.22,9.83-10.06A9.77,9.77,0,0,1,985.5,466.63Z"/><path class="cls-9" d="M448.21,708.49V632c0-7.78,5.77-14.15,12.82-14.15s12.82,6.37,12.82,14.15v27.55c0,7.78,5.78,14.15,12.85,14.15s12.82-6.37,12.82-14.15V592.26c0-7.78,5.78-14.15,12.82-14.15s12.85,6.37,12.85,14.15V694.34c0,7.78-5.78,14.15-12.85,14.15Z"/><path class="cls-8" d="M1148,873.59V538.13a56.78,56.78,0,0,0-56.62-56.62H819.62A56.78,56.78,0,0,0,763,538.13V873.59a56.53,56.53,0,0,0,20.13,43.17h344.73A56.52,56.52,0,0,0,1148,873.59Z"/><path class="cls-8" d="M1055.17,744.82V653.3c0-9.31,6.91-16.93,15.33-16.93s15.34,7.62,15.34,16.93v32.94c0,9.31,6.91,16.94,15.37,16.94s15.33-7.62,15.33-16.94V605.8c0-9.31,6.91-16.93,15.34-16.93s15.37,7.62,15.37,16.93V727.89c0,9.31-6.91,16.93-15.37,16.93Z"/><path class="cls-9" d="M847.47,916.76H784.2a56.52,56.52,0,0,1-20.13-43.17V538.13a56.78,56.78,0,0,1,56.62-56.62H884a56.78,56.78,0,0,0-56.62,56.62V873.59A56.52,56.52,0,0,0,847.47,916.76Z"/><rect class="cls-9" x="1079.34" y="674.23" width="224.36" height="242.85" rx="56.62" ry="56.62"/><path class="cls-22" d="M1121.58,730.86a56.78,56.78,0,0,1,56.62-56.62H1136a56.78,56.78,0,0,0-56.62,56.62v101h42.24Z"/><path class="cls-23" d="M812.36,904.37a56.56,56.56,0,0,1-8.24.59H580.26a56.78,56.78,0,0,1-56.62-56.62V537a56.78,56.78,0,0,1,56.62-56.62H804.13a56.56,56.56,0,0,1,8.24.59A56.81,56.81,0,0,0,764,537V848.35A56.81,56.81,0,0,0,812.36,904.37Z"/><g class="cls-19"><path class="cls-7" d="M686.46,738.34V661.82c0-7.78,5.78-14.15,12.82-14.15s12.82,6.37,12.82,14.15v27.55c0,7.78,5.77,14.15,12.85,14.15s12.82-6.37,12.82-14.15V622.11c0-7.78,5.78-14.15,12.82-14.15s12.85,6.37,12.85,14.15V724.19c0,7.78-5.77,14.15-12.85,14.15Z"/></g><path class="cls-24" d="M1067,447.64l11.39.37c-4.14-11.65-8.75-23.2-13.64-34.65l9,.09c-4.91-11.67-10.15-23.22-15.5-34.65l8.81-.11c-4.62-9.86-9.36-19.63-14.09-29.3l9.34-.3c-7.5-15.13-15.05-30-22.17-44.75-5.3,15.49-11.47,30.87-18,46l9.35-.3c-4.13,9.82-8.45,19.56-12.84,29.21l8.81-.11c-5.08,11.33-10.29,22.53-15.43,33.63l9,.09c-5.11,11-10.19,21.91-15,32.71l13.84.46c-6,13-11.77,25.9-17,38.68H1079C1075.6,472.33,1071.54,459.94,1067,447.64Z"/><g class="cls-19"><path class="cls-20" d="M1002.77,484.77c5.21-12.79,10.94-25.65,17-38.7-4.6-.14-9.21-.29-13.84-.45,4.87-10.79,9.94-21.7,15-32.7-3-.05-6-.08-9-.1,5.16-11.1,10.37-22.31,15.44-33.62-2.95,0-5.87.05-8.81.1,4.39-9.65,8.71-19.39,12.84-29.23l-9.34.32c6.58-15.18,12.73-30.57,18-46.06l3.87,8c-4.34,11.73-9.1,23.41-14.1,35l9.34-.31c-4.13,9.84-8.44,19.57-12.84,29.22l8.81-.1c-5.08,11.34-10.28,22.54-15.44,33.62l9,.1c-5.1,11-10.18,21.91-15,32.7l13.84.47c-6,13-11.76,25.89-17,38.67h67.5c.31,1.05.6,2.08.89,3.13Z"/></g><path class="cls-18" d="M407.45,433.16l-7.65.25c2.78-7.81,5.88-15.56,9.16-23.25l-6,.06c3.3-7.83,6.81-15.58,10.4-23.24l-5.91-.07c3.1-6.61,6.29-13.17,9.46-19.66l-6.27-.2c5-10.15,10.1-20.15,14.88-30,3.55,10.39,7.69,20.71,12.1,30.89l-6.27-.21c2.77,6.59,5.66,13.13,8.61,19.61l-5.91-.07c3.41,7.6,6.9,15.11,10.35,22.56l-6,.06c3.43,7.39,6.84,14.7,10.09,21.95l-9.29.31c4,8.74,7.89,17.38,11.39,25.95H399.39C401.66,449.73,404.39,441.42,407.45,433.16Z"/><g class="cls-19"><path class="cls-20" d="M399.4,458.07c2.27-8.34,5-16.65,8.05-24.91l-7.65.26c2.79-7.82,5.87-15.57,9.15-23.25l-6,.07c3.3-7.84,6.81-15.59,10.39-23.25-2,0-3.93,0-5.9-.09,3.09-6.6,6.27-13.16,9.46-19.64l-6.27-.21c5-10.14,10.11-20.13,14.87-30,.51,1.5,1,3,1.57,4.47-3.79,7.7-7.7,15.47-11.61,23.32l6.28.21q-4.78,9.73-9.46,19.67l5.9.07c-3.58,7.65-7.09,15.4-10.39,23.25l6-.07c-3.28,7.68-6.39,15.43-9.15,23.24,2.55-.07,5.08-.16,7.63-.26-3.07,8.26-5.78,16.58-8.05,24.91h45.37c.33.75.63,1.47.94,2.23Z"/></g><path class="cls-18" d="M325.23,439.77l-5.62.19c2-5.74,4.32-11.44,6.73-17.08l-4.43,0c2.42-5.75,5-11.45,7.65-17.08l-4.34-.05c2.28-4.86,4.62-9.68,6.95-14.44l-4.6-.15c3.7-7.46,7.42-14.8,10.93-22.05,2.61,7.64,5.65,15.22,8.89,22.7l-4.61-.15c2,4.84,4.16,9.65,6.33,14.41l-4.34-.06c2.5,5.58,5.07,11.11,7.61,16.58l-4.43,0c2.52,5.43,5,10.81,7.41,16.13l-6.82.22c3,6.42,5.8,12.77,8.37,19.07H319.31C321,451.95,323,445.83,325.23,439.77Z"/><g class="cls-19"><path class="cls-20" d="M319.31,458.07c1.67-6.13,3.66-12.23,5.92-18.3l-5.62.19c2-5.74,4.32-11.44,6.73-17.08l-4.42,0c2.43-5.76,5-11.45,7.64-17.08-1.44,0-2.89,0-4.33-.07,2.27-4.85,4.61-9.67,7-14.43l-4.61-.15c3.7-7.45,7.43-14.79,10.92-22.05.38,1.1.76,2.2,1.15,3.29-2.79,5.66-5.66,11.37-8.53,17.13l4.61.15q-3.51,7.14-7,14.45l4.34.05c-2.63,5.62-5.21,11.31-7.64,17.08l4.44-.05c-2.41,5.64-4.7,11.34-6.72,17.08,1.87,0,3.73-.12,5.61-.19-2.25,6.07-4.25,12.18-5.92,18.3h33.33c.24.55.47,1.08.69,1.63Z"/></g><path class="cls-25" d="M330.32,428.25l9.15.3c-3.33-9.35-7-18.64-11-27.83l7.22.07c-3.95-9.37-8.15-18.65-12.46-27.84l7.07-.09c-3.72-7.91-7.53-15.77-11.32-23.54l7.5-.24c-6-12.16-12.1-24.13-17.81-35.94-4.26,12.45-9.21,24.8-14.49,37l7.51-.24c-3.31,7.89-6.78,15.72-10.31,23.47l7.08-.09c-4.08,9.1-8.26,18.1-12.39,27l7.22.07c-4.1,8.85-8.18,17.61-12.08,26.28l11.12.37c-4.83,10.47-9.45,20.81-13.64,31.07H340C337.25,448.09,334,438.13,330.32,428.25Z"/><g class="cls-19"><path class="cls-20" d="M278.74,457.91c4.21-10.26,8.8-20.61,13.65-31.06-3.7-.14-7.43-.25-11.13-.36,3.9-8.69,8-17.44,12.08-26.3-2.41,0-4.82,0-7.2-.06,4.12-8.91,8.3-17.91,12.39-27l-7.09.08c3.53-7.74,7-15.59,10.32-23.46l-7.51.25c5.27-12.2,10.23-24.56,14.49-37,1,2,2,4.06,3,6.11-3.5,9.53-7.37,19-11.41,28.32l7.48-.25c-3.31,7.91-6.78,15.73-10.29,23.46l7.07-.08c-4.07,9.11-8.27,18.11-12.39,27l7.23.09c-4.09,8.83-8.18,17.6-12.08,26.27,3.7.11,7.4.25,11.13.36-4.85,10.48-9.47,20.83-13.65,31.09h54.44c.25.84.5,1.71.73,2.55Z"/></g><path class="cls-25" d="M951.48,460.59l7.57.25c-2.75-7.74-5.82-15.42-9.07-23l6,.06c-3.27-7.75-6.75-15.43-10.31-23l5.85-.07c-3.07-6.55-6.23-13-9.37-19.47l6.21-.2c-5-10.06-10-20-14.74-29.74-3.52,10.3-7.62,20.52-12,30.6l6.21-.2c-2.74,6.53-5.61,13-8.53,19.42l5.86-.07c-3.38,7.53-6.84,15-10.25,22.35l6,.06c-3.39,7.32-6.77,14.57-10,21.74l9.2.3c-4,8.66-7.82,17.22-11.28,25.7h50.66C957.21,477,954.51,468.76,951.48,460.59Z"/><g class="cls-19"><path class="cls-20" d="M908.81,485.13c3.48-8.49,7.28-17,11.3-25.7-3.06-.11-6.15-.21-9.21-.3,3.22-7.19,6.61-14.43,10-21.76l-6,0c3.41-7.37,6.87-14.82,10.25-22.35l-5.87.07c2.92-6.4,5.8-12.89,8.53-19.41l-6.22.21c4.36-10.09,8.46-20.32,12-30.61.81,1.69,1.62,3.36,2.48,5.05-2.9,7.89-6.1,15.7-9.44,23.43l6.19-.21c-2.74,6.54-5.61,13-8.51,19.41l5.85-.07c-3.37,7.53-6.84,15-10.25,22.35l6,.07c-3.39,7.3-6.77,14.56-10,21.73l9.21.3c-4,8.67-7.84,17.23-11.29,25.72h45c.21.69.42,1.41.6,2.11Z"/></g><path class="cls-24" d="M396.45,315.88c-.5-1-1-2-1.49-3h.11l1.51,3Z"/><path class="cls-24" d="M406.45,422.41l10.94.36c-4-11.19-8.41-22.28-13.1-33.28l8.64.09c-4.72-11.21-9.75-22.31-14.89-33.28l8.46-.11c-4.44-9.47-9-18.85-13.53-28.14l9-.29c-7.21-14.54-14.46-28.84-21.29-43-5.09,14.88-11,29.65-17.33,44.22l9-.29c-4,9.43-8.11,18.79-12.33,28.06l8.46-.1c-4.88,10.88-9.88,21.64-14.82,32.29l8.64.09c-4.91,10.58-9.79,21-14.45,31.42l13.29.44c-5.78,12.52-11.3,24.88-16.31,37.15H418C414.73,446.13,410.83,434.22,406.45,422.41Z"/><g class="cls-19"><path class="cls-20" d="M344.79,458.07c5-12.28,10.51-24.63,16.3-37.16-4.42-.13-8.84-.28-13.29-.43,4.67-10.36,9.55-20.84,14.45-31.4-2.88-.05-5.76-.07-8.64-.1,5-10.66,10-21.42,14.83-32.29-2.83,0-5.63.05-8.46.1,4.22-9.27,8.36-18.62,12.33-28.07l-9,.31c6.31-14.58,12.23-29.36,17.33-44.24l3.71,7.65c-4.17,11.27-8.74,22.49-13.54,33.58l9-.3c-4,9.45-8.11,18.8-12.33,28.07,2.83,0,5.63-.07,8.46-.1-4.87,10.89-9.88,21.65-14.83,32.29l8.64.1c-4.9,10.56-9.78,21-14.45,31.4l13.29.45c-5.76,12.51-11.29,24.86-16.3,37.14h64.83c.3,1,.58,2,.86,3Z"/></g><path class="cls-26" d="M438.92,428.25l-9.15.3c3.33-9.35,7-18.64,11-27.83l-7.23.07c4-9.37,8.16-18.65,12.46-27.84l-7.07-.09c3.72-7.91,7.52-15.77,11.32-23.54l-7.5-.24c6-12.16,12.1-24.13,17.81-35.94,4.26,12.45,9.21,24.8,14.49,37l-7.51-.24c3.31,7.89,6.78,15.72,10.31,23.47l-7.08-.09c4.08,9.1,8.26,18.1,12.39,27l-7.22.07c4.1,8.85,8.18,17.61,12.08,26.28l-11.12.37c4.84,10.47,9.45,20.81,13.64,31.07H429.27C432,448.09,435.25,438.13,438.92,428.25Z"/><g class="cls-19"><path class="cls-20" d="M429.28,458.07c2.72-10,6-19.93,9.64-29.83l-9.17.31c3.34-9.36,7-18.64,11-27.84l-7.21.08c4-9.39,8.16-18.66,12.45-27.83-2.36,0-4.71-.06-7.06-.11,3.7-7.91,7.51-15.75,11.33-23.52l-7.51-.25c6-12.14,12.11-24.11,17.8-35.94.62,1.79,1.23,3.59,1.88,5.35-4.54,9.22-9.22,18.53-13.9,27.92l7.51.25q-5.72,11.65-11.33,23.55l7.06.09c-4.29,9.17-8.49,18.44-12.45,27.84l7.23-.09c-3.93,9.2-7.65,18.48-11,27.84,3.06-.08,6.08-.19,9.14-.31-3.67,9.89-6.92,19.85-9.64,29.83h54.33c.39.9.76,1.76,1.12,2.66Z"/></g><g class="cls-19"><path class="cls-7" d="M747.79,585.81a4.6,4.6,0,1,1,2.1,6.15A4.6,4.6,0,0,1,747.79,585.81Z"/></g><g class="cls-19"><path class="cls-7" d="M590.38,597a4.6,4.6,0,1,1,2.1,6.15A4.6,4.6,0,0,1,590.38,597Z"/></g><g class="cls-19"><path class="cls-7" d="M531.33,643.21a4.6,4.6,0,1,1,2.1,6.15A4.6,4.6,0,0,1,531.33,643.21Z"/></g><g class="cls-19"><path class="cls-7" d="M812.36,480.93A56.81,56.81,0,0,0,764,537v7.59a13.82,13.82,0,0,0-13.42-12c-7.47,0-13.59,6.37-13.59,14.15V588.9a14.2,14.2,0,0,1-14.15,14.15h-8.72a14.2,14.2,0,0,1-14.15-14.15V563.34c0-7.78-5.63-14.15-12.54-14.15s-12.54,6.37-12.54,14.15v5.24a14.2,14.2,0,0,1-14.15,14.15H652a14.2,14.2,0,0,1-14.15-14.15V526.85c0-7.78-5.63-14.15-12.54-14.15s-12.54,6.37-12.54,14.15v17.67a14.2,14.2,0,0,1-14.15,14.15h-3.77a14.2,14.2,0,0,1-14.15-14.15v-7.08c0-7.78-5.66-14.15-12.54-14.15-6.23,0-11.41,5.18-12.37,11.92a14.6,14.6,0,0,0-.17,2.24V565a14.2,14.2,0,0,1-14,12.12H537.8a14.2,14.2,0,0,1-14.15-14.15V537a56.78,56.78,0,0,1,56.62-56.62H804.13A56.56,56.56,0,0,1,812.36,480.93Z"/></g><path class="cls-9" d="M1010,757.37V698.68a16.93,16.93,0,0,0-16.88-16.88H993a16.93,16.93,0,0,0-16.88,16.88v15.66a16.93,16.93,0,0,1-16.88,16.87h0a16.93,16.93,0,0,1-16.88-16.87v-4a16.93,16.93,0,0,0-16.88-16.88h-.07a16.93,16.93,0,0,0-16.88,16.88v.75A16.93,16.93,0,0,1,891.65,728h0a16.92,16.92,0,0,1-16.87-16.87V698.68a16.93,16.93,0,0,0-16.88-16.88H828.5v91.4H998.71A16.89,16.89,0,0,0,1010,757.37Z"/><path class="cls-9" d="M1400.46,889.55c0-15.57-9.91-28.31-22-28.31h-45.22c-12.11,0-22,12.74-22,28.31v27.53h89.24Z"/><path class="cls-27" d="M1395.38,890.8c0-4.18-2.66-7.59-5.9-7.59h0c-3.25,0-5.9,3.41-5.9,7.59v7c0,4.17-2.66,7.59-5.9,7.59h0c-3.25,0-5.9-3.41-5.9-7.59v-1.78c0-4.17-2.66-7.59-5.9-7.59h0c-3.25,0-5.9,3.41-5.9,7.59v.34c0,4.17-2.65,7.59-5.9,7.59h0c-3.24,0-5.9-3.41-5.9-7.59v-5.6c0-4.18-2.66-7.59-5.9-7.59h-10.27v33.87h63.45Z"/><g class="cls-19"><path class="cls-7" d="M558.84,714.19V637.67c0-7.78,5.77-14.15,12.82-14.15s12.82,6.37,12.82,14.15v27.55c0,7.78,5.78,14.15,12.85,14.15s12.82-6.37,12.82-14.15V598c0-7.78,5.77-14.15,12.82-14.15s12.85,6.37,12.85,14.15V700c0,7.78-5.77,14.15-12.85,14.15Z"/></g><path class="cls-8" d="M841.49,481.61a28.68,28.68,0,1,1,57.37,0c0,.13,0,.26,0,.39H841.5C841.49,481.87,841.49,481.74,841.49,481.61Z"/><path class="cls-12" d="M887.72,481.63c0,.12,0,.26,0,.38h11.16v-.38a28.7,28.7,0,0,0-28.67-28.7,27.06,27.06,0,0,0-5.58.55A28.7,28.7,0,0,1,887.72,481.63Z"/><path class="cls-8" d="M890.19,481.77a17.51,17.51,0,1,1,35,0c0,.08,0,.16,0,.24h-35C890.19,481.92,890.19,481.85,890.19,481.77Z"/><path class="cls-12" d="M918.41,481.77c0,.07,0,.16,0,.23h6.82v-.23a17.52,17.52,0,0,0-17.5-17.52,16.47,16.47,0,0,0-3.41.34A17.53,17.53,0,0,1,918.41,481.77Z"/><path class="cls-23" d="M537.14,744.9c0-27.71,21.12-50.84,48.41-54.74a57.86,57.86,0,0,0-8.24-.58H353.44c-31.14,0-56.62,24.89-56.62,55.32V916.38H537.14Z"/><g class="cls-19"><path class="cls-7" d="M585.55,690.18a56.81,56.81,0,0,0-48.41,56v7.59a13.82,13.82,0,0,0-13.42-12c-7.47,0-13.59,6.37-13.59,14.15v42.24A14.2,14.2,0,0,1,496,812.3h-8.72a14.2,14.2,0,0,1-14.15-14.15V772.59c0-7.78-5.63-14.15-12.54-14.15S448,764.8,448,772.59v5.24A14.2,14.2,0,0,1,433.87,792h-8.72A14.2,14.2,0,0,1,411,777.82V736.1c0-7.78-5.63-14.15-12.54-14.15s-12.54,6.37-12.54,14.15v17.67a14.2,14.2,0,0,1-14.15,14.15H368a14.2,14.2,0,0,1-14.15-14.15v-7.08c0-7.78-5.66-14.15-12.54-14.15-6.23,0-11.41,5.18-12.37,11.92a14.56,14.56,0,0,0-.17,2.24V774.2a14.2,14.2,0,0,1-14,12.12H311a14.2,14.2,0,0,1-14.15-14.15v-26a56.78,56.78,0,0,1,56.62-56.62H577.31A56.56,56.56,0,0,1,585.55,690.18Z"/></g><path class="cls-8" d="M850.33,739.57a50.13,50.13,0,0,0-50-50H560.42a50.13,50.13,0,0,0-50,50V916.76h339.9Z"/><path class="cls-9" d="M605,689.59a50.15,50.15,0,0,0-50,50V916.76H510.42V739.58a50.15,50.15,0,0,1,50-50Z"/><path class="cls-9" d="M415,605c0,3.11-2.23,5.66-5,5.66s-5-2.55-5-5.66V527.52c0-3.11,2.23-5.66,5-5.66s5,2.55,5,5.66Z"/><path class="cls-9" d="M349.83,586.19c0,3.11-2.23,5.66-5,5.66s-5-2.55-5-5.66V508.71c0-3.11,2.23-5.66,5-5.66s5,2.55,5,5.66Z"/><path class="cls-9" d="M460.23,573.19c0,3.11-1.94,5.66-4.32,5.66s-4.32-2.55-4.32-5.66V507c0-3.11,1.94-5.66,4.32-5.66s4.32,2.55,4.32,5.66Z"/><g class="cls-19"><path class="cls-7" d="M464.76,882.36c0,3.11-1.94,5.66-4.32,5.66s-4.32-2.55-4.32-5.66V816.21c0-3.11,1.94-5.66,4.32-5.66s4.32,2.55,4.32,5.66Z"/></g><g class="cls-19"><path class="cls-7" d="M501,902.83c0,3.11-1.94,5.66-4.32,5.66s-4.32-2.55-4.32-5.66V836.68c0-3.11,1.94-5.66,4.32-5.66s4.32,2.55,4.32,5.66Z"/></g><g class="cls-19"><path class="cls-7" d="M544.37,673.73c0,3.11-1.94,5.66-4.32,5.66s-4.32-2.55-4.32-5.66V607.58c0-3.11,1.94-5.66,4.32-5.66s4.32,2.55,4.32,5.66Z"/></g><g class="cls-19"><path class="cls-7" d="M312.95,907.56c0,3.11-1.94,5.66-4.32,5.66s-4.32-2.55-4.32-5.66V841.41c0-3.11,1.94-5.66,4.32-5.66s4.32,2.55,4.32,5.66Z"/></g><g class="cls-19"><path class="cls-7" d="M671.42,675.4c0,3.11-1.94,5.66-4.32,5.66s-4.32-2.55-4.32-5.66V609.24c0-3.11,1.94-5.66,4.32-5.66s4.32,2.55,4.32,5.66Z"/></g><path class="cls-9" d="M489.76,605c0,3.11-1.94,5.66-4.32,5.66s-4.32-2.55-4.32-5.66V538.84c0-3.11,1.94-5.66,4.32-5.66s4.32,2.55,4.32,5.66Z"/><path class="cls-9" d="M573.23,917V840.48c0-7.78,5.78-14.15,12.82-14.15s12.82,6.37,12.82,14.15V868c0,7.78,5.77,14.15,12.85,14.15s12.82-6.37,12.82-14.15V800.77c0-7.78,5.77-14.15,12.82-14.15s12.85,6.37,12.85,14.15V902.85c0,7.78-5.77,14.15-12.85,14.15Z"/><path class="cls-28" d="M784.18,682.54h-.38a11.29,11.29,0,0,0-8.67-4.09,11.1,11.1,0,0,0-6.29,1.94h0a7.11,7.11,0,0,0-6-3.23h-.05c0-.49.05-1,.05-1.51a18.95,18.95,0,0,0-34.52-10.79,11,11,0,0,0-5.54-1.47,11.19,11.19,0,0,0-11.17,10.72,7.24,7.24,0,0,0-3.33-.82A7.09,7.09,0,0,0,702,677a13.29,13.29,0,0,0-3-.38,12.55,12.55,0,0,0-12.55,12.56,3.29,3.29,0,0,0,0,.36H791.26A7.08,7.08,0,0,0,784.18,682.54Z"/><path class="cls-7" d="M726.07,674.28h-.83a24.37,24.37,0,0,0-32.52-4.69h-.06a15.46,15.46,0,0,0-12.94-7h-.11c0-1.06.11-2.14.11-3.28a41.18,41.18,0,0,0-75-23.45,24,24,0,0,0-12-3.2,24.32,24.32,0,0,0-24.28,23.3,15.78,15.78,0,0,0-7.25-1.79,15.41,15.41,0,0,0-13.6,8.19,28.91,28.91,0,0,0-6.59-.83,27.28,27.28,0,0,0-27.28,27.3,7.33,7.33,0,0,0,.09.79h227.7A15.38,15.38,0,0,0,726.07,674.28Z"/><g class="cls-19"><path class="cls-7" d="M331.48,914.48V838c0-7.78,5.78-14.15,12.82-14.15s12.82,6.37,12.82,14.15V865.5c0,7.78,5.77,14.15,12.85,14.15s12.82-6.37,12.82-14.15V798.24c0-7.78,5.78-14.15,12.82-14.15s12.85,6.37,12.85,14.15V900.32c0,7.78-5.77,14.15-12.85,14.15Z"/></g><path class="cls-8" d="M1145.22,773.12v144H1030.45v-144a28.39,28.39,0,0,1,28.31-28.31h58.14A28.39,28.39,0,0,1,1145.22,773.12Z"/><path class="cls-7" d="M520.87,897.64h-1a28.88,28.88,0,0,0-6-5.75,27.25,27.25,0,0,0-31.93,0h-.07a17.84,17.84,0,0,0-15.1-8.62h-.13c0-1.31.13-2.63.13-4,0-27.88-21.51-50.5-48.07-50.5-16.33,0-30.81,8.61-39.48,21.73a27,27,0,0,0-14-3.92c-15.3,0-27.68,12.71-28.33,28.58a17.71,17.71,0,0,0-8.46-2.19,17.89,17.89,0,0,0-15.87,10,32.17,32.17,0,0,0-7.69-1c-17.57,0-31.83,15-31.83,33.48a9.39,9.39,0,0,0,.11,1H538.83C538.77,906,530.74,897.64,520.87,897.64Z"/><g class="cls-19"><path class="cls-7" d="M327.35,801.76a4.6,4.6,0,1,1,2.1,6.15A4.6,4.6,0,0,1,327.35,801.76Z"/></g><path class="cls-9" d="M1138.68,836.56v80.51H1077V868.36c0-6.23,4.61-11.35,10.25-11.35s10.28,5.13,10.28,11.35v22c0,6.23,4.62,11.35,10.28,11.35s10.28-5.13,10.28-11.35V836.56c0-6.23,4.61-11.32,10.25-11.32S1138.68,830.34,1138.68,836.56Z"/><g class="cls-19"><path class="cls-7" d="M396.29,764a4.6,4.6,0,1,1,2.1,6.15A4.6,4.6,0,0,1,396.29,764Z"/></g><g class="cls-19"><path class="cls-7" d="M415.89,809.34a2.72,2.72,0,1,1,1.25,3.64A2.72,2.72,0,0,1,415.89,809.34Z"/></g><g class="cls-19"><path class="cls-7" d="M314.33,871.27a2.72,2.72,0,1,1,1.25,3.64A2.72,2.72,0,0,1,314.33,871.27Z"/></g><g class="cls-19"><path class="cls-7" d="M363.8,829.82a2.72,2.72,0,1,1,1.25,3.64A2.72,2.72,0,0,1,363.8,829.82Z"/></g><g class="cls-19"><path class="cls-7" d="M479.69,871.27a2.72,2.72,0,1,1,1.25,3.64A2.72,2.72,0,0,1,479.69,871.27Z"/></g><g class="cls-19"><path class="cls-7" d="M301.86,802.59a2.72,2.72,0,1,1,1.25,3.64A2.72,2.72,0,0,1,301.86,802.59Z"/></g><g class="cls-19"><path class="cls-7" d="M475.29,834.52a4.6,4.6,0,1,1,2.1,6.15A4.6,4.6,0,0,1,475.29,834.52Z"/></g><path class="cls-23" d="M1081.94,819.13c0-30.67-25.48-55.77-56.62-55.77H801.45a57.4,57.4,0,0,0-8.24.59c27.29,3.93,48.41,27.24,48.41,55.18v97.8h240.31Z"/><path class="cls-27" d="M502.47,467.47H462.75v.33H332v-.33H267.89c-7.08,0-12.85,6.37-12.85,14.15V583.7c0,7.78,5.78,14.15,12.85,14.15s12.82-6.37,12.82-14.15V516.44c0-7.78,5.78-14.15,12.82-14.15s12.85,6.37,12.85,14.15V544c0,7.78,5.77,14.15,12.82,14.15S332,551.77,332,544V488.37h24.54a24.74,24.74,0,0,0,48.85,0h12a17.05,17.05,0,0,0,34.1,0h11.17v26.48c0,4.82,3.58,8.77,7.94,8.77s7.94-3.95,7.94-8.77V497.79c0-4.82,3.58-8.76,8-8.76s7.94,3.94,7.94,8.76v41.65c0,4.82,3.58,8.77,7.94,8.77s8-3.95,8-8.77V476.23C510.43,471.41,506.85,467.47,502.47,467.47Z"/><g class="cls-19"><path class="cls-7" d="M793.21,764a56.81,56.81,0,0,1,48.41,56v7.59a13.82,13.82,0,0,1,13.42-12c7.47,0,13.59,6.37,13.59,14.15v42.24a14.2,14.2,0,0,0,14.15,14.15h8.72a14.2,14.2,0,0,0,14.15-14.15V846.37c0-7.78,5.63-14.15,12.54-14.15s12.54,6.37,12.54,14.15v5.24a14.2,14.2,0,0,0,14.15,14.15h8.72a14.2,14.2,0,0,0,14.15-14.15V809.88c0-7.78,5.63-14.15,12.54-14.15s12.54,6.37,12.54,14.15v17.67A14.2,14.2,0,0,0,1007,841.69h3.77a14.2,14.2,0,0,0,14.15-14.15v-7.08c0-7.78,5.66-14.15,12.54-14.15,6.23,0,11.41,5.18,12.37,11.92a14.6,14.6,0,0,1,.17,2.24V848a14.2,14.2,0,0,0,14,12.12h3.79a14.2,14.2,0,0,0,14.16-14.15V820a56.79,56.79,0,0,0-56.62-56.62H801.45A56.56,56.56,0,0,0,793.21,764Z"/></g><path class="cls-21" d="M356.27,473.61c0,.26,0,.51,0,.77a24.78,24.78,0,1,0,49.55,0c0-.26,0-.51,0-.77Z"/><path class="cls-21" d="M417.49,477.59c0,.18,0,.35,0,.53a17.06,17.06,0,1,0,34.12,0c0-.18,0-.35,0-.53Z"/><path class="cls-21" d="M331.95,457.36v76.52c0,7.78-5.78,14.15-12.82,14.15s-12.82-6.37-12.82-14.15V506.34c0-7.78-5.77-14.15-12.85-14.15s-12.82,6.37-12.82,14.15V573.6c0,7.78-5.77,14.15-12.82,14.15S255,581.38,255,573.6V471.52c0-7.78,5.77-14.15,12.85-14.15Z"/><path class="cls-21" d="M462.75,457.45v47.38c0,4.82,3.58,8.77,7.94,8.77s7.94-3.95,7.94-8.77V487.78c0-4.82,3.58-8.76,8-8.76s7.94,3.94,7.94,8.76v41.65c0,4.82,3.58,8.77,7.94,8.77s8-3.95,8-8.77V466.22c0-4.82-3.58-8.77-8-8.77Z"/><rect class="cls-21" x="306.2" y="457.36" width="175.87" height="20.57"/><g class="cls-14"><path class="cls-9" d="M1127.26,491.53h-39.72v.33H956.83v-.33H892.68c-7.08,0-12.85,6.37-12.85,14.15V607.76c0,7.78,5.77,14.15,12.85,14.15s12.82-6.37,12.82-14.15V540.5c0-7.78,5.77-14.15,12.82-14.15s12.85,6.37,12.85,14.15V568c0,7.78,5.77,14.15,12.82,14.15s12.82-6.37,12.82-14.15V512.43h24.54a24.74,24.74,0,0,0,48.85,0h12a17.05,17.05,0,0,0,34.1,0h11.17v26.48c0,4.82,3.57,8.77,7.94,8.77s7.94-3.95,7.94-8.77V521.86c0-4.82,3.58-8.76,8-8.76s7.94,3.94,7.94,8.76v41.65c0,4.82,3.57,8.77,7.94,8.77s8-3.95,8-8.77V500.3C1135.22,495.48,1131.64,491.53,1127.26,491.53Z"/></g><path class="cls-21" d="M1128,482H893.39c-7.08,0-12.85,6.37-12.85,14.15V598.24c0,7.78,5.77,14.15,12.85,14.15s12.82-6.37,12.82-14.15V531c0-7.78,5.77-14.15,12.82-14.15s12.85,6.37,12.85,14.15v27.55c0,7.78,5.78,14.15,12.82,14.15s12.82-6.37,12.82-14.15V502.91h24.54a24.74,24.74,0,0,0,48.85,0h12a17.05,17.05,0,0,0,34.1,0h11.17v26.48c0,4.82,3.58,8.77,7.95,8.77s7.94-3.94,7.94-8.77V512.33c0-4.82,3.58-8.76,8-8.76s7.95,3.94,7.95,8.76V554c0,4.82,3.57,8.77,7.94,8.77s8-3.94,8-8.77V490.77C1135.93,485.95,1132.35,482,1128,482Z"/><g class="cls-10"><path class="cls-9" d="M297.86,619.26c0,3.11-1.94,5.66-4.32,5.66s-4.32-2.55-4.32-5.66V553.11c0-3.11,1.94-5.66,4.32-5.66s4.32,2.55,4.32,5.66Z"/></g><circle class="cls-11" cx="293.54" cy="526.13" r="4.27"/><g class="cls-10"><path class="cls-15" d="M287.35,829.39c0,3.11-1.94,5.66-4.32,5.66s-4.32-2.55-4.32-5.66V763.24c0-3.11,1.94-5.66,4.32-5.66s4.32,2.55,4.32,5.66Z"/></g><circle class="cls-29" cx="283.03" cy="736.25" r="4.27"/><circle class="cls-9" cx="410.09" cy="628.51" r="6.5"/><g class="cls-19"><path class="cls-30" d="M896.88,588.77c0,3.11-2.23,5.66-5,5.66s-5-2.55-5-5.66V511.29c0-3.11,2.23-5.66,5-5.66s5,2.55,5,5.66Z"/></g><g class="cls-19"><path class="cls-30" d="M271.5,564.86c0,3.11-2.23,5.66-5,5.66s-5-2.55-5-5.66V487.39c0-3.11,2.23-5.66,5-5.66s5,2.55,5,5.66Z"/></g><g class="cls-10"><path class="cls-8" d="M861.77,601.47c0,3.11-2.23,5.66-5,5.66s-5-2.55-5-5.66V524c0-3.11,2.23-5.66,5-5.66s5,2.55,5,5.66Z"/></g><circle class="cls-31" cx="856.82" cy="624.99" r="6.5"/><g class="cls-10"><path class="cls-8" d="M981,614.4c0,3.11-2.23,5.66-5,5.66s-5-2.55-5-5.66V536.92c0-3.11,2.23-5.66,5-5.66s5,2.55,5,5.66Z"/></g><circle class="cls-31" cx="976.07" cy="637.92" r="6.5"/><g class="cls-10"><path class="cls-9" d="M1243.47,768.81c0,3.11-2.23,5.66-5,5.66s-5-2.55-5-5.66V691.34c0-3.11,2.23-5.66,5-5.66s5,2.55,5,5.66Z"/></g><circle class="cls-11" cx="1238.52" cy="792.33" r="6.5"/><g class="cls-10"><path class="cls-9" d="M745.28,734.21c0-3.11,2.23-5.66,5-5.66s5,2.55,5,5.66v77.47c0,3.11-2.23,5.66-5,5.66s-5-2.55-5-5.66Z"/></g><circle class="cls-11" cx="750.23" cy="710.69" r="6.51"/><g class="cls-10"><path class="cls-8" d="M1107.84,638.95c0,3.11-2.23,5.66-4.95,5.66s-5-2.55-5-5.66V561.47c0-3.11,2.23-5.66,5-5.66s4.95,2.55,4.95,5.66Z"/></g><circle class="cls-31" cx="1102.89" cy="662.47" r="6.5"/><g class="cls-10"><path class="cls-8" d="M1030,598.09c0-3.11,2.23-5.66,5-5.66s5,2.55,5,5.66v77.47c0,3.11-2.23,5.66-5,5.66s-5-2.55-5-5.66Z"/></g><circle class="cls-31" cx="1034.94" cy="574.57" r="6.5"/><g class="cls-10"><path class="cls-9" d="M1154.62,763.7c0-3.11,2.23-5.66,5-5.66s5,2.55,5,5.66v77.47c0,3.11-2.23,5.66-5,5.66s-5-2.55-5-5.66Z"/></g><circle class="cls-11" cx="1159.57" cy="740.18" r="6.51"/><path class="cls-8" d="M677.41,689.33a19,19,0,1,1,38,0c0,.09,0,.17,0,.26h-38C677.42,689.5,677.41,689.41,677.41,689.33Z"/><path class="cls-12" d="M708,689.33c0,.08,0,.17,0,.25h7.4v-.25a19,19,0,0,0-19-19,17.88,17.88,0,0,0-3.7.36A19,19,0,0,1,708,689.33Z"/><path class="cls-8" d="M709.24,689.38a14.81,14.81,0,1,1,29.62,0c0,.07,0,.14,0,.2H709.24C709.24,689.52,709.24,689.45,709.24,689.38Z"/><path class="cls-12" d="M733.11,689.39c0,.06,0,.14,0,.2h5.77v-.2a14.82,14.82,0,0,0-14.8-14.82,13.92,13.92,0,0,0-2.88.28A14.82,14.82,0,0,1,733.11,689.39Z"/><path class="cls-8" d="M841.44,820a56.78,56.78,0,0,0-56.62-56.62H730.21V917H841.44Z"/><path class="cls-9" d="M748.66,917V856.42c0-6.16,4.57-11.2,10.15-11.2s10.15,5,10.15,11.2v21.81c0,6.16,4.57,11.21,10.17,11.21s10.15-5,10.15-11.21V825c0-6.16,4.57-11.2,10.15-11.2s10.17,5,10.17,11.2V905.8c0,6.16-4.57,11.2-10.17,11.2Z"/><path class="cls-8" d="M750.23,773.07a28.39,28.39,0,0,0-28.31-28.31H663.78a28.39,28.39,0,0,0-28.31,28.31V917H750.23Z"/><path class="cls-9" d="M706.63,744.76a28.39,28.39,0,0,0-28.31,28.31V917H635.46V773.07a28.39,28.39,0,0,1,28.31-28.31Z"/><path class="cls-9" d="M1111.35,857.95c0,3.11-2.23,5.66-5,5.66s-5-2.55-5-5.66V780.48c0-3.11,2.23-5.66,5-5.66s5,2.55,5,5.66Z"/><path class="cls-8" d="M350.52,456.85a27.93,27.93,0,1,1,55.85,0c0,.13,0,.25,0,.38H350.53C350.52,457.1,350.52,457,350.52,456.85Z"/><path class="cls-12" d="M395.53,456.86c0,.11,0,.25,0,.37h10.87v-.37a27.94,27.94,0,0,0-27.91-27.94,26.25,26.25,0,0,0-5.43.54A27.94,27.94,0,0,1,395.53,456.86Z"/><circle class="cls-22" cx="367.09" cy="438.1" r="3.89"/><circle class="cls-22" cx="360.02" cy="444.61" r="2.36"/><path class="cls-8" d="M715.69,744.45a23,23,0,1,0-45.93,0c0,.11,0,.21,0,.32h45.92C715.68,744.66,715.69,744.55,715.69,744.45Z"/><path class="cls-12" d="M706.77,744.46c0,.09,0,.21,0,.3h8.94v-.3a23,23,0,0,0-23-23,21.64,21.64,0,0,0-4.47.44A23,23,0,0,1,706.77,744.46Z"/><circle class="cls-22" cx="685.24" cy="730.01" r="4.86"/><circle class="cls-22" cx="676.39" cy="738.15" r="2.95"/><path class="cls-32" d="M784.09,763.14a16.32,16.32,0,1,0-32.64,0c0,.07,0,.15,0,.22h32.63C784.09,763.29,784.09,763.22,784.09,763.14Z"/><path class="cls-12" d="M777.76,763.15c0,.07,0,.15,0,.22h6.35v-.22a16.33,16.33,0,0,0-16.31-16.33,15.39,15.39,0,0,0-3.18.32A16.33,16.33,0,0,1,777.76,763.15Z"/><circle class="cls-22" cx="762.45" cy="752.88" r="3.46"/><circle class="cls-22" cx="756.16" cy="758.67" r="2.09"/><path class="cls-8" d="M1093.05,744.64a16.32,16.32,0,1,0-32.64,0c0,.07,0,.15,0,.22H1093C1093,744.79,1093.05,744.71,1093.05,744.64Z"/><path class="cls-12" d="M1086.72,744.65c0,.07,0,.15,0,.22h6.35v-.22a16.33,16.33,0,0,0-16.31-16.33,15.39,15.39,0,0,0-3.18.32A16.33,16.33,0,0,1,1086.72,744.65Z"/><circle class="cls-22" cx="1071.41" cy="734.38" r="3.46"/><circle class="cls-22" cx="1065.13" cy="740.16" r="2.09"/><path class="cls-8" d="M1119,744.59a11.56,11.56,0,1,0-23.12,0c0,.05,0,.11,0,.16H1119C1119,744.7,1119,744.64,1119,744.59Z"/><path class="cls-12" d="M1114.5,744.6s0,.11,0,.15h4.5v-.15A11.57,11.57,0,0,0,1107.44,733a10.94,10.94,0,0,0-2.25.22A11.57,11.57,0,0,1,1114.5,744.6Z"/><circle class="cls-22" cx="1103.67" cy="737.32" r="2.45"/><path class="cls-22" d="M1100.7,741.42a1.48,1.48,0,1,1-1.48-1.48A1.48,1.48,0,0,1,1100.7,741.42Z"/><path class="cls-8" d="M1194.63,563.42a13.68,13.68,0,0,0-27.37,0c0,.06,0,.12,0,.19h27.36C1194.62,563.54,1194.63,563.48,1194.63,563.42Z"/><path class="cls-12" d="M1189.31,563.42c0,.06,0,.12,0,.18h5.32v-.18a13.69,13.69,0,0,0-13.68-13.69,13,13,0,0,0-2.66.26A13.69,13.69,0,0,1,1189.31,563.42Z"/><circle class="cls-22" cx="1176.48" cy="554.81" r="2.9"/><circle class="cls-22" cx="1171.21" cy="559.66" r="1.76"/><path class="cls-8" d="M1213.28,563.34a7.9,7.9,0,0,0-15.8,0s0,.07,0,.11h15.79S1213.28,563.37,1213.28,563.34Z"/><path class="cls-12" d="M1210.21,563.34s0,.07,0,.11h3.07v-.11a7.9,7.9,0,0,0-7.9-7.9,7.44,7.44,0,0,0-1.54.15A7.9,7.9,0,0,1,1210.21,563.34Z"/><circle class="cls-22" cx="1202.81" cy="558.37" r="1.67"/><path class="cls-22" d="M1200.78,561.17a1,1,0,1,1-1-1A1,1,0,0,1,1200.78,561.17Z"/><circle class="cls-22" cx="689.61" cy="677.88" r="3.25"/><circle class="cls-22" cx="683.7" cy="683.31" r="1.97"/><circle class="cls-22" cx="719.33" cy="680.35" r="2.31"/><circle class="cls-22" cx="715.12" cy="684.22" r="1.4"/><path class="cls-8" d="M607.33,689.27a23,23,0,1,1,45.93,0c0,.11,0,.21,0,.32H607.34C607.34,689.48,607.33,689.38,607.33,689.27Z"/><path class="cls-12" d="M644.35,689.28c0,.09,0,.21,0,.3h8.94v-.3a23,23,0,0,0-23-23,21.64,21.64,0,0,0-4.47.44A23,23,0,0,1,644.35,689.28Z"/><circle class="cls-22" cx="623.52" cy="674.83" r="4.86"/><circle class="cls-22" cx="614.67" cy="682.98" r="2.95"/><path class="cls-21" d="M343.1,435.75c-3.69.46-7.34,2.11-11.1,1.73-5.39-.56-8.81-5.29-12.73-8.47a22.68,22.68,0,0,0-14.45-5.34c-15.44,0-28,15.12-28,33.79h84.82c.31,0-1-7.25-1.14-7.84-1.87-6.24-6.73-12.66-13.51-13.82A13.33,13.33,0,0,0,343.1,435.75Z"/><path class="cls-8" d="M506.43,457.84a17.22,17.22,0,1,1,34.44,0c0,.08,0,.16,0,.24H506.43C506.43,458,506.43,457.92,506.43,457.84Z"/><path class="cls-12" d="M534.18,457.85c0,.07,0,.16,0,.23h6.7v-.23a17.23,17.23,0,0,0-17.21-17.23,16.28,16.28,0,0,0-3.35.33A17.23,17.23,0,0,1,534.18,457.85Z"/><circle class="cls-22" cx="518.48" cy="446.59" r="2.48"/><circle class="cls-22" cx="513.97" cy="450.74" r="1.5"/><circle class="cls-22" cx="861.03" cy="462.27" r="4.76"/><path class="cls-22" d="M855.26,470.25a2.89,2.89,0,1,1-2.89-2.89A2.89,2.89,0,0,1,855.26,470.25Z"/><circle class="cls-33" cx="1006.21" cy="496.3" r="4.76"/><path class="cls-33" d="M1000.44,504.27a2.89,2.89,0,1,1-2.89-2.89A2.89,2.89,0,0,1,1000.44,504.27Z"/><circle class="cls-33" cx="384.78" cy="474.54" r="4.76"/><path class="cls-33" d="M379,482.52a2.89,2.89,0,1,1-2.89-2.89A2.89,2.89,0,0,1,379,482.52Z"/><circle class="cls-33" cx="300.77" cy="435.05" r="4.76"/><path class="cls-33" d="M295,443a2.89,2.89,0,1,1-2.89-2.89A2.89,2.89,0,0,1,295,443Z"/><circle class="cls-22" cx="902.35" cy="470.71" r="3.01"/><path class="cls-22" d="M898.71,475.75a1.82,1.82,0,1,1-1.82-1.83A1.82,1.82,0,0,1,898.71,475.75Z"/><path class="cls-8" d="M1054.11,481.77a17.51,17.51,0,1,1,35,0c0,.08,0,.16,0,.24h-35C1054.12,481.92,1054.11,481.85,1054.11,481.77Z"/><g class="cls-14"><path class="cls-34" d="M1082.34,481.77c0,.07,0,.16,0,.23h6.81v-.23a17.52,17.52,0,0,0-17.5-17.52,16.47,16.47,0,0,0-3.41.34A17.53,17.53,0,0,1,1082.34,481.77Z"/></g><circle class="cls-22" cx="1064.53" cy="471.2" r="3.01"/><circle class="cls-22" cx="1059.06" cy="476.24" r="1.82"/><path class="cls-8" d="M1087.84,481.81a14.26,14.26,0,1,1,28.51,0V482h-28.51C1087.84,481.94,1087.84,481.88,1087.84,481.81Z"/><g class="cls-14"><path class="cls-34" d="M1110.82,481.82c0,.06,0,.13,0,.19h5.55v-.19a14.26,14.26,0,0,0-14.25-14.26,13.46,13.46,0,0,0-2.77.27A14.27,14.27,0,0,1,1110.82,481.82Z"/></g><circle class="cls-22" cx="1096.07" cy="473.4" r="2.16"/><circle class="cls-22" cx="1092.14" cy="477.01" r="1.31"/><path class="cls-9" d="M1241.38,591.67v82.58H1138.76V591.67a28.39,28.39,0,0,1,28.31-28.31h46A28.39,28.39,0,0,1,1241.38,591.67Z"/><path class="cls-12" d="M1233.77,598v76.26h-58.6v-46c0-5.92,4.42-10.79,9.77-10.79s9.77,4.87,9.77,10.79v20.95c0,5.95,4.39,10.79,9.77,10.79s9.77-4.84,9.77-10.79V598c0-5.92,4.39-10.76,9.76-10.76S1233.77,592.06,1233.77,598Z"/><path class="cls-8" d="M1190.28,563.36A28.39,28.39,0,0,0,1162,591.67v82.58h-23.21V591.67a28.39,28.39,0,0,1,28.31-28.31Z"/><path class="cls-8" d="M784.09,763.14a16.32,16.32,0,1,0-32.64,0c0,.07,0,.15,0,.22h32.63C784.09,763.29,784.09,763.22,784.09,763.14Z"/><path class="cls-12" d="M777.76,763.15c0,.07,0,.15,0,.22h6.35v-.22a16.33,16.33,0,0,0-16.31-16.33,15.39,15.39,0,0,0-3.18.32A16.33,16.33,0,0,1,777.76,763.15Z"/><circle class="cls-22" cx="762.45" cy="752.88" r="3.46"/><circle class="cls-22" cx="756.16" cy="758.67" r="2.09"/><path class="cls-33" d="M950.19,553.81c0,3.11-2.23,5.66-5,5.66s-5-2.55-5-5.66v-50.6c0-3.11,2.23-5.66,5-5.66s5,2.55,5,5.66Z"/><path class="cls-33" d="M324.26,523.12c0,3.11-2.23,5.66-5,5.66s-5-2.55-5-5.66v-50.6c0-3.11,2.23-5.66,5-5.66s5,2.55,5,5.66Z"/><path class="cls-33" d="M1132.78,550c0,3.11-2.23,5.66-5,5.66s-5-2.55-5-5.66v-50.6c0-3.11,2.23-5.66,5-5.66s5,2.55,5,5.66Z"/><path class="cls-33" d="M507.79,524.46c0,3.11-2.23,5.66-5,5.66s-5-2.55-5-5.66v-50.6c0-3.11,2.23-5.66,5-5.66s5,2.55,5,5.66Z"/><path class="cls-8" d="M1135.82,674.1a21.12,21.12,0,1,1,42.23,0c0,.1,0,.19,0,.29h-42.22C1135.83,674.3,1135.82,674.2,1135.82,674.1Z"/><g class="cls-14"><path class="cls-34" d="M1169.86,674.11c0,.09,0,.19,0,.28h8.22v-.28A21.13,21.13,0,0,0,1157,653a19.88,19.88,0,0,0-4.11.41A21.13,21.13,0,0,1,1169.86,674.11Z"/></g><circle class="cls-22" cx="1148.39" cy="661.37" r="3.63"/><path class="cls-22" d="M1144,667.44a2.2,2.2,0,1,1-2.2-2.21A2.2,2.2,0,0,1,1144,667.44Z"/><path class="cls-8" d="M1182.54,674a17.19,17.19,0,1,1,34.38,0v.23h-34.37C1182.54,674.18,1182.54,674.11,1182.54,674Z"/><g class="cls-14"><path class="cls-34" d="M1210.24,674c0,.07,0,.16,0,.23h6.69V674a17.2,17.2,0,0,0-17.18-17.2,16.22,16.22,0,0,0-3.34.33A17.2,17.2,0,0,1,1210.24,674Z"/></g><circle class="cls-22" cx="1192.46" cy="663.88" r="2.61"/><circle class="cls-22" cx="1187.72" cy="668.24" r="1.58"/><path class="cls-12" d="M1193.38,916.88V825.36c0-9.31,6.91-16.93,15.33-16.93s15.34,7.62,15.34,16.93V858.3c0,9.31,6.91,16.94,15.37,16.94s15.33-7.62,15.33-16.94V777.86c0-9.31,6.91-16.93,15.34-16.93s15.37,7.62,15.37,16.93V900c0,9.31-6.91,16.93-15.37,16.93Z"/><path class="cls-9" d="M1353.28,833.25v83.82H1238.52V833.25a28.39,28.39,0,0,1,28.31-28.31H1325A28.39,28.39,0,0,1,1353.28,833.25Z"/><path class="cls-22" d="M1293.41,804.94a28.39,28.39,0,0,0-28.31,28.31v83.82h-26.58V833.25a28.39,28.39,0,0,1,28.31-28.31Z"/><g class="cls-10"><path class="cls-9" d="M606.77,770.05c0-3.11,2.23-5.66,5-5.66s5,2.55,5,5.66v77.47c0,3.11-2.23,5.66-5,5.66s-5-2.55-5-5.66Z"/></g><circle class="cls-11" cx="611.73" cy="746.53" r="6.5"/><path class="cls-12" d="M1345.22,837.22v79.86h-68V872.29c0-6.88,5.12-12.51,11.32-12.51s11.32,5.63,11.32,12.51v24.32c0,6.88,5.12,12.51,11.35,12.51s11.32-5.63,11.32-12.51V837.22c0-6.88,5.1-12.48,11.32-12.48S1345.22,830.34,1345.22,837.22Z"/><path class="cls-8" d="M1322.06,805.18a20,20,0,1,0-40,0c0,.09,0,.18,0,.27H1322C1322,805.36,1322.06,805.27,1322.06,805.18Z"/><path class="cls-12" d="M1314.3,805.18c0,.08,0,.19,0,.27h7.78v-.27a20,20,0,0,0-20-20,19,19,0,0,0-3.89.38A20,20,0,0,1,1314.3,805.18Z"/><circle class="cls-22" cx="1295.57" cy="792.62" r="4.23"/><circle class="cls-22" cx="1287.87" cy="799.7" r="2.56"/><path class="cls-8" d="M1385.23,861.17a14.49,14.49,0,1,0-29,0c0,.07,0,.13,0,.2h29C1385.23,861.3,1385.23,861.23,1385.23,861.17Z"/><path class="cls-12" d="M1379.61,861.17c0,.06,0,.14,0,.19h5.64v-.19a14.5,14.5,0,0,0-14.48-14.5,13.74,13.74,0,0,0-2.82.28A14.5,14.5,0,0,1,1379.61,861.17Z"/><circle class="cls-22" cx="1366.02" cy="852.06" r="3.07"/><circle class="cls-22" cx="1360.44" cy="857.2" r="1.86"/><path class="cls-8" d="M1396.93,861.26a7.46,7.46,0,1,0-14.92,0s0,.07,0,.1h14.91S1396.93,861.3,1396.93,861.26Z"/><path class="cls-12" d="M1394,861.27s0,.07,0,.1h2.9v-.1a7.46,7.46,0,0,0-7.46-7.46,7.2,7.2,0,0,0-1.45.14A7.46,7.46,0,0,1,1394,861.27Z"/><circle class="cls-22" cx="1387.04" cy="856.57" r="1.58"/><circle class="cls-22" cx="1384.17" cy="859.22" r="0.96"/><path class="cls-7" d="M838.24,896.69h1a29.42,29.42,0,0,1,6.15-5.87,27.8,27.8,0,0,1,32.58,0H878a18.2,18.2,0,0,1,15.41-8.8h.13c0-1.34-.13-2.68-.13-4.11,0-28.44,21.94-51.51,49-51.51,16.66,0,31.43,8.79,40.28,22.17a27.49,27.49,0,0,1,14.33-4c15.61,0,28.24,13,28.91,29.16a18.05,18.05,0,0,1,8.63-2.24,18.25,18.25,0,0,1,16.19,10.25,32.92,32.92,0,0,1,7.84-1c17.92,0,32.47,15.28,32.47,34.16,0,.33-.07.65-.11,1H819.91C820,905.21,828.16,896.69,838.24,896.69Z"/><g class="cls-10"><path class="cls-9" d="M712.06,812.48c0-3.11,2.23-5.66,5-5.66s5,2.55,5,5.66V890c0,3.11-2.23,5.66-5,5.66s-5-2.55-5-5.66Z"/></g><circle class="cls-11" cx="717.01" cy="788.96" r="6.5"/><path class="cls-7" d="M132.55,183.87c-.22-3.73,1.75-5.7,5.26-5.7h24.33c3.29,0,5,2,5.7,5.48,1.32,9.86,6.79,13.81,17.1,13.81,12.05,0,17.53-5.48,17.53-14.9V80.64c0-3.51,2-5.48,5.48-5.48h24.11c3.51,0,5.48,2,5.48,5.48V182.55c0,33.75-25.42,49.1-52.6,49.1C159.07,231.65,135,217.84,132.55,183.87Z"/><path class="cls-7" d="M392.06,228.58h-27c-3.07,0-5.26-1.31-6.14-4.6l-5.77-19.51H299.41L293.65,224c-.88,3.29-3.07,4.6-6.14,4.6h-27c-3.95,0-5.92-2.19-4.6-6.14L302.41,79.76a6.15,6.15,0,0,1,6.36-4.6h35.07a6.15,6.15,0,0,1,6.36,4.6l46.47,142.68C398,226.39,396,228.58,392.06,228.58Zm-48.58-57L326.3,113.51l-17.17,58.08Z"/><path class="cls-7" d="M527.78,136.63c15.45,8.52,25.37,24.31,25.37,43.73,0,27.62-20.6,48.22-48.44,48.22H427.12c-3.51,0-5.48-2-5.48-5.48V80.64c0-3.51,2-5.48,5.48-5.48H486.3c27,0,47.12,18,47.12,42.74a34.86,34.86,0,0,1-5.65,18.73ZM456.71,108v21.92H494a13.67,13.67,0,0,0,4.38-9.86c0-7.23-4.82-12.05-12.05-12.05Zm61.37,70.14c0-9.86-5-17.53-17.53-17.53H456.71V195.7h43.62C513,195.7,518.08,188,518.08,178.17Z"/><path class="cls-7" d="M702.19,228.58h-27c-3.07,0-5.26-1.31-6.14-4.6l-5.77-19.51H609.55L603.78,224c-.88,3.29-3.07,4.6-6.14,4.6h-27c-3.95,0-5.92-2.19-4.6-6.14L612.55,79.76a6.15,6.15,0,0,1,6.36-4.6H654a6.15,6.15,0,0,1,6.36,4.6L706.8,222.44C708.11,226.39,706.14,228.58,702.19,228.58Zm-48.58-57-17.17-58.08-17.17,58.08Z"/><path class="cls-7" d="M819.45,200.31V223.1c0,3.51-2,5.48-5.48,5.48H737.26c-3.51,0-5.48-2-5.48-5.48V80.64c0-3.51,2-5.48,5.48-5.48h24.11c3.51,0,5.48,2,5.48,5.48V194.83H814C817.48,194.83,819.45,196.8,819.45,200.31Z"/><path class="cls-7" d="M956.43,127.76c0,29.15-23.45,52.6-53.7,52.6h-23V223.1c0,3.51-2,5.48-5.48,5.48H850.13c-3.51,0-5.48-2-5.48-5.48V80.64c0-3.51,2-5.48,5.48-5.48h52.6C933,75.16,956.43,98.61,956.43,127.76Zm-35.07,0c0-11.18-7.89-19.73-18.63-19.73h-23v39.45h23C913.48,147.48,921.37,138.94,921.37,127.76Z"/><path class="cls-7" d="M980.55,181.24V80.64c0-3.51,2-5.48,5.48-5.48h24.11c3.51,0,5.48,2,5.48,5.48v97.53c0,11.62,5.48,19.29,21.92,19.29s21.92-7.67,21.92-19.29V80.64c0-3.51,2-5.48,5.48-5.48H1089c3.51,0,5.48,2,5.48,5.48v100.6c0,32.88-25.42,50.41-57,50.41S980.55,214.11,980.55,181.24Z"/><path class="cls-7" d="M1252.55,221.79c2.85,3.51,1.32,6.79-3.29,6.79h-28.05a7.67,7.67,0,0,1-6.79-3.29l-37.34-47.12h-13.51V223.1c0,3.51-2,5.48-5.48,5.48H1134c-3.51,0-5.48-2-5.48-5.48V80.64c0-3.51,2-5.48,5.48-5.48h53.7a52.48,52.48,0,0,1,52.6,52.6c0,18.4-10.92,35.16-27.13,44l39.4,50.07Zm-89-74.3h24.11c9.64,0,17.53-8.55,17.53-19.73S1197.31,108,1187.67,108h-24.11Z"/><path class="cls-2" d="M135.17,187.87c-.22-3.73,1.75-5.7,5.26-5.7h24.33c3.29,0,5,2,5.7,5.48,1.32,9.86,6.79,13.81,17.1,13.81,12.05,0,17.53-5.48,17.53-14.9V84.64c0-3.51,2-5.48,5.48-5.48h24.11c3.51,0,5.48,2,5.48,5.48V186.55c0,33.75-25.42,49.1-52.6,49.1C161.7,235.65,137.59,221.84,135.17,187.87Z"/><path class="cls-2" d="M394.68,232.58h-27c-3.07,0-5.26-1.31-6.14-4.6l-5.77-19.51H302L296.27,228c-.88,3.29-3.07,4.6-6.14,4.6h-27c-3.95,0-5.92-2.19-4.6-6.14L305,83.76a6.15,6.15,0,0,1,6.36-4.6h35.07a6.15,6.15,0,0,1,6.36,4.6l46.47,142.68C400.6,230.39,398.63,232.58,394.68,232.58Zm-48.58-57-17.17-58.08-17.17,58.08Z"/><path class="cls-2" d="M530.4,140.63c15.45,8.52,25.37,24.31,25.37,43.73,0,27.62-20.6,48.22-48.44,48.22H429.75c-3.51,0-5.48-2-5.48-5.48V84.64c0-3.51,2-5.48,5.48-5.48h59.18c27,0,47.12,18,47.12,42.74a34.86,34.86,0,0,1-5.65,18.73ZM459.34,112v21.92H496.6a13.67,13.67,0,0,0,4.38-9.86c0-7.23-4.82-12.05-12.05-12.05Zm61.37,70.14c0-9.86-5-17.53-17.53-17.53H459.34V199.7H503C515.67,199.7,520.71,192,520.71,182.17Z"/><path class="cls-2" d="M704.82,232.58h-27c-3.07,0-5.26-1.31-6.14-4.6L666,208.47H612.17L606.41,228c-.88,3.29-3.07,4.6-6.14,4.6h-27c-3.95,0-5.92-2.19-4.6-6.14L615.18,83.76a6.15,6.15,0,0,1,6.36-4.6H656.6a6.15,6.15,0,0,1,6.36,4.6l46.47,142.68C710.74,230.39,708.76,232.58,704.82,232.58Zm-48.58-57-17.17-58.08L621.9,175.59Z"/><path class="cls-2" d="M822.08,204.31V227.1c0,3.51-2,5.48-5.48,5.48H739.89c-3.51,0-5.48-2-5.48-5.48V84.64c0-3.51,2-5.48,5.48-5.48H764c3.51,0,5.48,2,5.48,5.48V198.83H816.6C820.1,198.83,822.08,200.8,822.08,204.31Z"/><path class="cls-2" d="M959.06,131.76c0,29.15-23.45,52.6-53.7,52.6h-23V227.1c0,3.51-2,5.48-5.48,5.48H852.76c-3.51,0-5.48-2-5.48-5.48V84.64c0-3.51,2-5.48,5.48-5.48h52.6C935.61,79.16,959.06,102.61,959.06,131.76Zm-35.07,0c0-11.18-7.89-19.73-18.63-19.73h-23v39.45h23C916.1,151.48,924,142.94,924,131.76Z"/><path class="cls-2" d="M983.17,185.24V84.64c0-3.51,2-5.48,5.48-5.48h24.11c3.51,0,5.48,2,5.48,5.48v97.53c0,11.62,5.48,19.29,21.92,19.29s21.92-7.67,21.92-19.29V84.64c0-3.51,2-5.48,5.48-5.48h24.11c3.51,0,5.48,2,5.48,5.48v100.6c0,32.88-25.42,50.41-57,50.41S983.17,218.11,983.17,185.24Z"/><path class="cls-2" d="M1255.17,225.79c2.85,3.51,1.32,6.79-3.29,6.79h-28.05a7.67,7.67,0,0,1-6.79-3.29l-37.34-47.12h-13.51V227.1c0,3.51-2,5.48-5.48,5.48H1136.6c-3.51,0-5.48-2-5.48-5.48V84.64c0-3.51,2-5.48,5.48-5.48h53.7a52.48,52.48,0,0,1,52.6,52.6c0,18.4-10.92,35.16-27.13,44l39.4,50.07Zm-89-74.3h24.11c9.64,0,17.53-8.55,17.53-19.73S1199.94,112,1190.3,112h-24.11Z"/><path class="cls-35" d="M139,190.87c-.22-3.73,1.75-5.7,5.26-5.7h24.33c3.29,0,5,2,5.7,5.48,1.32,9.86,6.79,13.81,17.1,13.81,12.05,0,17.53-5.48,17.53-14.9V87.64c0-3.51,2-5.48,5.48-5.48h24.11c3.51,0,5.48,2,5.48,5.48V189.55c0,33.75-25.42,49.1-52.6,49.1C165.57,238.65,141.46,224.84,139,190.87Z"/><path class="cls-35" d="M398.56,235.58h-27c-3.07,0-5.26-1.31-6.14-4.6l-5.77-19.51H305.91L300.15,231c-.88,3.29-3.07,4.6-6.14,4.6h-27c-3.95,0-5.92-2.19-4.6-6.14L308.91,86.76a6.15,6.15,0,0,1,6.36-4.6h35.07a6.15,6.15,0,0,1,6.36,4.6l46.47,142.68C404.47,233.39,402.5,235.58,398.56,235.58Zm-48.58-57L332.8,120.51l-17.17,58.08Z"/><path class="cls-35" d="M534.28,143.63c15.45,8.52,25.37,24.31,25.37,43.73,0,27.62-20.6,48.22-48.44,48.22H433.62c-3.51,0-5.48-2-5.48-5.48V87.64c0-3.51,2-5.48,5.48-5.48H492.8c27,0,47.12,18,47.12,42.74a34.86,34.86,0,0,1-5.65,18.73ZM463.21,115v21.92h37.26a13.67,13.67,0,0,0,4.38-9.86c0-7.23-4.82-12.05-12.05-12.05Zm61.37,70.14c0-9.86-5-17.53-17.53-17.53H463.21V202.7h43.62C519.54,202.7,524.58,195,524.58,185.17Z"/><path class="cls-35" d="M708.69,235.58h-27c-3.07,0-5.26-1.31-6.14-4.6l-5.77-19.51H616L610.28,231c-.88,3.29-3.07,4.6-6.14,4.6h-27c-3.95,0-5.92-2.19-4.6-6.14L619.05,86.76a6.15,6.15,0,0,1,6.36-4.6h35.07a6.15,6.15,0,0,1,6.36,4.6L713.3,229.44C714.61,233.39,712.64,235.58,708.69,235.58Zm-48.58-57-17.17-58.08-17.17,58.08Z"/><path class="cls-35" d="M826,207.31V230.1c0,3.51-2,5.48-5.48,5.48H743.76c-3.51,0-5.48-2-5.48-5.48V87.64c0-3.51,2-5.48,5.48-5.48h24.11c3.51,0,5.48,2,5.48,5.48V201.83h47.12C824,201.83,826,203.8,826,207.31Z"/><path class="cls-35" d="M962.93,134.76c0,29.15-23.45,52.6-53.7,52.6h-23V230.1c0,3.51-2,5.48-5.48,5.48H856.63c-3.51,0-5.48-2-5.48-5.48V87.64c0-3.51,2-5.48,5.48-5.48h52.6C939.48,82.16,962.93,105.61,962.93,134.76Zm-35.07,0c0-11.18-7.89-19.73-18.63-19.73h-23v39.45h23C920,154.48,927.87,145.94,927.87,134.76Z"/><path class="cls-35" d="M987,188.24V87.64c0-3.51,2-5.48,5.48-5.48h24.11c3.51,0,5.48,2,5.48,5.48v97.53c0,11.62,5.48,19.29,21.92,19.29s21.92-7.67,21.92-19.29V87.64c0-3.51,2-5.48,5.48-5.48h24.11c3.51,0,5.48,2,5.48,5.48v100.6c0,32.88-25.42,50.41-57,50.41S987,221.11,987,188.24Z"/><path class="cls-35" d="M1259,228.79c2.85,3.51,1.32,6.79-3.29,6.79h-28.05a7.67,7.67,0,0,1-6.79-3.29l-37.34-47.12h-13.51V230.1c0,3.51-2,5.48-5.48,5.48h-24.11c-3.51,0-5.48-2-5.48-5.48V87.64c0-3.51,2-5.48,5.48-5.48h53.7a52.48,52.48,0,0,1,52.6,52.6c0,18.4-10.92,35.16-27.13,44l39.4,50.07Zm-89-74.3h24.11c9.64,0,17.53-8.55,17.53-19.73S1203.81,115,1194.17,115h-24.11Z"/></g></g></g></svg>