<svg xmlns="http://www.w3.org/2000/svg" viewBox="0 0 137.72 117.02"><defs><style>.cls-1{fill:#73d8d8;}.cls-2{fill:#fff;}</style></defs><title>Asset 8</title><g id="Layer_2" data-name="Layer 2"><g id="Layer_1-2" data-name="Layer 1"><path class="cls-1" d="M63.31,11.39S76-.31,80.37,12.56A56.56,56.56,0,0,1,82.88,37L137.22,53.7l.5,8.19H83.88l-2.51.5L78.86,97l19.4,12.54-1.5,6-20.4-3.51S74,116.4,71.51,116.4s-4-5-4-5l-19.73,3.85v-6.86L64.65,96.67l-2-33.61-56.35-1V54L60,38.31l1.5-3.68S61.14,13.9,63.31,11.39Z"/><path class="cls-2" d="M108.38,45.19l1.68.47a2.56,2.56,0,0,0,1.38-4.93l-1.68-.47a2.56,2.56,0,1,0-1.38,4.93Z"/><path class="cls-2" d="M38.59,58.51A2.56,2.56,0,0,0,36,56H31.8a2.56,2.56,0,1,0,0,5.12H36A2.56,2.56,0,0,0,38.59,58.51Z"/><path class="cls-2" d="M26.87,58.51A2.56,2.56,0,0,0,24.31,56H5.12V51.57l50-14c.26,5.54.6,11.85,1,18.4H43.58a2.56,2.56,0,0,0,0,5.12h12.9q.17,2.54.36,5.09c.71,9.71,1.49,18.06,2.32,25L40.73,102.28a2.56,2.56,0,0,0-1.21,2.55l1,7.15a2.56,2.56,0,0,0,2.54,2.21,2.6,2.6,0,0,0,.44,0l19.22-3.36c1.42,4.46,3.09,6.23,5.42,6.23s4-1.77,5.42-6.23l19.22,3.36a2.64,2.64,0,0,0,.44,0A2.56,2.56,0,0,0,95.74,112l1-7.15a2.56,2.56,0,0,0-1.21-2.55L77.1,91.13c.83-6.91,1.61-15.27,2.32-25q.19-2.55.36-5.09h53.92a2.56,2.56,0,0,0,2.56-2.56V49.62a2.56,2.56,0,0,0-1.87-2.47l-15.7-4.4a2.56,2.56,0,0,0-1.38,4.93l13.83,3.87V56h-51c.41-6.55.74-12.85,1-18.4L101,43.12a2.56,2.56,0,0,0,1.38-4.93l-21-5.89c.39-8.76.57-14.62.57-14.74v-.08C81.94,7.84,75.74,0,68.13,0S54.32,7.84,54.32,17.48v.08c0,.12.18,6,.57,14.74l-53,14.86A2.56,2.56,0,0,0,0,49.62v8.89a2.56,2.56,0,0,0,2.56,2.56H24.31A2.56,2.56,0,0,0,26.87,58.51Zm64.56,47.28-.4,2.86-16.22-2.83c.38-1.78.74-3.81,1.1-6.1q.23-1.45.46-3ZM68.13,5.12c4.7,0,8.67,5.64,8.69,12.32,0,1.08-.73,23-2.3,45.45-1.84,26.37-3.86,38.65-5.3,44.37,0,.06,0,.11,0,.16v0a25.29,25.29,0,0,1-1,3.31,25.33,25.33,0,0,1-1-3.31s0,0,0,0,0-.11,0-.17c-1.44-5.72-3.45-18-5.3-44.35-1.57-22.47-2.27-44.39-2.3-45.47C59.46,10.76,63.43,5.12,68.13,5.12ZM59.88,96.68c.15,1.05.3,2.07.46,3,.36,2.29.73,4.32,1.1,6.1l-16.22,2.83-.4-2.86Z"/><path class="cls-2" d="M17.16,65a2.56,2.56,0,0,0-2.56,2.56v9a2.56,2.56,0,1,0,5.12,0v-9A2.56,2.56,0,0,0,17.16,65Z"/><path class="cls-2" d="M17.16,81.38a2.56,2.56,0,0,0-2.56,2.56v1.29a2.56,2.56,0,1,0,5.12,0V83.94A2.56,2.56,0,0,0,17.16,81.38Z"/><path class="cls-2" d="M104.24,67.56a2.56,2.56,0,0,0-5.12,0V80.88a2.56,2.56,0,0,0,5.12,0Z"/><path class="cls-2" d="M101.68,85.73a2.56,2.56,0,0,0-2.56,2.56v4.17a2.56,2.56,0,0,0,5.12,0V88.29A2.56,2.56,0,0,0,101.68,85.73Z"/><path class="cls-2" d="M37.14,67.56a2.56,2.56,0,0,0-5.12,0V80.88a2.56,2.56,0,0,0,5.12,0Z"/><path class="cls-2" d="M34.58,85.73A2.56,2.56,0,0,0,32,88.29v4.17a2.56,2.56,0,1,0,5.12,0V88.29A2.56,2.56,0,0,0,34.58,85.73Z"/><path class="cls-2" d="M121.66,67.56a2.56,2.56,0,0,0-5.12,0v9a2.56,2.56,0,0,0,5.12,0Z"/><path class="cls-2" d="M119.1,81.38a2.56,2.56,0,0,0-2.56,2.56v1.29a2.56,2.56,0,0,0,5.12,0V83.94A2.56,2.56,0,0,0,119.1,81.38Z"/></g></g></svg>