<svg xmlns="http://www.w3.org/2000/svg" viewBox="0 0 136.26 136.26"><defs><style>.cls-1{fill:#73d8d8;}.cls-2{fill:#fff;}</style></defs><title>Asset 9</title><g id="Layer_2" data-name="Layer 2"><g id="Layer_1-2" data-name="Layer 1"><rect class="cls-1" x="23.9" y="6.46" width="95.48" height="94.31" rx="23.92" ry="23.92"/><path class="cls-2" d="M89.3,86a10.2,10.2,0,1,0-10.2-10.2A10.21,10.21,0,0,0,89.3,86Zm0-15.28a5.08,5.08,0,1,1-5.08,5.08A5.08,5.08,0,0,1,89.3,70.69Z"/><path class="cls-2" d="M47,86a10.2,10.2,0,1,0-10.2-10.2A10.21,10.21,0,0,0,47,86Zm0-15.28a5.08,5.08,0,1,1-5.08,5.08A5.08,5.08,0,0,1,47,70.69Z"/><path class="cls-2" d="M83.85,11.64H52.41a2.56,2.56,0,1,0,0,5.12H83.85a2.56,2.56,0,0,0,0-5.12Z"/><path class="cls-2" d="M1.29,135.92a2.56,2.56,0,0,0,3.49-1L8,129.34H81.21a2.56,2.56,0,0,0,0-5.12H10.92l5.38-9.43H35.22a2.56,2.56,0,0,0,0-5.12h-16l8.49-14.87a25.23,25.23,0,0,0,15.66,5.44H92.89a25.22,25.22,0,0,0,15.66-5.44L117,109.66H54.35a2.56,2.56,0,1,0,0,5.12H120l5.38,9.43h-25a2.56,2.56,0,0,0,0,5.12h27.92l3.21,5.62a2.56,2.56,0,0,0,4.45-2.54L112.34,91.11a25.24,25.24,0,0,0,5.9-16.24V25.36A25.39,25.39,0,0,0,92.89,0H43.37A25.39,25.39,0,0,0,18,25.36V74.87a25.23,25.23,0,0,0,5.9,16.24L.34,132.43A2.56,2.56,0,0,0,1.29,135.92ZM43.37,5.12H92.89A20.26,20.26,0,0,1,113,23.28H23.24A20.27,20.27,0,0,1,43.37,5.12ZM23.14,28.4h90v24h-90Zm0,46.47V57.54h90V74.87a20.16,20.16,0,0,1-5.58,13.93,2.49,2.49,0,0,0-.39.41,20.17,20.17,0,0,1-14.26,5.9H43.37a20.17,20.17,0,0,1-14.26-5.9,2.59,2.59,0,0,0-.39-.41A20.15,20.15,0,0,1,23.14,74.87Z"/><path class="cls-2" d="M43.16,109.66a2.56,2.56,0,0,0,0,5.12H45a2.56,2.56,0,1,0,0-5.12Z"/><path class="cls-2" d="M90.62,124.22a2.56,2.56,0,0,0,0,5.12h1.79a2.56,2.56,0,0,0,0-5.12Z"/></g></g></svg>