<svg xmlns="http://www.w3.org/2000/svg" viewBox="0 0 199.28 121.61"><defs><style>.cls-1{isolation:isolate;}.cls-2{fill:#5ca86b;}.cls-12,.cls-14,.cls-3{mix-blend-mode:soft-light;}.cls-4{fill:#e8e061;}.cls-5{fill:#478361;}.cls-6{fill:#3f5d44;}.cls-7{fill:#868693;}.cls-8{fill:#24453b;}.cls-9{fill:#5a5a6b;}.cls-10{fill:#99bc5d;}.cls-11{fill:#b3b3bc;mix-blend-mode:multiply;}.cls-12{fill:#c4c4ce;}.cls-13{fill:#81c8c9;}.cls-14{fill:#e7ffab;}</style></defs><title>Asset 4</title><g class="cls-1"><g id="Layer_2" data-name="Layer 2"><g id="Layer_1-2" data-name="Layer 1"><path class="cls-2" d="M99,89.34l-5.53.18c2-5.65,4.25-11.26,6.62-16.82l-4.37,0c2.38-5.66,4.93-11.27,7.53-16.82l-4.27-.06c2.24-4.78,4.55-9.52,6.84-14.22l-4.53-.15c3.64-7.35,7.31-14.58,10.76-21.72,2.57,7.52,5.57,15,8.75,22.35L116.23,42c2,4.77,4.1,9.5,6.23,14.18l-4.28-.05c2.46,5.5,5,10.94,7.49,16.32l-4.37,0c2.48,5.35,4.94,10.64,7.3,15.88l-6.72.22c2.92,6.32,5.71,12.57,8.24,18.77h-37C94.77,101.33,96.74,95.31,99,89.34Z"/><g class="cls-3"><path class="cls-4" d="M130.12,107.26c-2.54-6.2-5.32-12.45-8.25-18.77l6.72-.22c-2.35-5.25-4.83-10.54-7.3-15.89l4.35,0c-2.49-5.38-5-10.82-7.49-16.32l4.28,0c-2.13-4.67-4.23-9.42-6.23-14.17l4.54.15c-3.18-7.37-6.18-14.84-8.76-22.35-.59,1.23-1.19,2.45-1.81,3.69,2.11,5.76,4.45,11.47,6.89,17.11l-4.52-.15c2,4.78,4.1,9.5,6.22,14.17l-4.27,0C117,60,119.5,65.41,122,70.8l-4.37.05c2.47,5.34,4.95,10.64,7.3,15.87l-6.72.22c2.93,6.33,5.72,12.59,8.25,18.78H93.56c-.15.51-.3,1-.44,1.54Z"/></g><path class="cls-2" d="M42.24,89.08l-5.61.18c2-5.73,4.31-11.43,6.72-17.06l-4.43,0c2.42-5.75,5-11.44,7.64-17.06l-4.34-.06c2.28-4.85,4.62-9.67,6.94-14.43l-4.6-.15c3.7-7.45,7.42-14.79,10.92-22,2.61,7.63,5.65,15.2,8.88,22.68L59.77,41c2,4.84,4.16,9.64,6.32,14.39l-4.34-.05c2.5,5.58,5.07,11.1,7.6,16.56l-4.43,0c2.52,5.43,5,10.79,7.41,16.11l-6.82.23c3,6.42,5.8,12.76,8.36,19H36.33C38,101.24,40,95.13,42.24,89.08Z"/><g class="cls-3"><path class="cls-4" d="M73.87,107.26c-2.58-6.29-5.4-12.63-8.37-19L72.32,88c-2.39-5.33-4.9-10.69-7.41-16.12l4.42,0c-2.53-5.46-5.09-11-7.6-16.57l4.35,0c-2.17-4.74-4.3-9.56-6.33-14.38l4.61.15C61.13,33.62,58.09,26,55.48,18.41c-.6,1.25-1.2,2.49-1.84,3.74,2.15,5.85,4.52,11.64,7,17.36L56,39.36c2,4.85,4.16,9.64,6.31,14.38l-4.33,0c2.49,5.58,5.07,11.1,7.6,16.56l-4.43.05c2.51,5.41,5,10.79,7.41,16.1l-6.82.22c3,6.43,5.81,12.77,8.37,19.06H36.76c-.15.51-.31,1-.44,1.56Z"/></g><path class="cls-5" d="M50.93,90.59l5.15.17c-1.87-5.26-4-10.48-6.17-15.65l4.06,0c-2.22-5.27-4.59-10.49-7-15.65l4-.05c-2.09-4.45-4.23-8.87-6.37-13.24l4.22-.14c-3.39-6.84-6.8-13.57-10-20.21-2.39,7-5.18,13.95-8.15,20.8l4.22-.14C33,51,31,55.36,29.06,59.72l4-.05c-2.3,5.12-4.65,10.18-7,15.19l4.06,0c-2.31,5-4.6,9.9-6.8,14.78l6.25.21c-2.72,5.88-5.32,11.7-7.67,17.47H56.36C54.83,101.74,53,96.14,50.93,90.59Z"/><g class="cls-3"><path class="cls-4" d="M56.35,107.36c-1.53-5.62-3.36-11.21-5.42-16.78l5.15.18c-1.88-5.26-4-10.48-6.16-15.65l4.05,0c-2.22-5.28-4.59-10.5-7-15.66q2,0,4-.06c-2.08-4.45-4.23-8.86-6.37-13.22l4.23-.14c-3.39-6.83-6.81-13.56-10-20.21-.35,1-.69,2-1.05,3,2.55,5.19,5.19,10.42,7.82,15.7l-4.23.14Q44.55,51.26,47.7,58l-4,0c2.41,5.16,4.77,10.37,7,15.65l-4.07,0C48.87,78.78,51,84,52.82,89.26l-5.14-.17c2.07,5.56,3.89,11.16,5.42,16.77H22.56c-.22.51-.42,1-.63,1.5Z"/></g><path class="cls-6" d="M83.2,91.49l-4.88.16c1.78-5,3.75-9.94,5.85-14.85l-3.86,0c2.11-5,4.35-10,6.65-14.85l-3.78,0c2-4.22,4-8.41,6-12.56l-4-.13c3.22-6.49,6.46-12.87,9.51-19.18C97,36.71,99.64,43.3,102.45,49.8l-4-.13c1.77,4.21,3.62,8.39,5.5,12.52l-3.78,0c2.18,4.85,4.41,9.66,6.61,14.42l-3.86,0c2.19,4.72,4.37,9.4,6.45,14l-5.93.2c2.58,5.58,5,11.1,7.28,16.58H78C79.5,102.07,81.24,96.76,83.2,91.49Z"/><g class="cls-3"><path class="cls-4" d="M110.72,107.32c-2.24-5.48-4.7-11-7.28-16.58l5.94-.19c-2.08-4.64-4.26-9.31-6.45-14l3.84,0c-2.2-4.76-4.43-9.56-6.61-14.42l3.78,0c-1.88-4.13-3.74-8.32-5.5-12.52l4,.13C99.64,43.22,97,36.62,94.72,30c-.52,1.09-1,2.17-1.6,3.26C95,38.33,97,43.37,99.2,48.35l-4-.14c1.77,4.22,3.62,8.39,5.49,12.52l-3.77,0c2.17,4.86,4.41,9.66,6.61,14.42l-3.86,0c2.19,4.71,4.37,9.39,6.45,14l-5.94.19c2.59,5.59,5.05,11.11,7.28,16.59H78.42c-.13.45-.27.91-.39,1.36Z"/></g><path class="cls-7" d="M136.49,84.58h15.37a7.51,7.51,0,0,1,7.32,5.95h-30A7.51,7.51,0,0,1,136.49,84.58Z"/><path class="cls-8" d="M56.17,85.27l-6.78.22c2.47-6.93,5.21-13.8,8.12-20.62l-5.35.06c2.92-6.94,6-13.82,9.22-20.62l-5.24-.07c2.75-5.86,5.57-11.68,8.38-17.43L59,26.63c4.47-9,9-17.87,13.19-26.63C75.3,9.22,79,18.37,82.89,27.4l-5.56-.18c2.46,5.84,5,11.64,7.64,17.38l-5.24-.06c3,6.74,6.12,13.41,9.18,20l-5.35.06c3,6.55,6.06,13,9,19.46l-8.24.27c3.58,7.75,7,15.41,10.11,23H49C51,100,53.45,92.58,56.17,85.27Z"/><g class="cls-3"><path class="cls-4" d="M94.37,107.36c-3.1-7.61-6.51-15.26-10.1-23l8.23-.27c-2.9-6.42-5.92-12.91-9-19.46l5.35-.06c-3.07-6.61-6.17-13.27-9.19-20,1.75,0,3.49,0,5.24.06-2.61-5.75-5.18-11.54-7.64-17.39l5.56.19C79,18.38,75.31,9.22,72.15,0l-2.3,4.74c2.58,7,5.42,13.93,8.39,20.8l-5.56-.19c2.46,5.85,5,11.64,7.64,17.39l-5.25-.06c3,6.75,6.12,13.41,9.19,20l-5.35.06c3,6.54,6.06,13,9,19.46l-8.23.28c3.57,7.75,7,15.4,10.09,23H49.56c-.19.63-.36,1.24-.53,1.86Z"/></g><path class="cls-9" d="M21.57,107.36V118H194.2v-3.14a7.5,7.5,0,0,0-7.48-7.48Z"/><path class="cls-8" d="M118.41,85.27l-6.78.22c2.47-6.93,5.21-13.8,8.11-20.62l-5.35.06c2.92-6.94,6-13.82,9.22-20.62l-5.24-.07c2.75-5.86,5.57-11.68,8.38-17.43l-5.56-.18c4.47-9,9-17.87,13.19-26.63,3.15,9.22,6.83,18.37,10.74,27.4l-5.56-.18c2.45,5.84,5,11.64,7.64,17.38L142,44.54c3,6.74,6.12,13.41,9.18,20l-5.35.06c3,6.55,6.06,13,9,19.46l-8.24.27c3.58,7.75,7,15.41,10.11,23H111.27C113.28,100,115.7,92.58,118.41,85.27Z"/><g class="cls-3"><path class="cls-4" d="M156.61,107.36c-3.1-7.61-6.51-15.26-10.1-23l8.23-.27c-2.89-6.42-5.92-12.91-9-19.46l5.35-.06c-3.07-6.61-6.17-13.27-9.19-20,1.75,0,3.49,0,5.24.06-2.61-5.75-5.18-11.54-7.64-17.39l5.56.19c-3.91-9-7.57-18.19-10.74-27.41l-2.3,4.74c2.58,7,5.41,13.93,8.39,20.8l-5.56-.19c2.46,5.85,5,11.64,7.64,17.39l-5.25-.06c3,6.75,6.12,13.41,9.19,20l-5.35.06c3,6.54,6.06,13,9,19.46l-8.23.28c3.57,7.75,7,15.4,10.09,23H111.8c-.19.63-.36,1.24-.53,1.86Z"/></g><path class="cls-10" d="M137.71,100.43a15.7,15.7,0,0,1-3.5.54c-1.7-.17-2.78-1.67-4-2.67a7.13,7.13,0,0,0-4.55-1.68c-4.86,0-8.8,4.76-8.8,10.64h26.7a16.36,16.36,0,0,0-.36-2.47c-.59-2-2.12-4-4.25-4.35A4.23,4.23,0,0,0,137.71,100.43Z"/><path class="cls-6" d="M141.41,89.27l-5.55.18c2-5.67,4.27-11.31,6.65-16.89l-4.38,0c2.39-5.69,4.95-11.32,7.56-16.89l-4.29-.06c2.25-4.8,4.57-9.57,6.87-14.28l-4.55-.15c3.66-7.38,7.34-14.64,10.81-21.81,2.58,7.55,5.59,15,8.79,22.44l-4.55-.15c2,4.79,4.12,9.54,6.26,14.24l-4.29-.05c2.47,5.52,5,11,7.52,16.39l-4.38,0c2.49,5.37,5,10.68,7.33,15.94l-6.75.22c2.93,6.35,5.74,12.62,8.27,18.85H135.55C137.21,101.3,139.18,95.26,141.41,89.27Z"/><g class="cls-3"><path class="cls-4" d="M172.7,107.26c-2.55-6.23-5.34-12.5-8.28-18.85,2.24-.08,4.51-.15,6.75-.22-2.36-5.28-4.85-10.58-7.33-16l4.37,0c-2.5-5.41-5-10.87-7.52-16.39l4.3,0c-2.14-4.69-4.25-9.46-6.26-14.23l4.56.15c-3.2-7.4-6.21-14.9-8.79-22.45-.59,1.24-1.19,2.46-1.82,3.7,2.12,5.78,4.47,11.52,6.92,17.18l-4.54-.15c2,4.8,4.12,9.54,6.24,14.23l-4.29,0c2.47,5.53,5,11,7.52,16.39l-4.39.05c2.48,5.36,5,10.68,7.33,15.94l-6.75.22c2.94,6.36,5.75,12.64,8.28,18.86H136c-.15.51-.3,1-.44,1.55Z"/></g><path class="cls-7" d="M159.72,107.25a7.9,7.9,0,1,1,15.79,0s0,.07,0,.11H159.72S159.72,107.29,159.72,107.25Z"/><path class="cls-11" d="M162.78,107.26s0,.07,0,.11h-3.07v-.11a7.9,7.9,0,0,1,7.89-7.9,7.5,7.5,0,0,1,1.54.15A7.9,7.9,0,0,0,162.78,107.26Z"/><circle class="cls-12" cx="170.19" cy="102.29" r="1.67"/><circle class="cls-12" cx="173.23" cy="105.09" r="1.01"/><path class="cls-7" d="M36.15,107.25a7.9,7.9,0,1,1,15.79,0s0,.07,0,.11H36.16S36.15,107.29,36.15,107.25Z"/><path class="cls-11" d="M39.22,107.26s0,.07,0,.11H36.15v-.11A7.9,7.9,0,0,1,44,99.36a7.5,7.5,0,0,1,1.54.15A7.9,7.9,0,0,0,39.22,107.26Z"/><circle class="cls-12" cx="46.63" cy="102.29" r="1.67"/><circle class="cls-12" cx="49.67" cy="105.09" r="1.01"/><path class="cls-7" d="M104.42,107.28a5.9,5.9,0,1,1,11.81,0s0,.05,0,.08H104.43S104.42,107.31,104.42,107.28Z"/><path class="cls-11" d="M106.72,107.28s0,.06,0,.08h-2.3v-.08a5.91,5.91,0,0,1,5.9-5.91,5.62,5.62,0,0,1,1.15.11A5.91,5.91,0,0,0,106.72,107.28Z"/><circle class="cls-12" cx="112.25" cy="103.57" r="1.25"/><circle class="cls-12" cx="114.53" cy="105.66" r="0.76"/><path class="cls-13" d="M21.57,114.81v6.4l177.71-.55-3-5.9c-3.94,0-3.94,2.58-7.9,2.58s-4-2.58-7.9-2.58-4,2.58-7.9,2.58-3.94-2.58-7.9-2.58-4,2.58-7.9,2.58-4-2.58-7.9-2.58-4,2.58-7.9,2.58-4-2.58-7.9-2.58-4,2.58-7.89,2.58-4-2.58-7.9-2.58-4,2.58-7.9,2.58-4-2.58-7.9-2.58-4,2.58-7.9,2.58-4-2.58-7.9-2.58-4,2.58-7.9,2.58-4-2.58-7.9-2.58-4,2.58-7.9,2.58-4-2.58-7.9-2.58-4,2.58-7.9,2.58-4-2.58-7.9-2.58-4,2.58-7.9,2.58-4-2.58-7.91-2.58A6.75,6.75,0,0,0,21.57,114.81Z"/><path class="cls-10" d="M21.57,107.36H186.72a7.47,7.47,0,0,1,5.75,2.71H21.57Z"/><rect class="cls-10" x="181.97" y="108.38" width="3.46" height="5.67" rx="1.5" ry="1.5"/><rect class="cls-10" x="163.27" y="108.38" width="3.46" height="5.67" rx="1.5" ry="1.5"/><rect class="cls-10" x="143.6" y="108.41" width="3.46" height="5.67" rx="1.5" ry="1.5"/><rect class="cls-10" x="81.29" y="108.41" width="3.46" height="5.67" rx="1.5" ry="1.5"/><rect class="cls-10" x="37.41" y="107.76" width="3.46" height="5.67" rx="1.5" ry="1.5"/><path class="cls-10" d="M125.42,108.21a1.47,1.47,0,0,1,.09.49v2.68a1.5,1.5,0,0,1-1.5,1.5h-.47a1.5,1.5,0,0,1-1.5-1.5V108.7a1.47,1.47,0,0,1,.09-.49Z"/><path class="cls-10" d="M179.21,108.73v2.06a1.5,1.5,0,0,1-1.5,1.5h-.47a1.5,1.5,0,0,1-1.5-1.5v-2.06Z"/><path class="cls-10" d="M151.88,108.42v2.06a1.5,1.5,0,0,1-1.5,1.5h-.47a1.5,1.5,0,0,1-1.5-1.5v-2.06Z"/><path class="cls-10" d="M117.65,108.21v2.06a1.5,1.5,0,0,1-1.5,1.5h-.47a1.5,1.5,0,0,1-1.5-1.5v-2.06Z"/><path class="cls-10" d="M77.72,108.29v2.06a1.5,1.5,0,0,1-1.5,1.5h-.47a1.5,1.5,0,0,1-1.5-1.5v-2.06Z"/><path class="cls-9" d="M177.71,107.76v10.62H5.08v-3.14a7.5,7.5,0,0,1,7.48-7.48Z"/><path class="cls-13" d="M177.71,115.21v6.4L0,121.06l3-5.9c3.94,0,3.94,2.58,7.9,2.58s4-2.58,7.9-2.58,4,2.58,7.9,2.58,3.94-2.58,7.9-2.58,4,2.58,7.9,2.58,4-2.58,7.9-2.58,4,2.58,7.9,2.58,4-2.58,7.9-2.58,4,2.58,7.89,2.58,4-2.58,7.9-2.58,4,2.58,7.9,2.58,4-2.58,7.9-2.58,4,2.58,7.9,2.58,4-2.58,7.9-2.58,4,2.58,7.9,2.58,4-2.58,7.9-2.58,4,2.58,7.9,2.58,4-2.58,7.9-2.58,4,2.58,7.9,2.58,4-2.58,7.9-2.58,4,2.58,7.9,2.58,4-2.58,7.91-2.58A6.75,6.75,0,0,1,177.71,115.21Z"/><path class="cls-10" d="M177.71,107.76H12.56a7.47,7.47,0,0,0-5.75,2.71h170.9Z"/><rect class="cls-10" x="13.85" y="108.79" width="3.46" height="5.67" rx="1.5" ry="1.5"/><rect class="cls-10" x="32.55" y="108.79" width="3.46" height="5.67" rx="1.5" ry="1.5"/><rect class="cls-10" x="52.22" y="108.82" width="3.46" height="5.67" rx="1.5" ry="1.5"/><rect class="cls-10" x="114.53" y="108.82" width="3.46" height="5.67" rx="1.5" ry="1.5"/><rect class="cls-10" x="158.41" y="108.16" width="3.46" height="5.67" rx="1.5" ry="1.5"/><path class="cls-10" d="M73.86,108.62a1.47,1.47,0,0,0-.09.49v2.68a1.5,1.5,0,0,0,1.5,1.5h.47a1.5,1.5,0,0,0,1.5-1.5V109.1a1.47,1.47,0,0,0-.09-.49Z"/><path class="cls-10" d="M20.07,109.13v2.06a1.5,1.5,0,0,0,1.5,1.5H22a1.5,1.5,0,0,0,1.5-1.5v-2.06Z"/><path class="cls-10" d="M47.4,108.82v2.06a1.5,1.5,0,0,0,1.5,1.5h.47a1.5,1.5,0,0,0,1.5-1.5v-2.06Z"/><path class="cls-10" d="M81.63,108.62v2.06a1.5,1.5,0,0,0,1.5,1.5h.47a1.5,1.5,0,0,0,1.5-1.5v-2.06Z"/><path class="cls-10" d="M121.56,108.69v2.06a1.5,1.5,0,0,0,1.5,1.5h.47a1.5,1.5,0,0,0,1.5-1.5v-2.06Z"/><path class="cls-10" d="M76.07,99.62c1.34.17,2.68.77,4,.63,2-.2,3.22-1.93,4.64-3.09A8.27,8.27,0,0,1,90,95.22c5.63,0,10.19,5.52,10.19,12.32H69.29a19,19,0,0,1,.42-2.86c.68-2.28,2.45-4.62,4.93-5A4.88,4.88,0,0,1,76.07,99.62Z"/><circle class="cls-14" cx="93.49" cy="99.81" r="1.26"/><circle class="cls-14" cx="95.78" cy="101.92" r="0.76"/></g></g></g></svg>