<?xml version="1.0" encoding="utf-8"?>
<!-- Generator: Adobe Illustrator 22.0.1, SVG Export Plug-In . SVG Version: 6.00 Build 0)  -->
<svg version="1.1" id="Layer_1" xmlns="http://www.w3.org/2000/svg" xmlns:xlink="http://www.w3.org/1999/xlink" x="0px" y="0px"
	 viewBox="0 0 34.3 38.2" style="enable-background:new 0 0 34.3 38.2;" xml:space="preserve">
<style type="text/css">
	.st0{fill:#292929;}
</style>
<title>icons</title>
<g id="dX2tWu.tif">
	<path class="st0" d="M27.5,0h1.2l0.5,0.1c2.5,0.5,4.5,2.5,5,5c0,0.2,0,0.5,0.1,0.7v0.8v0.1c0,0.2,0,0.4-0.1,0.6
		c-0.6,3.2-3.5,5.4-6.8,5c-1.2-0.1-2.4-0.6-3.4-1.5c-0.2-0.1-0.3-0.3-0.5-0.4s-0.1-0.1-0.2,0l0,0l-11.2,6.4L12,16.9c0,0,0,0.1,0,0.1
		l0,0v0.1c0.2,0.6,0.3,1.2,0.3,1.8c0,0.8-0.1,1.5-0.3,2.2c-0.1,0.2-0.1,0.2,0.1,0.3l6.6,3.8l4.4,2.6c0.1,0.1,0.1,0.1,0.3,0
		c2.2-2.6,6.1-2.9,8.7-0.6c1.1,0.9,1.8,2.2,2,3.6c0,0.2,0,0.5,0.1,0.7v0.8c0,0.2,0,0.5-0.1,0.7c-0.5,2.4-2.4,4.3-4.8,4.8l-0.6,0.1
		h-1.4H27c-2.2-0.3-4-1.8-4.8-3.8c-0.4-0.9-0.5-1.8-0.4-2.8c0-0.3,0.1-0.7,0.2-1c0-0.1,0-0.1-0.1-0.2H22l-10.5-6.2l-0.8-0.5
		c-0.2-0.1-0.2-0.1-0.3,0l-0.1,0.1C9,24.7,7.2,25.2,5.5,25c-2.8-0.4-5-2.6-5.3-5.4c0-0.1,0-0.1-0.1-0.2v-1.1c0-0.1,0.1-0.2,0.1-0.3
		c0.2-1.4,0.9-2.7,1.9-3.7c1.4-1.3,3.3-1.9,5.2-1.5c1.3,0.2,2.5,0.8,3.4,1.7c0.1,0.1,0.1,0.1,0.3,0l0,0l6.9-4L22.2,8
		c0.2-0.1,0.2-0.1,0.1-0.3c-0.1-0.5-0.2-1-0.3-1.5c0-0.8,0.1-1.7,0.4-2.5c0.7-1.9,2.3-3.4,4.4-3.9C27,0.1,27.2,0.1,27.5,0z"/>
</g>
</svg>
