<?xml version="1.0" encoding="utf-8"?>
<!-- Generator: Adobe Illustrator 15.0.0, SVG Export Plug-In . SVG Version: 6.00 Build 0)  -->
<!DOCTYPE svg PUBLIC "-//W3C//DTD SVG 1.1//EN" "http://www.w3.org/Graphics/SVG/1.1/DTD/svg11.dtd">
<svg version="1.1" id="Layer_1" xmlns="http://www.w3.org/2000/svg" xmlns:xlink="http://www.w3.org/1999/xlink" x="0px" y="0px"
	 width="15px" height="30px" viewBox="0 0 15 30" enable-background="new 0 0 15 30" xml:space="preserve">
<g transform="translate(0.000000,92.000000) scale(0.100000,-0.100000)">
	<path fill="#7E449A" d="M18.105,884.312c-5.435-2.588-10.864-8.276-13.711-13.965c-8.271-16.812-4.136-24.312,36.211-64.658
		L76.294,770l-35.688-35.684C0.259,693.965-3.877,686.465,4.395,669.648c5.952-12.148,20.435-19.902,32.329-17.324
		c5.688,1.299,22.241,15.264,58.188,49.658c72.412,69.57,72.412,66.465-0.264,136.294c-42.925,41.118-55.078,50.688-64.39,50.688
		C28.447,888.965,23.018,886.895,18.105,884.312z M43.188,865.171c5.435-4.395,27.676-25.601,49.399-47.065
		c51.982-51.465,51.729-45.259,1.289-95.176c-21.206-20.684-42.412-41.377-47.583-45.781c-14.482-12.148-28.188-9.824-28.188,4.668
		c0,5.166,8.53,15.254,35.43,42.148C87.412,757.852,89.219,760.176,89.219,770c0,9.829-1.807,12.153-35.684,46.035
		c-38.018,38.018-41.899,45-29.741,53.276C31.553,874.741,32.07,874.741,43.188,865.171z"/>
</g>
</svg>
