<?xml version="1.0" encoding="utf-8"?>
<!-- Generator: Adobe Illustrator 15.0.0, SVG Export Plug-In . SVG Version: 6.00 Build 0)  -->
<!DOCTYPE svg PUBLIC "-//W3C//DTD SVG 1.1//EN" "http://www.w3.org/Graphics/SVG/1.1/DTD/svg11.dtd">
<svg version="1.1" id="Capa_1" xmlns="http://www.w3.org/2000/svg" xmlns:xlink="http://www.w3.org/1999/xlink" x="0px" y="0px"
	 width="511.625px" height="511.627px" viewBox="0 0 511.625 511.627" enable-background="new 0 0 511.625 511.627"
	 xml:space="preserve">
<g>
	<path fill="#7E449A" d="M455.698,222.545l-97.52-97.518c-2.412-2.413-5.269-3.62-8.57-3.62c-3.301,0-6.159,1.207-8.57,3.62
		c-2.413,2.415-3.621,5.271-3.621,8.573v48.759h-42.664c-90.539,0-146.088,25.586-166.661,76.759
		C121.364,276.13,118,297.274,118,322.543c0,21.077,8.063,49.709,24.189,85.899c0.38,0.891,1.045,2.411,1.999,4.568
		s1.809,4.062,2.571,5.715c0.764,1.647,1.59,3.045,2.479,4.187c1.522,2.159,3.301,3.241,5.333,3.241
		c1.905,0,3.397-0.635,4.477-1.903c1.078-1.27,1.617-2.858,1.617-4.758c0-1.146-0.159-2.826-0.477-5.05
		c-0.317-2.224-0.477-3.712-0.477-4.476c-0.636-8.631-0.953-16.446-0.953-23.425c0-12.824,1.113-24.316,3.333-34.473
		c2.224-10.16,5.303-18.951,9.24-26.381c3.937-7.431,9.014-13.839,15.238-19.236c6.221-5.396,12.918-9.808,20.092-13.236
		c7.175-3.43,15.619-6.129,25.333-8.096c9.713-1.969,19.49-3.334,29.332-4.096s20.984-1.142,33.429-1.142h42.664v48.761
		c0,3.301,1.205,6.158,3.617,8.57c2.414,2.41,5.27,3.618,8.569,3.618c3.302,0,6.159-1.208,8.575-3.618l97.519-97.521
		c2.413-2.413,3.618-5.269,3.618-8.57C459.314,227.821,458.11,224.963,455.698,222.545z"/>
</g>
</svg>
