<svg id="Layer_1" data-name="Layer 1" xmlns="http://www.w3.org/2000/svg" viewBox="0 0 11.25 8.62"><defs><style>.cls-1{fill:#1f7de9;}.cls-2{fill:#ffe06e;}</style></defs><title>Gwalior sqauare</title><rect class="cls-1" x="4.68" width="1.76" height="1.76"/><rect class="cls-1" x="4.68" y="1.76" width="1.76" height="1.76"/><rect class="cls-1" x="2.92" y="1.76" width="1.76" height="1.76"/><rect class="cls-1" x="6.44" y="1.76" width="1.76" height="1.76"/><rect class="cls-1" x="4.68" y="6.86" width="1.76" height="1.76" transform="translate(11.13 15.48) rotate(180)"/><rect class="cls-1" x="4.68" y="5.09" width="1.76" height="1.76" transform="translate(11.13 11.95) rotate(180)"/><rect class="cls-1" x="6.44" y="5.09" width="1.76" height="1.76" transform="translate(14.65 11.95) rotate(180)"/><rect class="cls-1" x="2.92" y="5.09" width="1.76" height="1.76" transform="translate(7.6 11.95) rotate(180)"/><rect class="cls-2" x="4.68" y="3.53" width="1.76" height="1.76"/><rect class="cls-1" x="2.92" y="3.53" width="1.76" height="1.76"/><rect class="cls-1" x="1.15" y="3.53" width="1.76" height="1.76"/><rect class="cls-1" x="6.44" y="3.53" width="1.76" height="1.76"/><rect class="cls-1" x="8.16" y="3.53" width="1.76" height="1.76"/></svg>