<svg xmlns="http://www.w3.org/2000/svg" xmlns:xlink="http://www.w3.org/1999/xlink" viewBox="0 0 130.82 242.86"><defs><clipPath id="clip-path"><rect x="23.69" y="72.9" width="82.55" height="10.72" style="fill:none"/></clipPath></defs><title>Asset 3</title><g id="Layer_2" data-name="Layer 2"><g id="Layer_1-2" data-name="Layer 1"><rect y="58.58" width="130.82" height="26.86" rx="12.21" ry="12.21" style="fill:#ee673d"/><rect x="13.38" y="52.35" width="103.67" height="15.62" style="fill:#ffbc6b"/><path d="M77.54,15.45A12.31,12.31,0,0,0,71.22,4.92h0A14,14,0,0,1,66.57.64h0a1.72,1.72,0,0,0-2.67,0,14,14,0,0,1-4.62,4.26h0a12.32,12.32,0,0,0-6.39,10.8S70.89,17.32,77.54,15.45Z" style="fill:#ffbc6b"/><rect x="52.91" y="14.41" width="24.63" height="6.13" style="fill:#f69159"/><rect x="40.69" y="25.11" width="49.07" height="5.55" style="fill:#f69159"/><rect x="32.38" y="37.38" width="65.68" height="2.69" style="fill:#ee673d"/><rect x="22.17" y="42.93" width="86.11" height="9.42" style="fill:#f69159"/><rect x="13.38" y="57.18" width="103.67" height="2.35" style="fill:#f7a15d"/><rect x="27.87" y="40.07" width="74.7" height="2.86" style="fill:#ffbc6b"/><rect x="32.38" y="30.66" width="65.68" height="6.73" style="fill:#ffbc6b"/><rect x="38.87" y="21.41" width="52.7" height="3.7" style="fill:#ffbc6b"/><rect x="46.32" y="18.71" width="37.8" height="2.69" style="fill:#ffbc6b"/><rect x="13.38" y="70.99" width="103.16" height="100.39" style="fill:#f6895e"/><rect x="23.69" y="72.01" width="82.55" height="97.37" style="fill:#fcfbfa"/><rect x="108.12" y="75.59" width="1.27" height="93.79" style="fill:#1f7de9"/><rect x="113.94" y="75.59" width="1.27" height="93.79" style="fill:#1f7de9"/><rect x="23.69" y="72.09" width="82.55" height="12.32" style="fill:#1f7de9"/><rect x="14.99" y="75.59" width="1.27" height="93.79" style="fill:#1f7de9"/><rect x="20.82" y="75.59" width="1.27" height="93.79" style="fill:#1f7de9"/><g style="clip-path:url(#clip-path)"><path d="M68.3,82.75V77.86a3,3,0,0,0-1.6-2.67A3.07,3.07,0,0,1,65.56,74h0a.41.41,0,0,0-.7,0h0a3.1,3.1,0,0,1-1.15,1.22,3,3,0,0,0-1.6,2.68v4.2H60v-4.2a3,3,0,0,0-1.6-2.67A3.05,3.05,0,0,1,57.3,74h0a.41.41,0,0,0-.36-.21.4.4,0,0,0-.35.2h0a3.1,3.1,0,0,1-1.15,1.22,3,3,0,0,0-1.6,2.68v4.2H51.78v-4.2a3,3,0,0,0-1.6-2.67A3.07,3.07,0,0,1,49,74h0a.41.41,0,0,0-.7,0h0a3.1,3.1,0,0,1-1.15,1.22,3,3,0,0,0-1.6,2.68v4.2H43.51v-4.2a3,3,0,0,0-1.6-2.67A3.07,3.07,0,0,1,40.77,74h0a.41.41,0,0,0-.7,0h0a3.1,3.1,0,0,1-1.15,1.22,3,3,0,0,0-1.6,2.68v4.2H35.25v-4.2a3,3,0,0,0-1.6-2.67A3.07,3.07,0,0,1,32.5,74h0a.41.41,0,0,0-.7,0h0a3.1,3.1,0,0,1-1.15,1.22,3,3,0,0,0-1.6,2.68v4.2H27v-4.2a3,3,0,0,0-1.6-2.67A3.07,3.07,0,0,1,24.24,74h0a.41.41,0,0,0-.7,0h0a3.1,3.1,0,0,1-1.15,1.22,3,3,0,0,0-1.6,2.68v4.89Z" style="fill:#ffe06e"/><path d="M109.6,82.75V77.86a3,3,0,0,0-1.6-2.67A3.07,3.07,0,0,1,106.85,74h0a.41.41,0,0,0-.7,0h0A3.1,3.1,0,0,1,105,75.18a3,3,0,0,0-1.6,2.68v4.2h-2.07v-4.2a3,3,0,0,0-1.6-2.67A3.05,3.05,0,0,1,98.59,74h0a.41.41,0,0,0-.36-.21.4.4,0,0,0-.35.2h0a3.1,3.1,0,0,1-1.15,1.22,3,3,0,0,0-1.6,2.68v4.2H93.07v-4.2a3,3,0,0,0-1.6-2.67A3.07,3.07,0,0,1,90.32,74h0a.41.41,0,0,0-.7,0h0a3.1,3.1,0,0,1-1.15,1.22,3,3,0,0,0-1.6,2.68v4.2H84.8v-4.2a3,3,0,0,0-1.6-2.67A3.07,3.07,0,0,1,82.06,74h0a.41.41,0,0,0-.7,0h0a3.1,3.1,0,0,1-1.15,1.22,3,3,0,0,0-1.6,2.68v4.2H76.54v-4.2a3,3,0,0,0-1.6-2.67A3.07,3.07,0,0,1,73.79,74h0a.41.41,0,0,0-.7,0h0a3.1,3.1,0,0,1-1.15,1.22,3,3,0,0,0-1.6,2.68v4.2H68.28v-4.2a3,3,0,0,0-1.6-2.67A3.07,3.07,0,0,1,65.53,74h0a.41.41,0,0,0-.7,0h0a3.1,3.1,0,0,1-1.15,1.22,3,3,0,0,0-1.6,2.68v4.89Z" style="fill:#ffe06e"/></g><rect x="42.04" y="198.8" width="46.8" height="9" style="fill:#f68951"/><rect x="2.06" y="171.38" width="126.75" height="9.61" style="fill:#f68951"/><rect x="8.07" y="180.99" width="114.73" height="4.15" style="fill:#f68951"/><rect x="17.86" y="185.14" width="95.16" height="6.48" style="fill:#f68951"/><rect x="25.37" y="191.61" width="80.13" height="7.18" style="fill:#f68951"/><rect x="27.56" y="185.14" width="75.76" height="6.68" style="fill:#ffb468"/><rect x="44.34" y="199.61" width="42.05" height="6.68" style="fill:#ffb468"/><polygon points="56.89 219.72 57.88 219.72 57.88 220.67 59.18 220.67 59.17 223.12 59.74 223.12 59.74 223.74 61.29 223.76 61.31 225.48 61.1 225.55 60.92 225.65 60.74 225.75 60.55 225.85 60.37 225.96 60.21 226.09 60.03 226.21 59.89 226.36 59.73 226.5 59.6 226.66 59.46 226.81 59.32 226.97 59.19 227.22 59.07 227.47 59 227.74 58.95 228.02 58.95 228.3 59 228.58 59.09 228.85 59.18 229.11 59.34 229.35 59.5 229.56 59.7 229.76 59.93 229.92 60.43 229.92 60.41 230.31 60.45 230.69 60.54 231.07 60.68 231.42 60.86 231.76 61.08 232.07 61.35 232.35 61.67 232.59 61.99 232.79 62.35 232.94 62.71 233.03 63.1 233.07 63.1 234.05 63.37 234.08 63.65 234.12 63.9 234.2 64.14 234.3 64.37 234.44 64.6 234.6 64.78 234.78 64.96 234.99 65.12 235.22 65.23 235.46 65.35 235.71 65.41 235.97 65.48 235.71 65.58 235.46 65.71 235.22 65.85 234.99 66.03 234.79 66.24 234.61 66.44 234.45 66.67 234.31 66.92 234.21 67.19 234.13 67.44 234.09 67.72 234.06 67.72 233.09 68.11 233.04 68.49 232.95 68.83 232.81 69.17 232.61 69.47 232.38 69.74 232.09 69.97 231.79 70.15 231.44 70.29 231.09 70.39 230.72 70.43 230.33 70.41 229.94 70.91 229.95 71.14 229.79 71.34 229.6 71.53 229.38 71.66 229.14 71.78 228.88 71.84 228.61 71.89 228.33 71.89 228.05 71.85 227.78 71.78 227.5 71.69 227.25 71.53 227.01 71.42 226.84 71.28 226.69 71.12 226.53 70.99 226.39 70.83 226.24 70.67 226.12 70.49 225.99 70.33 225.88 70.15 225.77 69.97 225.67 69.76 225.58 69.58 225.5 69.61 223.78 71.13 223.77 71.13 223.15 71.7 223.15 71.71 220.71 73 220.71 73 219.77 74.01 219.77 74.03 208.83 56.92 208.78 56.89 219.72" style="fill:#ffb468"/><rect x="17.72" y="180.03" width="95.29" height="8.65" style="fill:#ffe06e"/><rect x="21.05" y="180.27" width="1.67" height="1.67" style="fill:#1f7de9"/><rect x="21.05" y="181.94" width="1.67" height="1.67" style="fill:#1f7de9"/><rect x="19.38" y="181.94" width="1.67" height="1.67" style="fill:#1f7de9"/><rect x="22.73" y="181.94" width="1.67" height="1.67" style="fill:#1f7de9"/><rect x="21.05" y="186.77" width="1.67" height="1.67" transform="translate(43.78 375.21) rotate(180)" style="fill:#1f7de9"/><rect x="21.05" y="185.1" width="1.67" height="1.67" transform="translate(43.78 371.86) rotate(180)" style="fill:#1f7de9"/><rect x="22.73" y="185.1" width="1.67" height="1.67" transform="translate(47.13 371.86) rotate(180)" style="fill:#1f7de9"/><rect x="19.38" y="185.1" width="1.67" height="1.67" transform="translate(40.44 371.86) rotate(180)" style="fill:#1f7de9"/><rect x="21.05" y="183.61" width="1.67" height="1.67" style="fill:#ffe06e"/><rect x="19.38" y="183.61" width="1.67" height="1.67" style="fill:#1f7de9"/><rect x="17.71" y="183.61" width="1.67" height="1.67" style="fill:#1f7de9"/><rect x="22.73" y="183.61" width="1.67" height="1.67" style="fill:#1f7de9"/><rect x="24.35" y="183.61" width="1.67" height="1.67" style="fill:#1f7de9"/><rect x="30.49" y="180.27" width="1.67" height="1.67" style="fill:#1f7de9"/><rect x="30.49" y="181.94" width="1.67" height="1.67" style="fill:#1f7de9"/><rect x="28.82" y="181.94" width="1.67" height="1.67" style="fill:#1f7de9"/><rect x="32.17" y="181.94" width="1.67" height="1.67" style="fill:#1f7de9"/><rect x="30.49" y="186.77" width="1.67" height="1.67" transform="translate(62.66 375.21) rotate(180)" style="fill:#1f7de9"/><rect x="30.49" y="185.1" width="1.67" height="1.67" transform="translate(62.66 371.86) rotate(180)" style="fill:#1f7de9"/><rect x="32.17" y="185.1" width="1.67" height="1.67" transform="translate(66 371.86) rotate(180)" style="fill:#1f7de9"/><rect x="28.82" y="185.1" width="1.67" height="1.67" transform="translate(59.31 371.86) rotate(180)" style="fill:#1f7de9"/><rect x="30.49" y="183.61" width="1.67" height="1.67" style="fill:#ffe06e"/><rect x="28.82" y="183.61" width="1.67" height="1.67" style="fill:#1f7de9"/><rect x="27.15" y="183.61" width="1.67" height="1.67" style="fill:#1f7de9"/><rect x="32.17" y="183.61" width="1.67" height="1.67" style="fill:#1f7de9"/><rect x="33.79" y="183.61" width="1.67" height="1.67" style="fill:#1f7de9"/><rect x="39.93" y="180.27" width="1.67" height="1.67" style="fill:#1f7de9"/><rect x="39.93" y="181.94" width="1.67" height="1.67" style="fill:#1f7de9"/><rect x="38.26" y="181.94" width="1.67" height="1.67" style="fill:#1f7de9"/><rect x="41.6" y="181.94" width="1.67" height="1.67" style="fill:#1f7de9"/><rect x="39.93" y="186.77" width="1.67" height="1.67" transform="translate(81.53 375.21) rotate(180)" style="fill:#1f7de9"/><rect x="39.93" y="185.1" width="1.67" height="1.67" transform="translate(81.53 371.86) rotate(180)" style="fill:#1f7de9"/><rect x="41.6" y="185.1" width="1.67" height="1.67" transform="translate(84.88 371.86) rotate(180)" style="fill:#1f7de9"/><rect x="38.26" y="185.1" width="1.67" height="1.67" transform="translate(78.19 371.86) rotate(180)" style="fill:#1f7de9"/><rect x="39.93" y="183.61" width="1.67" height="1.67" style="fill:#ffe06e"/><rect x="38.26" y="183.61" width="1.67" height="1.67" style="fill:#1f7de9"/><rect x="36.58" y="183.61" width="1.67" height="1.67" style="fill:#1f7de9"/><rect x="41.6" y="183.61" width="1.67" height="1.67" style="fill:#1f7de9"/><rect x="43.23" y="183.61" width="1.67" height="1.67" style="fill:#1f7de9"/><rect x="49.37" y="180.27" width="1.67" height="1.67" style="fill:#1f7de9"/><rect x="49.37" y="181.94" width="1.67" height="1.67" style="fill:#1f7de9"/><rect x="47.7" y="181.94" width="1.67" height="1.67" style="fill:#1f7de9"/><rect x="51.04" y="181.94" width="1.67" height="1.67" style="fill:#1f7de9"/><rect x="49.37" y="186.77" width="1.67" height="1.67" transform="translate(100.41 375.21) rotate(180)" style="fill:#1f7de9"/><rect x="49.37" y="185.1" width="1.67" height="1.67" transform="translate(100.41 371.86) rotate(180)" style="fill:#1f7de9"/><rect x="51.04" y="185.1" width="1.67" height="1.67" transform="translate(103.76 371.86) rotate(180)" style="fill:#1f7de9"/><rect x="47.7" y="185.1" width="1.67" height="1.67" transform="translate(97.06 371.86) rotate(180)" style="fill:#1f7de9"/><rect x="49.37" y="183.61" width="1.67" height="1.67" style="fill:#ffe06e"/><rect x="47.7" y="183.61" width="1.67" height="1.67" style="fill:#1f7de9"/><rect x="46.02" y="183.61" width="1.67" height="1.67" style="fill:#1f7de9"/><rect x="51.04" y="183.61" width="1.67" height="1.67" style="fill:#1f7de9"/><rect x="52.67" y="183.61" width="1.67" height="1.67" style="fill:#1f7de9"/><rect x="58.81" y="180.27" width="1.67" height="1.67" style="fill:#1f7de9"/><rect x="58.81" y="181.94" width="1.67" height="1.67" style="fill:#1f7de9"/><rect x="57.13" y="181.94" width="1.67" height="1.67" style="fill:#1f7de9"/><rect x="60.48" y="181.94" width="1.67" height="1.67" style="fill:#1f7de9"/><rect x="58.81" y="186.77" width="1.67" height="1.67" transform="translate(119.29 375.21) rotate(180)" style="fill:#1f7de9"/><rect x="58.81" y="185.1" width="1.67" height="1.67" transform="translate(119.29 371.86) rotate(180)" style="fill:#1f7de9"/><rect x="60.48" y="185.1" width="1.67" height="1.67" transform="translate(122.63 371.86) rotate(180)" style="fill:#1f7de9"/><rect x="57.13" y="185.1" width="1.67" height="1.67" transform="translate(115.94 371.86) rotate(180)" style="fill:#1f7de9"/><rect x="58.81" y="183.61" width="1.67" height="1.67" style="fill:#ffe06e"/><rect x="57.13" y="183.61" width="1.67" height="1.67" style="fill:#1f7de9"/><rect x="55.46" y="183.61" width="1.67" height="1.67" style="fill:#1f7de9"/><rect x="60.48" y="183.61" width="1.67" height="1.67" style="fill:#1f7de9"/><rect x="62.11" y="183.61" width="1.67" height="1.67" style="fill:#1f7de9"/><rect x="68.24" y="180.27" width="1.67" height="1.67" style="fill:#1f7de9"/><rect x="68.24" y="181.94" width="1.67" height="1.67" style="fill:#1f7de9"/><rect x="66.57" y="181.94" width="1.67" height="1.67" style="fill:#1f7de9"/><rect x="69.92" y="181.94" width="1.67" height="1.67" style="fill:#1f7de9"/><rect x="68.24" y="186.77" width="1.67" height="1.67" transform="translate(138.16 375.21) rotate(180)" style="fill:#1f7de9"/><rect x="68.24" y="185.1" width="1.67" height="1.67" transform="translate(138.16 371.86) rotate(180)" style="fill:#1f7de9"/><rect x="69.92" y="185.1" width="1.67" height="1.67" transform="translate(141.51 371.86) rotate(180)" style="fill:#1f7de9"/><rect x="66.57" y="185.1" width="1.67" height="1.67" transform="translate(134.82 371.86) rotate(180)" style="fill:#1f7de9"/><rect x="68.24" y="183.61" width="1.67" height="1.67" style="fill:#ffe06e"/><rect x="66.57" y="183.61" width="1.67" height="1.67" style="fill:#1f7de9"/><rect x="64.9" y="183.61" width="1.67" height="1.67" style="fill:#1f7de9"/><rect x="69.92" y="183.61" width="1.67" height="1.67" style="fill:#1f7de9"/><rect x="71.54" y="183.61" width="1.67" height="1.67" style="fill:#1f7de9"/><rect x="77.68" y="180.27" width="1.67" height="1.67" style="fill:#1f7de9"/><rect x="77.68" y="181.94" width="1.67" height="1.67" style="fill:#1f7de9"/><rect x="76.01" y="181.94" width="1.67" height="1.67" style="fill:#1f7de9"/><rect x="79.36" y="181.94" width="1.67" height="1.67" style="fill:#1f7de9"/><rect x="77.68" y="186.77" width="1.67" height="1.67" transform="translate(157.04 375.21) rotate(180)" style="fill:#1f7de9"/><rect x="77.68" y="185.1" width="1.67" height="1.67" transform="translate(157.04 371.86) rotate(180)" style="fill:#1f7de9"/><rect x="79.36" y="185.1" width="1.67" height="1.67" transform="translate(160.38 371.86) rotate(180)" style="fill:#1f7de9"/><rect x="76.01" y="185.1" width="1.67" height="1.67" transform="translate(153.69 371.86) rotate(180)" style="fill:#1f7de9"/><rect x="77.68" y="183.61" width="1.67" height="1.67" style="fill:#ffe06e"/><rect x="76.01" y="183.61" width="1.67" height="1.67" style="fill:#1f7de9"/><rect x="74.34" y="183.61" width="1.67" height="1.67" style="fill:#1f7de9"/><rect x="79.36" y="183.61" width="1.67" height="1.67" style="fill:#1f7de9"/><rect x="80.98" y="183.61" width="1.67" height="1.67" style="fill:#1f7de9"/><rect x="87.12" y="180.27" width="1.67" height="1.67" style="fill:#1f7de9"/><rect x="87.12" y="181.94" width="1.67" height="1.67" style="fill:#1f7de9"/><rect x="85.45" y="181.94" width="1.67" height="1.67" style="fill:#1f7de9"/><rect x="88.79" y="181.94" width="1.67" height="1.67" style="fill:#1f7de9"/><rect x="87.12" y="186.77" width="1.67" height="1.67" transform="translate(175.91 375.21) rotate(180)" style="fill:#1f7de9"/><rect x="87.12" y="185.1" width="1.67" height="1.67" transform="translate(175.91 371.86) rotate(180)" style="fill:#1f7de9"/><rect x="88.79" y="185.1" width="1.67" height="1.67" transform="translate(179.26 371.86) rotate(180)" style="fill:#1f7de9"/><rect x="85.45" y="185.1" width="1.67" height="1.67" transform="translate(172.57 371.86) rotate(180)" style="fill:#1f7de9"/><rect x="87.12" y="183.61" width="1.67" height="1.67" style="fill:#ffe06e"/><rect x="85.45" y="183.61" width="1.67" height="1.67" style="fill:#1f7de9"/><rect x="83.77" y="183.61" width="1.67" height="1.67" style="fill:#1f7de9"/><rect x="88.79" y="183.61" width="1.67" height="1.67" style="fill:#1f7de9"/><rect x="90.42" y="183.61" width="1.67" height="1.67" style="fill:#1f7de9"/><rect x="96.56" y="180.27" width="1.67" height="1.67" style="fill:#1f7de9"/><rect x="96.56" y="181.94" width="1.67" height="1.67" style="fill:#1f7de9"/><rect x="94.89" y="181.94" width="1.67" height="1.67" style="fill:#1f7de9"/><rect x="98.23" y="181.94" width="1.67" height="1.67" style="fill:#1f7de9"/><rect x="96.56" y="186.77" width="1.67" height="1.67" transform="translate(194.79 375.21) rotate(180)" style="fill:#1f7de9"/><rect x="96.56" y="185.1" width="1.67" height="1.67" transform="translate(194.79 371.86) rotate(180)" style="fill:#1f7de9"/><rect x="98.23" y="185.1" width="1.67" height="1.67" transform="translate(198.14 371.86) rotate(180)" style="fill:#1f7de9"/><rect x="94.89" y="185.1" width="1.67" height="1.67" transform="translate(191.44 371.86) rotate(180)" style="fill:#1f7de9"/><rect x="96.56" y="183.61" width="1.67" height="1.67" style="fill:#ffe06e"/><rect x="94.89" y="183.61" width="1.67" height="1.67" style="fill:#1f7de9"/><rect x="93.21" y="183.61" width="1.67" height="1.67" style="fill:#1f7de9"/><rect x="98.23" y="183.61" width="1.67" height="1.67" style="fill:#1f7de9"/><rect x="99.86" y="183.61" width="1.67" height="1.67" style="fill:#1f7de9"/><rect x="106" y="180.27" width="1.67" height="1.67" style="fill:#1f7de9"/><rect x="106" y="181.94" width="1.67" height="1.67" style="fill:#1f7de9"/><rect x="104.32" y="181.94" width="1.67" height="1.67" style="fill:#1f7de9"/><rect x="107.67" y="181.94" width="1.67" height="1.67" style="fill:#1f7de9"/><rect x="106" y="186.77" width="1.67" height="1.67" transform="translate(213.67 375.21) rotate(180)" style="fill:#1f7de9"/><rect x="106" y="185.1" width="1.67" height="1.67" transform="translate(213.67 371.86) rotate(180)" style="fill:#1f7de9"/><rect x="107.67" y="185.1" width="1.67" height="1.67" transform="translate(217.01 371.86) rotate(180)" style="fill:#1f7de9"/><rect x="104.32" y="185.1" width="1.67" height="1.67" transform="translate(210.32 371.86) rotate(180)" style="fill:#1f7de9"/><rect x="106" y="183.61" width="1.67" height="1.67" style="fill:#ffe06e"/><rect x="104.32" y="183.61" width="1.67" height="1.67" style="fill:#1f7de9"/><rect x="102.65" y="183.61" width="1.67" height="1.67" style="fill:#1f7de9"/><rect x="107.67" y="183.61" width="1.67" height="1.67" style="fill:#1f7de9"/><rect x="109.3" y="183.61" width="1.67" height="1.67" style="fill:#1f7de9"/><polygon points="50.23 212.14 52.05 212.15 52.05 213.93 54.42 213.94 54.4 218.56 55.44 218.56 55.44 219.74 58.26 219.78 58.29 223.03 57.91 223.17 57.58 223.34 57.25 223.54 56.92 223.73 56.59 223.94 56.3 224.18 55.96 224.41 55.72 224.69 55.42 224.95 55.17 225.25 54.93 225.55 54.68 225.85 54.43 226.32 54.22 226.79 54.09 227.31 54 227.83 54 228.36 54.09 228.89 54.25 229.4 54.42 229.89 54.71 230.34 54.99 230.76 55.36 231.12 55.78 231.42 56.69 231.43 56.65 232.16 56.73 232.89 56.9 233.6 57.14 234.26 57.47 234.91 57.88 235.49 58.38 236.03 58.96 236.48 59.54 236.85 60.2 237.13 60.86 237.31 61.57 237.39 61.57 239.24 62.06 239.29 62.56 239.38 63.01 239.53 63.47 239.72 63.88 239.98 64.3 240.28 64.63 240.63 64.95 241.01 65.24 241.45 65.46 241.9 65.66 242.37 65.78 242.87 65.91 242.37 66.08 241.9 66.33 241.45 66.57 241.02 66.91 240.64 67.28 240.29 67.66 239.99 68.07 239.73 68.53 239.54 69.03 239.4 69.48 239.31 69.98 239.27 69.98 237.42 70.69 237.33 71.4 237.16 72.02 236.89 72.64 236.52 73.18 236.07 73.68 235.54 74.1 234.96 74.43 234.31 74.68 233.65 74.85 232.94 74.93 232.21 74.89 231.47 75.8 231.48 76.22 231.18 76.59 230.82 76.93 230.41 77.18 229.95 77.39 229.46 77.51 228.95 77.6 228.43 77.6 227.9 77.52 227.38 77.4 226.86 77.23 226.39 76.94 225.91 76.74 225.61 76.49 225.31 76.2 225.01 75.95 224.75 75.65 224.47 75.37 224.23 75.04 223.99 74.75 223.78 74.42 223.58 74.09 223.39 73.71 223.21 73.38 223.07 73.44 219.82 76.21 219.8 76.21 218.62 77.25 218.62 77.26 214 79.63 214.01 79.63 212.22 81.45 212.22 81.5 207.57 50.28 207.49 50.23 212.14" style="fill:#f68951"/><rect x="2.06" y="171.38" width="126.75" height="2.41" style="fill:#ee673d"/><rect x="27.55" y="191.82" width="0.77" height="6.98" style="fill:#ffb468"/><rect x="31.32" y="191.82" width="0.77" height="6.98" style="fill:#ffb468"/><rect x="35.07" y="191.82" width="0.77" height="6.98" style="fill:#ffb468"/><rect x="38.82" y="191.82" width="0.77" height="6.98" style="fill:#ffb468"/><rect x="42.57" y="191.82" width="0.77" height="6.98" style="fill:#ffb468"/><rect x="46.32" y="191.82" width="0.77" height="6.98" style="fill:#ffb468"/><rect x="50.07" y="191.82" width="0.77" height="6.98" style="fill:#ffb468"/><rect x="53.82" y="191.82" width="0.77" height="6.98" style="fill:#ffb468"/><rect x="57.57" y="191.82" width="0.77" height="6.98" style="fill:#ffb468"/><rect x="61.31" y="191.82" width="0.77" height="6.98" style="fill:#ffb468"/><rect x="65.06" y="191.82" width="0.77" height="6.98" style="fill:#ffb468"/><rect x="68.81" y="191.82" width="0.77" height="6.98" style="fill:#ffb468"/><rect x="72.56" y="191.82" width="0.77" height="6.98" style="fill:#ffb468"/><rect x="76.31" y="191.82" width="0.77" height="6.98" style="fill:#ffb468"/><rect x="80.06" y="191.82" width="0.77" height="6.98" style="fill:#ffb468"/><rect x="83.81" y="191.82" width="0.77" height="6.98" style="fill:#ffb468"/><rect x="87.56" y="191.82" width="0.77" height="6.98" style="fill:#ffb468"/><rect x="91.3" y="191.82" width="0.77" height="6.98" style="fill:#ffb468"/><rect x="95.05" y="191.82" width="0.77" height="6.98" style="fill:#ffb468"/><rect x="98.8" y="191.82" width="0.77" height="6.98" style="fill:#ffb468"/><rect x="102.55" y="191.82" width="0.77" height="6.98" style="fill:#ffb468"/><rect x="25.53" y="197.23" width="80.13" height="2.14" style="fill:#ee673d"/><rect x="57.02" y="208.6" width="17.16" height="2.52" style="fill:#1f7de9"/><path d="M73.31,223.28c-1.61,0-13,0-15,0-.09-.74-.07-1.76-.08-1.78H73.39A7.77,7.77,0,0,1,73.31,223.28Z" style="fill:#1f7de9"/><polygon points="56.97 217.44 57.97 217.44 57.97 218.38 59.27 218.39 59.26 220.83 59.83 220.83 59.83 221.46 61.37 221.47 61.39 223.19 61.18 223.27 61 223.36 60.82 223.46 60.64 223.56 60.46 223.68 60.3 223.8 60.12 223.93 59.98 224.07 59.82 224.21 59.68 224.37 59.55 224.53 59.41 224.69 59.27 224.94 59.16 225.18 59.09 225.46 59.04 225.73 59.04 226.01 59.09 226.29 59.18 226.56 59.27 226.82 59.43 227.06 59.58 227.28 59.79 227.47 60.01 227.63 60.51 227.63 60.49 228.02 60.53 228.41 60.63 228.78 60.76 229.13 60.95 229.48 61.17 229.78 61.44 230.07 61.76 230.31 62.08 230.5 62.44 230.65 62.8 230.74 63.19 230.79 63.19 231.77 63.46 231.79 63.73 231.84 63.98 231.92 64.23 232.02 64.46 232.16 64.69 232.32 64.87 232.5 65.05 232.7 65.2 232.93 65.32 233.17 65.44 233.42 65.5 233.68 65.57 233.42 65.66 233.17 65.8 232.93 65.93 232.7 66.12 232.5 66.32 232.32 66.53 232.16 66.75 232.03 67 231.93 67.28 231.85 67.53 231.8 67.8 231.78 67.81 230.8 68.19 230.76 68.58 230.67 68.92 230.52 69.26 230.33 69.56 230.09 69.83 229.81 70.06 229.5 70.24 229.16 70.38 228.81 70.47 228.43 70.52 228.05 70.5 227.66 71 227.66 71.22 227.5 71.43 227.31 71.61 227.09 71.75 226.86 71.86 226.59 71.93 226.32 71.98 226.05 71.98 225.77 71.93 225.49 71.87 225.22 71.78 224.97 71.62 224.72 71.5 224.56 71.37 224.4 71.21 224.24 71.07 224.1 70.91 223.96 70.76 223.83 70.58 223.71 70.41 223.59 70.24 223.49 70.05 223.38 69.85 223.29 69.67 223.21 69.7 221.5 71.22 221.49 71.22 220.86 71.79 220.86 71.79 218.42 73.09 218.43 73.09 217.48 74.09 217.48 74.12 206.54 57 206.5 56.97 217.44" style="fill:#ffb468"/><path d="M74.06,210.06c-1.83,0-14.8-.1-17.05,0-.1-1.47-.08-3.52-.09-3.56H74.16A27.1,27.1,0,0,1,74.06,210.06Z" style="fill:#1f7de9"/><rect x="20.82" y="169.29" width="1.27" height="2" style="fill:#ffe06e"/><rect x="108.12" y="169.38" width="1.27" height="2" style="fill:#ffe06e"/><rect x="113.94" y="169.38" width="1.27" height="2" style="fill:#ffe06e"/><rect x="20.82" y="72.01" width="1.27" height="3.58" style="fill:#ffb66c"/><rect x="108.12" y="72.01" width="1.27" height="3.58" style="fill:#ffb66c"/><rect x="113.94" y="72.01" width="1.27" height="3.58" style="fill:#ffb66c"/><rect x="14.99" y="72.01" width="1.27" height="3.58" style="fill:#ffb66c"/><rect x="14.99" y="169.38" width="1.27" height="2" style="fill:#ffe06e"/></g></g></svg>