<svg xmlns="http://www.w3.org/2000/svg" viewBox="0 0 89.28 48.14"><defs><style>.cls-1{fill:#fefefe;}.cls-2{fill:#bde5ec;}.cls-3{fill:#3d1417;}</style></defs><title>Asset 5</title><g id="Layer_2" data-name="Layer 2"><g id="_1-Text" data-name="1-Text"><path class="cls-1" d="M39.12,48.1C28,46.25,15.23,43,6.72,31.11,4.52,28-.77,26,.09,22.38c.67-2.81,5.44-4.56,8.21-7C23.2,2.35,40-3.36,59.65,2c10.14,2.77,18.64,8.6,27,14.66,2.83,2,3.75,4.58.92,7.84C75.29,38.6,61.13,48.84,39.12,48.1Z"/><path class="cls-2" d="M44.72,40C36.3,39.85,26.25,33,26.84,24.34,27.5,14.5,34,6.86,42.84,6.85c7.72,0,17.89,9.43,18,16.72A16,16,0,0,1,44.72,40Z"/><path class="cls-1" d="M16.38,33.89a1.3,1.3,0,0,0-.08-.17h0l0-.06A16.31,16.31,0,0,0,15.45,32a.62.62,0,0,0,.07-.79l-2-3.23a.67.67,0,0,0-.29-.85l-.4-.24L9.9,22.3c-.49-.78-1.74-.06-1.24.73l1.52,2.41a.81.81,0,0,0-.63.3A.74.74,0,0,0,8.92,27l2.63,2.45,3.51,5C15.5,35.06,16.71,34.7,16.38,33.89Z"/><path class="cls-3" d="M48.74,11.78a12,12,0,0,0-4.3-.46h-.17a12.08,12.08,0,0,0-8,3.91A8.46,8.46,0,0,0,35,17.15a11.66,11.66,0,0,0-1.11,2.67c-1.27,4.7,1.3,9.76,5.07,12.47a11.18,11.18,0,0,0,12.5.63,12.19,12.19,0,0,0,5.79-10.08C57.4,17.61,53.59,13.24,48.74,11.78Z"/><path class="cls-1" d="M52.44,19c-3,1.87-3.55,6.44-.29,8.35,2.75,1.62,7,0,7.52-3.24a3.34,3.34,0,0,0,0-1.26,6,6,0,0,0-.11-.84A4.74,4.74,0,0,0,52.44,19Z"/><path class="cls-1" d="M36.46,25.66a4.57,4.57,0,0,0-2.76.91,1.4,1.4,0,0,0-.45,1.88.69.69,0,0,0,.11.13,1.23,1.23,0,0,0,.12.26,1.4,1.4,0,0,0,1.88.45l1.84-1.1A1.38,1.38,0,0,0,36.46,25.66Z"/></g></g></svg>