<svg xmlns="http://www.w3.org/2000/svg" viewBox="0 0 321.99 2204"><defs><style>.cls-1{fill:#1e1e1e;}</style></defs><title>NEWAsset 2</title><g id="Layer_2" data-name="Layer 2"><g id="Layer_1-2" data-name="Layer 1"><g id="Layer_2-2" data-name="Layer 2"><g id="PHONE"><g id="Slide1"><g id="Petetion"><polyline class="cls-1" points="202 38 228 37 151 211 140 222 120 230 74 222 1 224 1 260 21 412 98 502 166 512 118 653 22 730 0 837 146.03 993.53 0 1141.89 23 1372 0 1459.92 39.44 1582.51 60.81 1648.94 88 1721 0 1861.96 88 2053 63.81 2197.99 319.83 2204 312.89 2034.8 286.49 1932.57 244 1849 321.99 1642.98 299.51 1561.04 321 1484 290 1416 249.83 1399.91 222.44 1246.76 306.83 1165.89 321 1042.88 321 913.87 222.82 850.86 226.36 813.6 284 765 301 690 321 480 321 388 216 371 320 352 320.56 310.5 269 26 219 0 202 0"/></g></g></g></g></g></g></svg>