<svg xmlns="http://www.w3.org/2000/svg" viewBox="0 0 63 63"><defs><style>.cls-1{fill:#fff;stroke:#fff;stroke-miterlimit:10;stroke-width:3px;}</style></defs><title>Asset 2</title><g id="Layer_2" data-name="Layer 2"><g id="Layer_1-2" data-name="Layer 1"><g id="WVw5pr.tif"><path class="cls-1" d="M1.5,15.77a8.06,8.06,0,0,1,1.17-3.23A7.7,7.7,0,0,1,8.32,9a22.3,22.3,0,0,1,3.27,0c.53,0,1.06,0,1.59,0,.26,0,.35.1.35.36,0,.8,0,1.59,0,2.39,0,.27-.1.35-.36.35-1.27,0-2.53,0-3.8,0a4.68,4.68,0,0,0-4.15,2.32,4.11,4.11,0,0,0-.7,2.43c0,.79,0,1.57,0,2.36,0,.24.06.37.32.33a2.08,2.08,0,0,1,.25,0H58.26c.15,0,.22-.06.22-.22a24.21,24.21,0,0,0-.07-3.3,4.84,4.84,0,0,0-2.5-3.38A4.1,4.1,0,0,0,53.8,12c-1.81,0-3.61,0-5.42,0-.42,0-.42,0-.42-.43,0-.76,0-1.52,0-2.27,0-.29.09-.39.39-.39,1.58,0,3.16-.06,4.74-.07a8.07,8.07,0,0,1,7.29,4.16,9.17,9.17,0,0,1,1.13,3.14v38.7s0,.09,0,.14a7.36,7.36,0,0,1-4.39,5.77,9.32,9.32,0,0,1-2.49.7H8.42l-.15,0a7.76,7.76,0,0,1-5.86-4.05,8.21,8.21,0,0,1-.91-2.77Zm30,6.79H5c-.44,0-.44,0-.44.41q0,15.44,0,30.88a4.08,4.08,0,0,0,.08.85,5,5,0,0,0,4.67,3.8q21.32,0,42.64,0a6.29,6.29,0,0,0,1.3-.12,9.21,9.21,0,0,0,3.71-1.5,3.6,3.6,0,0,0,1.55-3V22.94c0-.3-.09-.42-.38-.38a2.61,2.61,0,0,1-.28,0Z"/><path class="cls-1" d="M18.58,1.5a1.52,1.52,0,0,1,.93,1.33,5.78,5.78,0,0,1,0,.83v7.86a3.21,3.21,0,0,1-.16,1.11,1.4,1.4,0,0,1-1.77.92,1.36,1.36,0,0,1-1.15-1.38c0-3,0-6.07,0-9.11a1.56,1.56,0,0,1,.93-1.56Z"/><path class="cls-1" d="M44.11,1.5A1.71,1.71,0,0,1,45,3.14c0,2.92,0,5.84,0,8.76a2.51,2.51,0,0,1-.1.6,1.25,1.25,0,0,1-.94,1,1.56,1.56,0,0,1-1.6-.42A1.67,1.67,0,0,1,42,12c0-2.9,0-5.8,0-8.7a1.77,1.77,0,0,1,.93-1.76Z"/><path class="cls-1" d="M30.75,12.05H22.89c-.41,0-.41,0-.41-.4,0-.77,0-1.53,0-2.29,0-.32.1-.41.4-.4H38.6C39,9,39,9,39,9.4v2.2c0,.45,0,.45-.46.45Z"/></g></g></g></svg>