<svg xmlns="http://www.w3.org/2000/svg" viewBox="0 0 41.23 65.54"><defs><style>.cls-1{fill:#fff;}</style></defs><title>Asset 1</title><g id="Layer_2" data-name="Layer 2"><g id="Layer_1-2" data-name="Layer 1"><g id="o6RJFq.tif"><path class="cls-1" d="M18.31,0h4.61l.3.08C31.3,1.33,36.86,5.77,39.94,13.33a21.7,21.7,0,0,1,1.29,5.75v3.23A50.25,50.25,0,0,1,37.8,34.63,172.86,172.86,0,0,1,24.49,60.25c-1.09,1.79-2.18,3.59-3.41,5.29h-.77a4.33,4.33,0,0,1-1-1.09c-3-4.28-5.84-8.67-8.44-13.2A105.39,105.39,0,0,1,2.36,33.07,48,48,0,0,1,0,22.61v-4.3c0-.18.07-.35.1-.53A20.51,20.51,0,0,1,10.28,2.66,20.94,20.94,0,0,1,18.31,0ZM11.22,21a9.39,9.39,0,1,0,9.11-9.42A9.4,9.4,0,0,0,11.22,21Z"/></g></g></g></svg>