<svg xmlns="http://www.w3.org/2000/svg" viewBox="0 0 47.5 47.5"><defs><style>.cls-1{fill:#974d4c;}.cls-2{fill:#fff;}</style></defs><title>Asset 1</title><g id="Layer_2" data-name="Layer 2"><g id="Layer_1-2" data-name="Layer 1"><circle class="cls-1" cx="23.75" cy="23.75" r="23.75"/><g id="fYwDeQ.tif"><path class="cls-2" d="M23.9,37.43a12.33,12.33,0,0,1-6-1.33A1.43,1.43,0,0,0,16.83,36c-1.91.52-3.84,1-5.76,1.51-.94.25-1,.24-.69-.74.51-1.84,1-3.69,1.52-5.53a1.52,1.52,0,0,0-.13-1.18A13.67,13.67,0,1,1,25.5,37.42,14.23,14.23,0,0,1,23.9,37.43Zm3.38-7.17a3.75,3.75,0,0,0,2.89-1.07,1.53,1.53,0,0,0-.49-2.68L29,26.17c-1.5-.72-1.5-.72-2.61.55l-.09.11a.91.91,0,0,1-1.27.29,9.27,9.27,0,0,1-4-3.27c-.68-1-.7-1,.07-1.92a1.38,1.38,0,0,0,.26-1.71c-.32-.62-.56-1.28-.82-1.93a1.08,1.08,0,0,0-1.27-.72A1.85,1.85,0,0,0,18,18.3c-1.14,1.4-1.2,3.2-.08,5.09a16.24,16.24,0,0,0,3.83,4.51A11.93,11.93,0,0,0,27.28,30.26Z"/></g></g></g></svg>